<?xml version="1.0" encoding="utf-8"?>
<!-- Generator: Adobe Illustrator 19.1.0, SVG Export Plug-In . SVG Version: 6.00 Build 0)  -->
<svg version="1.1" id="Layer_1" xmlns="http://www.w3.org/2000/svg" xmlns:xlink="http://www.w3.org/1999/xlink" x="0px" y="0px"
	 viewBox="0 0 138.4 48.4" style="enable-background:new 0 0 138.4 48.4;" xml:space="preserve">
<style type="text/css">
	.st0{clip-path:url(#SVGID_2_);}
	.st1{stroke:#4B9228;stroke-width:7.128000e-02;}
	.st2{fill:none;stroke:#000000;stroke-width:2.4926;}
</style>
<g>
	<path d="M58.9,18.8h-3.1l3.4-18.4h3.9l3.4,18.4h-3.1l-0.6-4.1h-3.5L58.9,18.8z M59.9,11.9h2.5L61.2,4h-0.1L59.9,11.9z"/>
	<path d="M67.8,18.8V0.4h2.9l3.8,10.5h0.1V0.4h2.9v18.4h-2.8l-4-11.5h-0.1v11.5H67.8z"/>
	<path d="M83.9,9.4H89v9.3h-1.5l-0.6-1.4C86,18.5,85.2,19,83.7,19c-2.5,0-4.2-1.8-4.2-4.7V4.8c0-2.6,1.5-4.7,4.6-4.7
		c3.2,0,4.7,2.3,4.7,5v1.2h-3c0-2.8-0.6-3.5-1.8-3.5c-0.8,0-1.4,0.5-1.4,2v9.5c0,1.2,0.4,1.9,1.5,1.9c1.3,0,1.7-0.7,1.7-2.5v-1.8h-2
		V9.4z"/>
	<path d="M91.1,18.8V0.4h3.2V16h5v2.8H91.1z"/>
	<path d="M100.9,18.8V0.4h3.2v18.4H100.9z"/>
	<path d="M112.6,6.5V5.1c0-1.6-0.7-2.2-1.5-2.2c-1.3,0-1.7,0.7-1.7,2v9.3c0,1.4,0.4,2,1.7,2c1.1,0,1.5-0.7,1.5-1.9v-2.2h3.2v2.1
		c0,2.6-1.5,4.7-4.7,4.7c-3.3,0-4.8-2.1-4.8-4.7V4.8c0-2.6,1.5-4.7,4.8-4.7c3.2,0,4.7,2.3,4.7,5v1.4H112.6z"/>
	<path d="M119.9,18.8h-3.1l3.4-18.4h3.9l3.4,18.4h-3.1l-0.6-4.1h-3.5L119.9,18.8z M120.9,11.9h2.5L122.2,4h-0.1L120.9,11.9z"/>
	<path d="M128.7,18.8V0.4h2.9l3.8,10.5h0.1V0.4h2.9v18.4h-2.8l-4-11.5h-0.1v11.5H128.7z"/>
</g>
<path d="M41.8,21.7h3.1L41.1,40h-3.1l-3.8-18.3h3.1l2.3,12.7h0.1L41.8,21.7z"/>
<path d="M45.9,40V21.7h8.4v2.7H49v4.7h4.1v2.7H49v5.4h5.6V40H45.9z"/>
<path d="M59.4,40h-3.1V21.7h4.4c3.5,0,5.3,1.5,5.3,5.4c0,2.9-1.1,4.1-2.2,4.6l2.7,8.3h-3.2L61,32.5c-0.4,0.1-1.1,0.1-1.6,0.1V40z
	 M59.4,29.9h1.1c1.7,0,2.3-0.6,2.3-2.8c0-2.2-0.6-2.8-2.3-2.8h-1.1V29.9z"/>
<path d="M73.9,26.2c-0.1-1.6-1-2-1.7-2c-1,0-1.6,0.7-1.6,1.8c0,3.1,6.4,4.6,6.4,9.6c0,3-2,4.7-5,4.7c-2.9,0-4.6-2.3-4.7-5.1l3-0.4
	c0.1,1.9,0.9,2.8,1.9,2.8c1.1,0,1.8-0.6,1.8-1.7c0-3.6-6.4-4.6-6.4-9.8c0-2.9,1.8-4.6,4.9-4.6c2.6,0,4.1,1.9,4.4,4.4L73.9,26.2z"/>
<path d="M78.7,40V21.7h8.4v2.7h-5.3v4.7h4.1v2.7h-4.1v5.4h5.6V40H78.7z"/>
<path d="M91,40h-3l3.4-18.3h3.9L98.6,40h-3L95,36h-3.4L91,40z M92,33.2h2.5l-1.2-7.9h-0.1L92,33.2z"/>
<path d="M105.4,26.2c-0.1-1.6-1-2-1.7-2c-1,0-1.6,0.7-1.6,1.8c0,3.1,6.4,4.6,6.4,9.6c0,3-2,4.7-5,4.7c-2.9,0-4.6-2.3-4.7-5.1l3-0.4
	c0.1,1.9,0.9,2.8,1.9,2.8c1.1,0,1.8-0.6,1.8-1.7c0-3.6-6.4-4.6-6.4-9.8c0-2.9,1.8-4.6,4.9-4.6c2.6,0,4.1,1.9,4.4,4.4L105.4,26.2z"/>
<g>
	<g>
		<g>
			<defs>
				<circle id="SVGID_1_" cx="21" cy="31" r="12"/>
			</defs>
			<clipPath id="SVGID_2_">
				<use xlink:href="#SVGID_1_"  style="overflow:visible;"/>
			</clipPath>
			<g class="st0">
				<polyline points="19.7,22.3 19.6,22.3 19.6,22.3 19.6,22.3 19.6,22.3 19.5,22.2 19.5,22.2 19.5,22.2 19.5,22.1 19.5,22.1 
					19.5,22.1 19.6,22.1 19.5,22.2 19.6,22.2 19.6,22.2 19.6,22.2 19.6,22.2 19.7,22.2 19.7,22.3 19.7,22.3 19.6,22.3 19.7,22.3 
									"/>
				<polyline points="20.4,21.7 20.5,21.8 20.5,21.8 20.6,21.7 20.6,21.7 20.5,21.8 20.5,21.8 20.6,21.7 20.5,21.7 20.5,21.7 
					20.5,21.7 20.5,21.6 20.5,21.6 20.5,21.6 20.5,21.6 20.5,21.6 20.5,21.6 20.4,21.7 20.4,21.7 20.4,21.7 				"/>
				<polyline points="22.8,31.8 22.8,31.8 22.8,31.8 22.8,31.8 22.9,31.8 22.9,31.8 23,31.8 23,31.8 23,31.8 23.1,31.8 23.1,31.9 
					23,31.9 23,31.9 22.9,31.9 22.9,31.9 22.8,31.9 22.8,31.8 				"/>
				<polyline points="24.2,32.4 24.2,32.4 24.2,32.4 24.2,32.4 24.3,32.4 24.3,32.4 24.3,32.5 24.3,32.5 24.3,32.5 24.2,32.5 
					24.2,32.5 24.2,32.4 				"/>
				<polyline points="28,35 28,35 28.1,35.1 28.1,35.2 28,35.2 28,35.3 28,35.3 28,35.2 28,35.2 28,35.1 28.1,35.1 28,35 				"/>
				<polyline points="24.2,38 24.3,38 24.3,37.9 24.4,37.9 24.5,37.9 24.5,38 24.5,38 24.6,38 24.6,38 24.5,38 24.5,38 24.5,38 
					24.5,38 24.4,38 24.3,38 24.3,38 24.2,38 24.2,38 				"/>
				<polyline class="st1" points="26.8,39.1 26.9,39.1 26.9,39.2 26.9,39.2 26.9,39.3 26.9,39.3 26.9,39.2 26.9,39.2 26.8,39.1 
					26.8,39.1 				"/>
				<polyline class="st1" points="26.9,39.3 26.9,39.3 27,39.3 27,39.3 27,39.3 27,39.3 26.9,39.3 				"/>
				<polyline class="st1" points="26.1,39.4 26.1,39.4 26.2,39.4 26.2,39.4 26.2,39.4 26.3,39.4 26.3,39.4 26.4,39.5 26.5,39.5 
					26.6,39.5 26.6,39.5 26.7,39.5 26.7,39.5 26.7,39.5 26.8,39.4 26.8,39.4 26.8,39.5 26.9,39.4 26.9,39.4 26.9,39.5 27,39.6 
					27,39.6 26.9,39.7 26.9,39.7 27,39.8 27,39.8 27,39.9 27,39.9 27,39.8 26.9,39.8 26.9,39.8 26.9,39.9 26.9,39.9 26.9,40 
					26.9,40 26.8,40 26.8,40 26.8,40 26.8,40.1 26.8,40.1 26.8,40.1 26.7,40.1 26.7,40.2 26.7,40.2 26.7,40.1 26.7,40.2 26.6,40.2 
					26.6,40.3 26.6,40.3 26.6,40.3 26.6,40.3 26.5,40.3 26.5,40.3 26.5,40.3 26.4,40.3 26.4,40.2 26.4,40.2 26.5,40.2 26.4,40.2 
					26.4,40.2 26.3,40.1 26.3,40 26.3,40 26.2,39.8 26.3,39.9 26.3,39.9 26.3,39.9 26.2,39.8 26.1,39.6 26.1,39.5 26.1,39.4 				"/>
				<polyline points="19,34.3 19.1,34.3 19.1,34.4 19.1,34.4 19.1,34.4 19.1,34.4 19.1,34.4 19.1,34.5 19.1,34.5 19.1,34.5 
					19.1,34.5 19.1,34.4 19.2,34.3 19.2,34.3 19.2,34.3 19.3,34.3 19.3,34.3 19.4,34.2 19.4,34.2 19.4,34.2 19.5,34.2 19.5,34.1 
					19.5,34.1 19.6,34.1 19.6,34.1 19.7,34 19.7,34 19.7,34 19.8,34 19.8,34 19.8,34 19.9,34 19.9,34 20,34 20,34 20,33.9 
					20.1,33.9 20.1,33.9 20.2,33.9 20.3,33.9 20.3,33.9 20.4,33.9 20.4,33.9 20.5,33.8 20.5,33.8 20.6,33.8 20.6,33.8 20.7,33.8 
					20.8,33.7 20.8,33.6 20.8,33.6 20.8,33.5 20.8,33.5 20.8,33.5 20.9,33.5 21,33.4 21,33.4 20.9,33.4 20.9,33.3 20.9,33.2 
					21,33.2 21,33.1 21,33.1 21,33.1 21,33.1 21.1,33.1 21.1,33.1 21.1,33 21.1,33 21.1,33 21.1,33.1 21.1,33.1 21.2,33.2 
					21.2,33.2 21.2,33.3 21.2,33.3 21.2,33.2 21.2,33.2 21.3,33.2 21.3,33.2 21.3,33.1 21.3,33.1 21.2,33 21.2,33 21.2,33 
					21.3,32.9 21.3,33 21.3,33 21.4,33 21.5,33 21.5,33 21.4,33 21.4,32.9 21.5,32.9 21.5,32.9 21.5,32.8 21.5,32.8 21.5,32.8 
					21.6,32.8 21.6,32.8 21.6,32.7 21.6,32.7 21.6,32.7 21.6,32.7 21.6,32.7 21.6,32.6 21.6,32.6 21.7,32.6 21.7,32.6 21.7,32.6 
					21.7,32.6 21.7,32.6 21.8,32.6 21.8,32.6 21.8,32.5 21.8,32.5 21.8,32.5 21.8,32.4 21.8,32.5 21.8,32.5 21.9,32.5 21.9,32.4 
					21.9,32.5 21.9,32.5 21.9,32.5 22,32.4 22,32.4 22,32.4 22,32.4 22,32.4 22.1,32.4 22.1,32.4 22.1,32.4 22.2,32.5 22.2,32.6 
					22.3,32.6 22.3,32.7 22.3,32.7 22.3,32.7 22.3,32.7 22.3,32.7 22.3,32.7 22.3,32.7 22.3,32.7 22.3,32.7 22.3,32.7 22.4,32.7 
					22.4,32.6 22.4,32.6 22.4,32.6 22.5,32.6 22.5,32.6 22.6,32.7 22.6,32.7 22.6,32.7 22.6,32.7 22.6,32.7 22.7,32.6 22.7,32.6 
					22.6,32.6 22.6,32.5 22.6,32.5 22.6,32.5 22.6,32.5 22.7,32.4 22.7,32.4 22.7,32.3 22.7,32.3 22.8,32.3 22.8,32.3 22.8,32.3 
					22.8,32.3 22.8,32.2 22.8,32.2 22.8,32.2 22.8,32.1 22.9,32.1 22.9,32.1 22.9,32.1 22.9,32.1 22.9,32.1 22.9,32.1 22.9,32.1 
					22.9,32.1 23,32 23,32.1 23,32 23.1,32 23.1,32 23.2,32 23.2,32 23.3,32 23.3,32 23.3,31.9 23.3,31.9 23.2,31.9 23.2,31.9 
					23.2,31.8 23.2,31.8 23.1,31.8 23.1,31.8 23.1,31.8 23.2,31.8 23.2,31.8 23.2,31.8 23.2,31.8 23.2,31.9 23.2,31.8 23.2,31.8 
					23.2,31.8 23.3,31.8 23.3,31.8 23.3,31.8 23.3,31.8 23.3,31.9 23.3,31.8 23.4,31.8 23.4,31.8 23.4,31.9 23.4,31.9 23.5,31.9 
					23.5,31.9 23.5,31.9 23.5,31.9 23.6,31.9 23.6,31.9 23.6,31.9 23.6,32 23.6,32 23.7,32 23.7,32 23.8,32 23.8,32 23.8,32 
					23.8,32 23.9,32 23.9,32 23.9,32 24,32 24,32 24,32 24,32 24.1,32 24.1,32 24.1,32 24.1,32 24.1,32 24.1,32 24.1,32.1 
					24.1,32.1 24.1,32.1 24.2,32 24.2,32 24.2,32 24.2,32 24.2,32 24.2,32 24.2,32.1 24.3,32 24.3,32 24.3,32 24.3,32.1 24.3,32.1 
					24.3,32.2 24.2,32.2 24.2,32.2 24.2,32.2 24.2,32.2 24.2,32.3 24.2,32.3 24.2,32.3 24.2,32.2 24.1,32.3 24.1,32.3 24.1,32.3 
					24.1,32.3 24.1,32.3 24.1,32.3 24.1,32.3 24.1,32.4 24.1,32.4 24.1,32.4 24.1,32.4 24.1,32.5 24.1,32.5 24,32.6 24,32.6 
					24,32.6 24,32.7 24,32.7 24.1,32.7 24.1,32.7 24.1,32.7 24.2,32.8 24.2,32.8 24.2,32.8 24.2,32.9 24.2,32.9 24.3,32.9 
					24.4,32.9 24.4,32.9 24.5,33 24.5,33 24.5,33 24.6,33 24.6,33.1 24.6,33.1 24.7,33.1 24.8,33.1 24.8,33.1 24.8,33.2 24.9,33.2 
					25,33.3 25,33.3 25.1,33.3 25.1,33.3 25.2,33.3 25.2,33.2 25.2,33.2 25.3,33.1 25.3,32.9 25.4,32.8 25.4,32.7 25.4,32.7 
					25.4,32.6 25.4,32.6 25.4,32.5 25.4,32.4 25.4,32.3 25.4,32.2 25.4,32.2 25.4,32.1 25.4,32.1 25.4,32.1 25.4,32 25.5,32 
					25.5,31.9 25.5,31.9 25.5,31.8 25.5,31.7 25.5,31.7 25.6,31.7 25.6,31.7 25.6,31.7 25.6,31.7 25.7,31.7 25.7,31.7 25.7,31.7 
					25.7,31.7 25.7,31.7 25.7,31.8 25.7,31.9 25.7,31.9 25.7,31.9 25.7,32 25.7,32 25.8,32.1 25.8,32.1 25.8,32.1 25.8,32.2 
					25.8,32.2 25.8,32.2 25.8,32.3 25.8,32.4 25.9,32.4 25.9,32.5 25.9,32.5 25.9,32.5 26,32.6 26,32.5 26,32.5 26.1,32.5 
					26.1,32.6 26.1,32.6 26.2,32.6 26.2,32.6 26.3,32.7 26.2,32.7 26.3,32.7 26.2,32.8 26.3,32.9 26.3,32.9 26.3,32.9 26.3,33 
					26.3,33.1 26.3,33.1 26.4,33.1 26.4,33.2 26.4,33.3 26.4,33.3 26.4,33.4 26.4,33.4 26.4,33.4 26.4,33.5 26.5,33.5 26.5,33.5 
					26.5,33.5 26.5,33.5 26.5,33.5 26.5,33.6 26.5,33.6 26.5,33.6 26.5,33.6 26.6,33.7 26.6,33.7 26.6,33.7 26.7,33.7 26.7,33.7 
					26.7,33.7 26.8,33.8 26.8,33.8 26.8,33.8 26.8,33.8 26.9,33.8 26.9,33.8 26.9,33.9 27,33.9 27,33.9 27,33.9 27,33.9 27.1,33.9 
					27.1,34 27,34 27,34 27.1,34.1 27.1,34.1 27.1,34.1 27.1,34.1 27.2,34.2 27.2,34.2 27.2,34.2 27.2,34.2 27.2,34.3 27.2,34.4 
					27.2,34.4 27.2,34.4 27.2,34.4 27.3,34.5 27.3,34.5 27.3,34.5 27.3,34.5 27.3,34.4 27.3,34.4 27.4,34.4 27.4,34.4 27.4,34.5 
					27.5,34.5 27.5,34.4 27.5,34.4 27.5,34.5 27.5,34.5 27.5,34.6 27.5,34.7 27.5,34.7 27.6,34.8 27.6,34.8 27.6,34.8 27.7,34.8 
					27.7,34.9 27.8,34.9 27.8,35 27.8,35 27.8,35 27.9,35 27.9,35 27.9,35.1 27.9,35.1 28,35.2 28,35.2 28,35.3 28,35.3 28,35.3 
					28,35.3 28,35.4 28,35.4 28,35.5 28,35.6 28.1,35.6 28,35.6 28,35.7 28,35.7 28,35.7 28.1,35.7 28.1,35.8 28.1,35.8 28.1,36 
					28.1,36.1 28.1,36.1 28.1,36.2 28.1,36.2 28.1,36.3 28.1,36.4 28.1,36.5 28,36.5 28,36.6 28,36.7 28,36.7 28,36.7 28,36.9 
					27.9,36.9 27.9,37 27.9,37 27.9,37 27.9,37 27.9,37.1 27.8,37.1 27.8,37.1 27.8,37.1 27.8,37.1 27.8,37.2 27.8,37.2 27.7,37.2 
					27.7,37.2 27.7,37.3 27.7,37.3 27.6,37.4 27.6,37.4 27.6,37.4 27.6,37.4 27.6,37.4 27.6,37.5 27.6,37.5 27.6,37.5 27.6,37.6 
					27.5,37.8 27.5,37.8 27.5,37.8 27.4,37.9 27.4,37.9 27.4,37.9 27.4,37.9 27.4,38 27.4,38 27.4,38.1 27.4,38.1 27.4,38.2 
					27.4,38.2 27.3,38.3 27.3,38.3 27.3,38.3 27.3,38.4 27.3,38.4 27.3,38.5 27.3,38.5 27.3,38.5 27.3,38.5 27.3,38.5 27.2,38.5 
					27,38.5 26.9,38.6 26.8,38.6 26.8,38.7 26.7,38.7 26.7,38.7 26.7,38.7 26.6,38.8 26.6,38.8 26.6,38.8 26.5,38.8 26.5,38.8 
					26.5,38.8 26.5,38.8 26.5,38.9 26.5,38.8 26.5,38.8 26.6,38.8 26.5,38.9 26.5,38.9 26.5,38.9 26.5,38.9 26.4,38.9 26.4,38.8 
					26.4,38.8 26.3,38.8 26.3,38.8 26.3,38.7 26.3,38.7 26.3,38.7 26.2,38.7 26.2,38.7 26.2,38.7 26.1,38.7 26.2,38.7 26.2,38.6 
					26.2,38.6 26.2,38.6 26.1,38.6 26,38.6 26.1,38.7 26.1,38.7 26.1,38.7 26,38.7 26,38.7 25.9,38.8 25.9,38.8 25.8,38.8 
					25.8,38.8 25.7,38.8 25.6,38.7 25.6,38.7 25.5,38.7 25.5,38.7 25.4,38.7 25.4,38.7 25.3,38.7 25.3,38.6 25.2,38.6 25.1,38.6 
					25.1,38.5 25.1,38.5 25,38.4 25,38.3 25,38.3 25,38.2 25,38.2 25,38.1 24.9,37.9 24.9,37.9 24.9,37.9 24.8,37.9 24.8,37.9 
					24.7,37.9 24.6,37.9 24.6,37.9 24.6,37.9 24.7,37.8 24.7,37.7 24.7,37.7 24.7,37.6 24.6,37.6 24.6,37.5 24.5,37.6 24.5,37.7 
					24.5,37.7 24.5,37.8 24.5,37.8 24.5,37.8 24.4,37.8 24.4,37.8 24.3,37.8 24.3,37.8 24.3,37.7 24.4,37.7 24.4,37.7 24.5,37.6 
					24.5,37.6 24.4,37.6 24.4,37.6 24.5,37.5 24.5,37.5 24.5,37.5 24.5,37.4 24.5,37.4 24.5,37.3 24.6,37.2 24.6,37.2 24.6,37.2 
					24.6,37.2 24.6,37.1 24.5,37.1 24.5,37.1 24.5,37.1 24.5,37.1 24.5,37.2 24.5,37.2 24.5,37.2 24.4,37.3 24.4,37.3 24.4,37.4 
					24.4,37.4 24.3,37.4 24.3,37.4 24.3,37.4 24.3,37.4 24.2,37.5 24.2,37.5 24.2,37.5 24.1,37.6 24.1,37.6 24.1,37.7 24.1,37.7 
					24.1,37.8 24.1,37.7 24.1,37.7 24,37.7 24,37.7 24,37.6 23.9,37.6 23.9,37.6 24,37.6 24,37.6 24,37.5 24,37.5 23.9,37.5 
					23.9,37.4 23.9,37.4 23.9,37.3 23.8,37.3 23.8,37.2 23.8,37.3 23.7,37.2 23.7,37.2 23.7,37.2 23.7,37.1 23.7,37.1 23.7,37.1 
					23.6,37.1 23.5,37 23.5,37 23.5,37 23.5,37 23.4,37 23.3,36.9 23.3,36.9 23.3,36.9 23.3,36.9 23.2,36.9 23.1,36.8 23.1,36.8 
					23,36.8 22.9,36.8 22.8,36.8 22.6,36.8 22.6,36.8 22.4,36.9 22.3,36.9 22.2,37 22.1,37 22,37 21.9,37 21.8,37 21.8,37 21.7,37 
					21.6,37.1 21.6,37.1 21.5,37.1 21.5,37.2 21.4,37.2 21.4,37.2 21.4,37.2 21.3,37.3 21.3,37.3 21.3,37.4 21.3,37.4 21.2,37.4 
					21.2,37.4 21.1,37.4 21,37.4 20.9,37.4 20.9,37.4 20.9,37.4 20.9,37.4 20.8,37.4 20.7,37.4 20.7,37.4 20.6,37.4 20.4,37.4 
					20.4,37.5 20.4,37.5 20.3,37.5 20.3,37.5 20.3,37.5 20.3,37.6 20.3,37.6 20.2,37.6 20.1,37.6 20.1,37.7 20.1,37.7 20,37.7 
					20,37.7 20,37.7 20,37.8 19.9,37.8 19.9,37.8 19.9,37.7 19.7,37.7 19.7,37.7 19.6,37.7 19.6,37.7 19.6,37.7 19.6,37.7 
					19.5,37.6 19.5,37.6 19.4,37.5 19.4,37.5 19.3,37.5 19.3,37.4 19.3,37.3 19.3,37.3 19.4,37.4 19.4,37.4 19.4,37.3 19.5,37.2 
					19.5,37.2 19.4,37.1 19.4,37.1 19.5,37.1 19.5,37.1 19.5,37 19.5,36.9 19.5,36.8 19.4,36.7 19.4,36.6 19.4,36.6 19.3,36.6 
					19.3,36.5 19.3,36.4 19.3,36.2 19.3,36.2 19.2,36.1 19.2,36 19.1,36 19.1,35.9 19.1,35.8 19.1,35.7 19,35.6 19,35.6 19,35.5 
					18.9,35.5 18.9,35.5 18.9,35.5 18.9,35.4 18.9,35.4 18.9,35.4 18.9,35.4 18.9,35.4 18.9,35.5 18.9,35.5 19,35.5 19,35.5 
					19,35.5 19,35.5 19,35.5 19,35.4 18.9,35.3 18.9,35.2 18.9,35.3 19,35.3 19,35.4 19,35.4 19,35.4 19,35.5 19.1,35.5 19.1,35.4 
					19.1,35.4 19.1,35.3 19.1,35.3 19,35.2 19,35.2 19,35.2 19,35.1 19,35.1 18.9,35 18.9,34.8 18.9,34.8 19,34.7 19,34.7 19,34.7 
					19,34.6 19,34.5 19,34.4 19,34.4 19,34.3 19,34.3 				"/>
				<polyline points="20.3,26.6 20.3,26.6 20.3,26.6 20.3,26.7 20.3,26.7 20.3,26.7 20.3,26.7 20.4,26.8 20.3,26.8 20.3,26.8 
					20.3,26.9 20.2,26.9 20.2,26.9 20.2,27 20.2,27 20.1,27.1 20,27.1 20,27.2 19.9,27.2 19.9,27.2 19.9,27.3 19.8,27.3 19.8,27.3 
					19.8,27.2 19.9,27.2 19.9,27.1 19.9,27.1 20,27.1 20.1,27 20.1,26.9 20.2,26.9 20.2,26.9 20.2,26.8 20.3,26.8 20.3,26.8 
					20.3,26.7 20.3,26.7 20.3,26.7 20.3,26.7 20.3,26.7 20.3,26.7 20.3,26.7 20.3,26.6 20.3,26.6 				"/>
				<polyline points="20.5,26.1 20.5,26.1 20.5,26.1 20.7,26.1 20.7,26.1 20.7,26.1 20.8,26.2 20.8,26.2 20.8,26.2 20.8,26.2 
					20.8,26.3 20.8,26.3 20.8,26.3 20.8,26.4 20.7,26.4 20.7,26.4 20.7,26.3 20.6,26.3 20.6,26.2 20.6,26.2 20.6,26.2 20.6,26.1 
					20.5,26.1 20.5,26.1 				"/>
				<polyline points="21,24.9 21,24.9 21,25 21,25 20.9,25 20.9,25.1 20.9,25.2 21,25.2 21,25.2 21,25.2 21,25.3 21,25.3 21,25.3 
					21,25.4 21,25.4 20.9,25.5 20.9,25.5 20.9,25.5 20.9,25.5 20.8,25.5 20.8,25.6 20.8,25.6 20.8,25.7 20.8,25.7 20.8,25.7 
					20.8,25.8 20.8,25.8 20.8,25.8 20.8,25.8 20.8,25.9 20.8,25.9 20.8,26 20.9,26 20.9,26 21,26 21,26 21,25.9 21,25.9 21,25.9 
					21,25.9 21.1,25.9 21.1,25.9 21.1,25.9 21.1,26 21.2,26 21.2,26 21.2,26 21.2,26 21.2,26 21.2,26 21.3,26 21.3,26 21.3,26.1 
					21.3,26.1 21.3,26.1 21.3,26.1 21.3,26.1 21.3,26.1 21.3,26.2 21.3,26.2 21.3,26.2 21.3,26.2 21.4,26.2 21.4,26.2 21.4,26.3 
					21.4,26.3 21.3,26.3 21.3,26.3 21.4,26.2 21.3,26.2 21.3,26.2 21.2,26.2 21.2,26.2 21.2,26.2 21.2,26.1 21.1,26.1 21.1,26.1 
					21.1,26.1 21.1,26 21,26 21,26.1 21.1,26.2 21.1,26.2 21,26.2 21,26.1 21,26.1 20.9,26 20.9,26 20.9,26 20.8,26 20.8,26.1 
					20.8,26.1 20.7,26.1 20.7,26.1 20.7,26 20.6,26 20.6,26 20.6,26 20.6,26 20.6,25.9 20.6,25.9 20.7,25.9 20.7,25.8 20.6,25.8 
					20.6,25.8 20.6,25.9 20.6,25.9 20.5,25.9 20.5,25.8 20.5,25.8 20.5,25.7 20.5,25.7 20.4,25.5 20.4,25.5 20.4,25.4 20.4,25.5 
					20.5,25.5 20.5,25.5 20.5,25.4 20.5,25.3 20.5,25.2 20.5,25.2 20.5,25.1 20.5,25.1 20.6,25 20.6,24.9 20.6,24.9 20.6,24.9 
					20.7,24.9 20.7,24.9 20.8,25 20.9,25 20.9,25 20.9,24.9 20.9,24.9 21,24.9 				"/>
				<polyline points="21.2,26.3 21.2,26.3 21.2,26.3 21.2,26.3 21.2,26.3 21.4,26.4 21.4,26.5 21.4,26.5 21.3,26.5 21.3,26.5 
					21.3,26.4 21.3,26.4 21.2,26.4 21.2,26.5 21.2,26.5 21.2,26.4 21.2,26.3 				"/>
				<polyline points="21.4,26.3 21.4,26.3 21.5,26.3 21.6,26.3 21.6,26.3 21.7,26.3 21.7,26.4 21.7,26.4 21.7,26.4 21.7,26.5 
					21.7,26.6 21.7,26.6 21.8,26.7 21.7,26.7 21.7,26.7 21.6,26.6 21.6,26.6 21.6,26.6 21.6,26.6 21.6,26.5 21.6,26.5 21.5,26.4 
					21.5,26.4 21.5,26.4 21.4,26.3 21.4,26.3 				"/>
				<polyline points="20.9,26.5 20.9,26.5 20.9,26.5 21,26.5 21,26.6 21,26.6 21.1,26.6 21.1,26.6 21.1,26.6 21.2,26.6 21.2,26.6 
					21.1,26.7 21.1,26.7 21.1,26.7 21,26.8 21,26.8 21,26.8 20.9,26.8 20.9,26.8 20.9,26.8 20.9,26.7 20.9,26.7 20.9,26.6 
					20.9,26.5 20.9,26.5 20.9,26.5 				"/>
				<polyline points="21.1,26.7 21.2,26.7 21.2,26.7 21.2,26.7 21.3,26.8 21.2,26.8 21.2,26.8 21.2,26.9 21.2,27 21.2,27 21.2,27 
					21.2,27.1 21.2,27.1 21.1,27.1 21.1,27.1 21.1,27.1 21.1,27.1 21,27 21,27 21,26.9 21.1,26.9 21.1,26.9 21.1,26.8 21.1,26.7 
					21.1,26.7 				"/>
				<polyline points="21.4,26.6 21.4,26.6 21.5,26.6 21.5,26.6 21.5,26.6 21.6,26.6 21.6,26.6 21.6,26.8 21.6,26.8 21.6,26.8 
					21.6,26.9 21.6,26.9 21.6,26.9 21.6,26.9 21.6,26.9 21.5,26.9 21.5,26.8 21.5,26.7 21.5,26.7 21.5,26.7 21.5,26.6 21.4,26.6 
					21.4,26.6 				"/>
				<polyline points="21.4,26.6 21.4,26.6 21.4,26.6 21.4,26.7 21.4,26.8 21.4,26.8 21.3,26.9 21.3,26.9 21.3,27 21.2,27 21.2,27 
					21.2,27 21.2,27 21.2,26.9 21.3,26.8 21.3,26.7 21.3,26.6 21.4,26.6 				"/>
				<polyline points="21.3,27 21.3,26.9 21.3,26.9 21.4,26.9 21.4,26.9 21.4,26.9 21.5,26.9 21.5,26.9 21.5,26.9 21.5,27 21.5,27 
					21.5,27 21.4,27 21.4,27 21.3,27 21.3,27 				"/>
				<polyline points="21.7,27 21.7,27 21.7,27 21.8,27 21.8,27 21.8,27.1 21.9,27.1 21.9,27.1 21.9,27.2 21.9,27.2 21.9,27.2 
					21.9,27.3 21.9,27.3 21.9,27.3 21.9,27.4 21.9,27.4 22,27.5 22,27.6 21.9,27.6 21.9,27.6 21.9,27.7 21.9,27.8 21.9,27.7 
					21.8,27.7 21.8,27.6 21.8,27.6 21.8,27.5 21.8,27.5 21.8,27.5 21.7,27.6 21.7,27.7 21.7,27.7 21.7,27.8 21.8,27.8 21.8,27.8 
					21.7,27.9 21.7,27.9 21.7,27.9 21.7,27.8 21.6,27.9 21.6,27.9 21.5,27.9 21.4,27.8 21.4,27.8 21.4,27.7 21.4,27.7 21.4,27.7 
					21.4,27.6 21.4,27.5 21.4,27.5 21.4,27.5 21.3,27.4 21.3,27.4 21.3,27.4 21.2,27.5 21.2,27.5 21.2,27.5 21.2,27.5 21.2,27.5 
					21.1,27.5 21.1,27.5 21.1,27.5 21.1,27.4 21.1,27.4 21,27.5 21,27.6 20.9,27.6 20.9,27.6 20.9,27.6 20.9,27.5 20.9,27.4 
					21,27.4 21.1,27.3 21.1,27.3 21.2,27.3 21.2,27.2 21.2,27.2 21.3,27.2 21.3,27.3 21.3,27.4 21.4,27.3 21.4,27.3 21.5,27.2 
					21.5,27.3 21.5,27.2 21.5,27.2 21.6,27.2 21.6,27.2 21.6,27.1 21.7,27.2 21.7,27.1 21.7,27.1 21.7,27 21.7,27 				"/>
				<polyline points="20.9,27.7 20.9,27.7 20.9,27.7 21,27.7 21,27.7 20.9,27.7 20.9,27.7 20.9,27.7 20.9,27.7 				"/>
				<polyline points="25.6,14.4 25.7,14.4 25.7,14.4 25.7,14.4 25.7,14.6 25.7,14.7 25.8,14.8 25.8,15 25.8,15 25.8,15.1 25.8,15.2 
					25.8,15.2 25.8,15.3 25.8,15.4 25.8,15.4 25.8,15.4 25.8,15.5 25.9,15.6 25.9,15.6 25.9,15.8 26,16.1 26,16.1 26,16.2 
					26.1,16.3 26.1,16.3 26.1,16.4 26.1,16.4 26,16.3 26,16.3 25.9,16.2 25.9,16.2 25.8,16.2 25.8,16.3 25.7,16.3 25.7,16.4 
					25.7,16.5 25.7,16.6 25.6,16.7 25.6,16.8 25.7,16.9 25.7,17 25.8,17 25.8,17 25.8,17.1 25.8,17.1 25.8,17.1 25.9,17.1 
					25.9,17.2 25.9,17.3 25.9,17.3 25.8,17.2 25.7,17.1 25.7,17.1 25.6,17.2 25.6,17.3 25.6,17.4 25.5,17.3 25.5,17.2 25.5,17.1 
					25.5,17 25.5,16.7 25.6,16.7 25.6,16.6 25.5,16.5 25.5,16.4 25.5,16.4 25.5,16.3 25.5,16.1 25.5,16 25.6,16 25.5,16 25.5,15.9 
					25.5,15.9 25.5,15.8 25.5,15.7 25.6,15.6 25.6,15.5 25.5,15.4 25.5,15.4 25.4,15.4 25.5,15.3 25.4,15.3 25.4,15.2 25.4,15.1 
					25.5,15 25.5,14.9 25.5,14.8 25.5,14.8 25.5,14.7 25.5,14.7 25.6,14.7 25.6,14.7 25.6,14.7 25.6,14.7 25.6,14.7 25.6,14.6 
					25.7,14.6 25.7,14.6 25.7,14.6 25.6,14.5 25.6,14.4 25.6,14.4 25.6,14.4 25.6,14.4 25.6,14.4 				"/>
				<polyline points="30.6,12.3 30.6,12.4 30.5,12.4 30.5,12.4 30.5,12.4 30.5,12.5 30.4,12.7 30.5,12.6 30.6,12.5 30.6,12.5 
					30.7,12.4 30.7,12.4 30.7,12.3 30.6,12.3 				"/>
				<polyline points="28.8,15.7 28.8,15.7 28.8,15.7 28.8,15.7 28.8,15.8 28.8,15.8 28.8,15.7 28.8,15.7 				"/>
				<polyline points="28.7,15.7 28.7,15.8 28.7,15.8 28.6,15.9 28.6,15.9 28.6,15.9 28.6,15.9 28.5,15.9 28.5,16 28.6,16 28.6,15.9 
					28.7,15.9 28.7,15.9 28.7,15.8 28.8,15.8 28.8,15.8 28.7,15.7 28.7,15.7 				"/>
				<polyline points="28.4,16.1 28.4,16.2 28.4,16.2 28.4,16.2 28.4,16.2 28.4,16.1 				"/>
				<polyline points="28.3,16.4 28.3,16.4 28.3,16.4 28.3,16.4 28.3,16.4 				"/>
				<polyline points="27.9,17 27.9,17 27.8,17.1 27.8,17.1 27.7,17.1 27.8,17 27.8,17 27.8,17 27.9,17 				"/>
				<polyline points="27.5,17.3 27.5,17.3 27.3,17.4 27.3,17.5 27.2,17.5 27.3,17.4 27.4,17.3 27.4,17.3 27.5,17.3 27.5,17.3 				
					"/>
				<polyline points="27.1,17.6 27.1,17.5 27.1,17.6 27,17.6 26.9,17.7 26.8,17.7 26.8,17.7 26.8,17.8 26.7,17.8 26.7,17.9 
					26.7,17.9 26.7,17.8 26.7,17.8 26.7,17.8 26.7,17.7 26.8,17.7 26.8,17.6 26.8,17.6 26.9,17.6 26.9,17.6 26.9,17.6 26.9,17.6 
					26.9,17.6 27,17.6 27,17.5 27.1,17.5 27.1,17.5 27.1,17.6 				"/>
				<polyline points="26.6,18.1 26.6,18.1 26.6,18.1 26.6,18.1 26.6,18.1 26.6,18.1 26.6,18.1 				"/>
				<polyline points="26.5,17.9 26.5,17.8 26.5,17.9 26.5,17.9 26.5,17.9 26.3,18.1 26.3,18.1 26.3,18.1 26.4,17.9 26.4,17.9 
					26.5,17.9 				"/>
				<polyline points="31,14 31,14 31,14 31,14 31.1,14 31.1,14.1 31.1,14.1 31.1,14.1 31.1,14.1 31.1,14.2 31.1,14.2 31.1,14.2 
					31.1,14.2 31,14 31,14 31,14 31,14 				"/>
				<polyline points="31.3,14.2 31.3,14.2 31.4,14.2 31.4,14.2 31.4,14.2 31.4,14.3 31.4,14.3 31.4,14.2 31.4,14.2 31.3,14.2 
					31.3,14.2 				"/>
				<polyline points="27,30.5 27,30.5 27,30.5 27.2,30.5 27.3,30.5 27.3,30.5 27.3,30.4 27.4,30.4 27.4,30.4 27.4,30.4 27.4,30.4 
					27.4,30.4 27.4,30.4 27.4,30.5 27.4,30.5 27.5,30.5 27.5,30.5 27.5,30.5 27.6,30.5 27.6,30.4 27.7,30.3 27.7,30.3 27.7,30.3 
					27.7,30.3 27.7,30.2 27.7,30.2 27.7,30.2 27.8,30.2 27.8,30.2 27.8,30.2 27.8,30.2 27.9,30.2 27.9,30.2 27.9,30.2 27.9,30.3 
					27.9,30.3 27.9,30.3 27.8,30.4 27.8,30.4 27.9,30.4 27.8,30.5 27.8,30.5 27.7,30.5 27.7,30.5 27.7,30.5 27.7,30.6 27.6,30.6 
					27.5,30.6 27.5,30.6 27.4,30.6 27.4,30.7 27.3,30.7 27.2,30.6 27.2,30.6 27.2,30.6 27.1,30.6 27,30.6 27,30.5 27,30.5 				"/>
				<polyline points="26.2,18 26.3,17.9 26.3,17.9 26.3,18 26.2,18.1 26.2,18.1 26.3,18.1 26.3,18.2 26.3,18.2 26.4,18.2 26.4,18.2 
					26.3,18.3 26.2,18.3 26.2,18.3 26.2,18.3 26.1,18.3 26.1,18.3 26,18.3 25.9,18.4 25.9,18.5 25.8,18.5 25.8,18.6 25.8,18.6 
					25.7,18.6 25.6,18.5 25.5,18.5 25.4,18.5 25.4,18.5 25.3,18.5 25.3,18.5 25.2,18.5 25.2,18.5 25.1,18.5 25.2,18.6 25.2,18.6 
					25.3,18.7 25.3,18.7 25.3,18.7 25.2,18.7 25.2,18.7 25.2,18.8 25.1,18.8 25.1,18.8 25.1,18.8 25.1,18.6 25,18.6 25,18.5 
					25.1,18.4 25.1,18.4 25.2,18.3 25.2,18.3 25.1,18.3 25.2,18.2 25.2,18.2 25.3,18.3 25.3,18.3 25.4,18.2 25.4,18.1 25.4,18.1 
					25.4,18.1 25.4,18 25.4,17.9 25.5,17.8 25.4,17.6 25.4,17.6 25.5,17.5 25.5,17.5 25.5,17.6 25.5,17.6 25.6,17.6 25.7,17.8 
					25.8,17.8 25.8,17.9 25.9,18 26,18 26.1,18 26.1,18 26.2,18 26.2,18 				"/>
				<polyline points="25.3,17.6 25.3,17.6 25.3,17.6 25.3,17.7 25.3,17.6 25.3,17.6 				"/>
				<polyline points="25.3,18.8 25.4,18.8 25.4,18.8 25.4,18.9 25.4,19 25.4,19.1 25.4,19.1 25.5,19.2 25.5,19.3 25.5,19.4 
					25.5,19.4 25.5,19.5 25.5,19.5 25.5,19.5 25.5,19.5 25.4,19.7 25.4,19.7 25.4,19.7 25.3,19.8 25.3,19.8 25.3,19.9 25.3,20 
					25.3,20.1 25.3,20.1 25.3,20.2 25.2,20.2 25.2,20.3 25.2,20.4 25.2,20.5 25.2,20.5 25.2,20.5 25.2,20.6 25.1,20.6 25,20.7 
					25,20.7 25,20.6 25.1,20.5 25.1,20.5 25,20.5 25,20.5 25,20.6 25,20.6 25,20.6 24.9,20.6 24.9,20.6 24.9,20.8 24.8,20.8 
					24.8,20.8 24.8,20.7 24.8,20.7 24.8,20.7 24.7,20.7 24.7,20.7 24.7,20.8 24.6,20.8 24.6,20.8 24.5,20.8 24.4,20.8 24.4,20.8 
					24.4,20.8 24.4,20.7 24.4,20.7 24.4,20.8 24.3,20.7 24.3,20.7 24.3,20.7 24.3,20.8 24.3,20.8 24.3,20.9 24.3,20.9 24.3,20.9 
					24.3,20.9 24.2,20.9 24.2,20.9 24.2,21 24.1,21.1 24.1,21.1 24,21.1 24,21 24,21 23.9,21 23.9,20.9 24,20.9 24,20.8 24,20.8 
					24,20.8 23.9,20.8 23.9,20.8 23.8,20.8 23.8,20.8 23.7,20.8 23.6,20.8 23.6,20.8 23.6,20.8 23.6,20.8 23.5,20.8 23.5,20.9 
					23.5,20.9 23.4,20.9 23.3,20.9 23.3,20.9 23.3,21 23.2,21 23.2,21 23.1,20.9 23.1,21 23.1,21 23.1,21 23,21 23,21 23,20.9 
					23,20.9 23.1,20.8 23.1,20.8 23.2,20.8 23.2,20.7 23.3,20.7 23.3,20.6 23.4,20.6 23.4,20.5 23.5,20.5 23.5,20.5 23.6,20.5 
					23.7,20.5 23.8,20.5 23.9,20.5 23.9,20.5 24,20.5 24,20.5 24.1,20.5 24.1,20.5 24.1,20.5 24.1,20.5 24.2,20.3 24.2,20.3 
					24.3,20.2 24.3,20.1 24.3,20.1 24.3,20 24.4,20 24.4,20 24.4,20 24.4,20 24.4,20.1 24.4,20.1 24.4,20.1 24.4,20.2 24.4,20.2 
					24.4,20.2 24.5,20.1 24.5,20.1 24.6,20.1 24.7,20 24.7,20 24.8,19.9 24.8,19.9 24.9,19.8 24.9,19.8 24.9,19.8 24.9,19.7 
					24.9,19.7 25,19.6 25,19.5 25,19.5 25.1,19.4 25.1,19.4 25.1,19.3 25,19.3 25,19.3 25,19.2 25.1,19.2 25,19 25.1,19 25.1,19 
					25.1,18.9 25.1,18.9 25.2,18.9 25.2,18.9 25.2,19 25.2,19 25.3,19 25.3,19 25.3,19 25.3,18.9 25.3,18.9 25.3,18.9 25.3,18.9 
					25.2,18.9 25.3,18.8 25.3,18.8 25.3,18.8 				"/>
				<polyline points="24.7,19.7 24.7,19.8 24.7,19.8 24.7,19.9 24.7,19.9 24.7,19.8 24.7,19.8 24.7,19.7 				"/>
				<polyline points="23.7,21.2 23.7,21.1 23.6,21.1 23.6,21.1 23.5,21.1 23.5,21.2 23.5,21.3 23.4,21.3 23.4,21.3 23.4,21.3 
					23.4,21.3 23.3,21.2 23.3,21.2 23.3,21.2 23.3,21.1 23.3,21.1 23.3,21.1 23.4,21 23.5,21 23.5,21 23.5,21 23.6,20.9 23.6,20.9 
					23.6,20.9 23.7,20.9 23.7,20.9 23.8,20.9 23.8,20.9 23.8,21 23.8,21 23.8,21 23.8,21.1 23.8,21.1 23.7,21.1 23.7,21.2 				"/>
				<polyline points="22.9,21 23,21 22.9,21 22.9,21 22.9,21 22.8,21.1 22.8,21.1 22.8,21.1 22.8,21.1 22.7,21.1 22.7,21.1 
					22.7,21.2 22.7,21.2 22.7,21.2 22.7,21.3 22.7,21.2 22.7,21.2 22.7,21.3 22.7,21.3 22.8,21.3 22.8,21.3 22.8,21.3 22.8,21.3 
					22.8,21.3 22.8,21.2 22.8,21.2 22.8,21.2 22.9,21.3 22.9,21.3 22.9,21.3 22.9,21.4 22.9,21.4 22.8,21.5 22.8,21.5 22.8,21.6 
					22.8,21.6 22.8,21.7 22.8,21.7 22.9,21.7 22.9,21.7 22.9,21.6 22.9,21.6 22.9,21.6 22.9,21.6 22.9,21.6 22.9,21.7 22.9,21.8 
					23,21.8 23,21.7 23,21.7 23,21.6 23.1,21.7 23.1,21.6 23.1,21.5 23.1,21.4 23.2,21.3 23.2,21.3 23.2,21.3 23.2,21.2 23.2,21.2 
					23.1,21.2 23.1,21.1 23.1,21.1 23.1,21.1 23.1,21.1 23,21.1 23,21 23,21 22.9,21 				"/>
				<polyline points="20.8,23.2 20.8,23.3 20.8,23.3 20.8,23.3 20.9,23.3 20.9,23.3 20.9,23.3 20.9,23.4 20.9,23.4 20.9,23.4 
					20.8,23.5 20.8,23.5 20.8,23.6 20.8,23.7 20.8,23.8 20.7,23.9 20.7,23.9 20.7,24 20.6,24.1 20.6,24.1 20.6,24 20.6,24 
					20.5,23.9 20.5,23.9 20.5,23.8 20.5,23.7 20.5,23.6 20.5,23.6 20.7,23.3 20.7,23.3 20.8,23.3 20.8,23.2 				"/>
				<polyline points="18.3,24.5 18.3,24.5 18.3,24.5 18.3,24.5 18.4,24.5 18.4,24.6 18.4,24.6 18.3,24.7 18.3,24.8 18.3,24.8 
					18.2,24.9 18.2,24.9 18.1,24.9 18.1,25 18.1,25 18,25 17.9,24.9 17.9,24.9 17.8,24.7 17.9,24.7 17.9,24.6 18,24.6 18,24.6 
					18,24.6 18,24.6 18.2,24.6 18.2,24.5 18.2,24.5 18.2,24.5 18.3,24.5 				"/>
				<polyline points="14.8,27.9 14.8,27.9 14.8,27.9 14.9,27.9 14.9,27.9 14.9,27.9 15,28 15,28 15,28 15.1,28 15.2,28 15.2,28 
					15.2,28 15.3,28 15.3,28 15.4,28.1 15.4,28.1 15.4,28.1 15.4,28.2 15.5,28.2 15.5,28.2 15.5,28.3 15.6,28.3 15.6,28.4 
					15.7,28.4 15.8,28.4 15.8,28.5 15.9,28.5 15.9,28.6 15.9,28.6 16,28.6 16,28.7 16,28.7 16.1,28.7 16.1,28.7 16.1,28.7 
					16.1,28.7 16.2,28.7 16.2,28.8 16.2,28.8 16.2,28.8 16.3,28.8 16.3,28.9 16.4,28.9 16.4,28.9 16.4,28.9 16.4,28.9 16.4,28.9 
					16.4,28.9 16.5,29 16.5,29 16.6,29 16.6,29 16.6,29 16.6,29 16.6,29 16.6,29.1 16.6,29.1 16.6,29.1 16.5,29.1 16.5,29.1 
					16.5,29.2 16.6,29.1 16.6,29.1 16.7,29.1 16.7,29.1 16.7,29.1 16.7,29.2 16.7,29.2 16.7,29.2 16.7,29.3 16.7,29.3 16.7,29.3 
					16.7,29.3 16.7,29.4 16.7,29.4 16.7,29.4 16.8,29.4 16.8,29.4 16.8,29.5 16.8,29.4 16.9,29.4 16.9,29.5 16.9,29.5 16.9,29.6 
					16.9,29.6 16.9,29.6 16.9,29.6 17,29.7 17,29.7 17,29.7 17,29.7 17.1,29.7 17.1,29.7 17.1,29.7 17.2,29.8 17.2,29.8 17.2,29.8 
					17.2,29.9 17.3,29.9 17.3,29.9 17.3,30 17.2,30 17.2,30.1 17.2,30.1 17.2,30.1 17.2,30.1 17.2,30.2 17.2,30.2 17.2,30.4 
					17.2,30.5 17.2,30.5 17.2,30.5 17.1,30.5 17.1,30.5 17.1,30.5 17.1,30.5 17.1,30.5 17,30.5 16.9,30.5 17,30.5 17,30.5 
					16.9,30.5 16.9,30.5 16.8,30.4 16.8,30.4 16.7,30.3 16.7,30.3 16.7,30.3 16.6,30.2 16.5,30.2 16.5,30.2 16.5,30.1 16.4,30.1 
					16.4,30.1 16.4,30 16.3,30 16.3,30 16.2,29.8 16.1,29.7 16.1,29.7 16.1,29.6 16,29.5 16,29.4 15.9,29.3 15.9,29.3 15.9,29.3 
					15.9,29.3 15.8,29.2 15.8,29.2 15.7,29.2 15.7,29.1 15.7,29.1 15.7,29.1 15.7,29 15.6,28.9 15.6,28.9 15.6,28.8 15.6,28.8 
					15.5,28.7 15.5,28.7 15.4,28.7 15.4,28.7 15.3,28.5 15.3,28.5 15.3,28.5 15.3,28.5 15.2,28.4 15.2,28.4 15.1,28.4 15.1,28.4 
					15.1,28.3 15,28.3 15,28.2 15,28.2 14.9,28.1 14.8,28.1 14.8,28 14.8,27.9 14.8,27.9 				"/>
				<polyline points="18.6,31.1 18.6,31.1 18.6,31.1 18.5,31.1 18.5,31.1 18.4,31.1 18.4,31.1 18.4,31.1 18.3,31.1 18.3,31.1 
					18.2,31 18.2,31 18.2,31 18.2,31 18.1,31 18,31 18,31 18,31 18,31 17.9,31 17.9,31 17.9,31 17.9,31 17.8,31 17.8,31 17.7,31 
					17.6,30.9 17.6,30.9 17.5,30.9 17.4,30.9 17.4,30.9 17.4,30.9 17.3,30.9 17.4,30.8 17.4,30.8 17.3,30.8 17.3,30.8 17.2,30.8 
					17.2,30.8 17.1,30.8 17.1,30.7 17.1,30.7 17.1,30.7 17.1,30.7 17.1,30.7 17.2,30.7 17.2,30.7 17.2,30.7 17.2,30.7 17.2,30.6 
					17.3,30.6 17.3,30.6 17.4,30.6 17.5,30.6 17.6,30.6 17.6,30.6 17.6,30.6 17.6,30.6 17.7,30.6 17.7,30.6 17.8,30.6 17.8,30.7 
					17.9,30.8 17.9,30.8 17.9,30.8 18,30.8 18.1,30.8 18.2,30.8 18.2,30.8 18.2,30.8 18.3,30.8 18.3,30.7 18.3,30.7 18.3,30.7 
					18.4,30.7 18.4,30.7 18.4,30.7 18.5,30.7 18.5,30.7 18.5,30.7 18.6,30.7 18.6,30.7 18.6,30.8 18.6,30.8 18.7,30.8 18.7,30.8 
					18.8,30.8 18.8,30.9 18.8,30.9 18.9,31 18.9,31 19,31 19,31 19.1,31 19.1,31 19.2,31 19.2,31 19.2,31.1 19.2,31.2 19.2,31.2 
					19.2,31.2 19.2,31.2 19.2,31.2 19,31.1 18.9,31.1 18.9,31.1 18.8,31.1 18.7,31.1 18.7,31.1 18.6,31.1 				"/>
				<polyline points="21.8,31 21.8,31 21.8,31 21.8,31 21.9,31 21.9,31 22,30.9 22,31 22,31 22,31 21.9,31 21.9,31 21.9,31 21.8,31 
					21.8,31 				"/>
				<polygon points="21.5,31.3 21.6,31.3 21.6,31.2 21.6,31.2 21.7,31.2 21.8,31.2 21.8,31.2 21.8,31.2 22,31.2 22,31.1 22,31.1 
					22.1,31.1 22.1,31.1 22.1,31.1 22.1,31.2 22,31.2 21.9,31.3 21.9,31.3 21.8,31.3 21.7,31.3 21.6,31.4 21.6,31.4 21.6,31.4 
					21.6,31.4 21.6,31.5 21.5,31.5 21.5,31.5 21.5,31.5 21.4,31.5 21.4,31.6 21.4,31.6 21.3,31.6 21.3,31.6 21.3,31.6 21.3,31.5 
					21.3,31.5 21.3,31.5 21.3,31.4 21.3,31.4 21.4,31.4 21.4,31.3 21.4,31.3 21.5,31.3 21.5,31.3 21.5,31.3 				"/>
				<polyline points="21.5,31.1 21.5,31.1 21.5,31.1 21.6,31.1 21.6,31.1 21.6,31.1 21.6,31.1 21.5,31.1 21.5,31.1 21.5,31.1 
					21.5,31.1 				"/>
				<polyline points="21.4,31.1 21.4,31.1 21.4,31.1 21.4,31.1 21.4,31.1 21.4,31.2 21.4,31.2 21.4,31.1 				"/>
				<polyline points="21.2,31.2 21.2,31.1 21.2,31.1 21.3,31.1 21.3,31.1 21.3,31.1 21.3,31.1 21.3,31.1 21.3,31.1 21.3,31.2 
					21.3,31.2 21.2,31.2 21.2,31.2 				"/>
				<polyline points="20.4,31.1 20.5,31.1 20.5,31.1 20.5,31.1 20.6,31.1 20.6,31.1 20.7,31.1 20.7,31.1 20.7,31.1 20.8,31.2 
					20.8,31.2 20.9,31.1 20.9,31.2 21,31.2 21,31.2 21,31.2 21.1,31.1 21.1,31.1 21.1,31.1 21.1,31.1 21.1,31.1 21.1,31.1 21.1,31 
					21.1,31.1 21.1,31.1 21.1,31.2 21.1,31.2 21,31.2 21,31.2 21,31.2 20.9,31.2 20.8,31.2 20.8,31.2 20.8,31.2 20.7,31.3 
					20.7,31.2 20.6,31.2 20.5,31.2 20.4,31.2 20.4,31.2 20.4,31.2 20.4,31.2 20.4,31.1 				"/>
				<polyline points="20.4,31.3 20.5,31.4 20.5,31.4 20.5,31.4 20.5,31.4 20.6,31.4 20.6,31.5 20.6,31.5 20.6,31.6 20.6,31.6 
					20.5,31.6 20.5,31.5 20.4,31.5 20.4,31.4 20.3,31.5 20.3,31.4 20.2,31.4 20.2,31.4 20.3,31.4 20.3,31.4 20.4,31.3 20.4,31.4 
					20.4,31.4 20.4,31.3 				"/>
				<polyline points="19.8,31.1 19.8,31.1 19.9,31.1 19.9,31.2 20,31.2 20,31.2 20,31.2 20,31.2 20,31.2 20,31.2 20,31.1 20,31.1 
					20,31.1 20,31.1 20,31.1 20.1,31.1 20.1,31.1 20.1,31.1 20.1,31.1 20.2,31.2 20.2,31.1 20.2,31.1 20.2,31.2 20.2,31.2 
					20.3,31.2 20.2,31.2 20.2,31.2 20.2,31.2 20.2,31.2 20.1,31.2 20.1,31.2 20.1,31.2 20,31.2 20,31.2 19.9,31.3 19.8,31.3 
					19.8,31.3 19.7,31.3 19.7,31.2 19.7,31.2 19.7,31.2 19.8,31.2 19.8,31.1 				"/>
				<polyline points="19.6,31.1 19.6,31.1 19.6,31.1 19.6,31.1 19.7,31.1 19.7,31.1 19.7,31.2 19.7,31.2 19.7,31.2 19.7,31.3 
					19.6,31.3 19.5,31.2 19.5,31.2 19.5,31.2 19.6,31.2 19.6,31.1 				"/>
				<polyline points="19.3,31.1 19.3,31.1 19.4,31 19.4,31.1 19.4,31.1 19.5,31.1 19.5,31.1 19.4,31.2 19.4,31.2 19.4,31.2 
					19.3,31.2 19.3,31.1 19.2,31.1 19.2,31.1 19.2,31.1 19.2,31 19.3,31.1 				"/>
				<polyline points="18.8,30.8 18.8,30.8 18.8,30.8 18.9,30.8 19,30.8 19.1,30.8 19.1,30.8 19.1,30.8 19,30.8 19,30.9 18.8,30.8 
					18.8,30.8 18.8,30.8 18.8,30.8 				"/>
				<polyline points="22.8,29.2 22.8,29.2 22.9,29.2 22.9,29.2 23,29.3 23,29.3 22.9,29.3 22.9,29.3 22.9,29.3 22.8,29.3 22.8,29.3 
					22.8,29.2 22.8,29.2 				"/>
				<polyline points="22.7,29.6 22.7,29.6 22.7,29.6 22.8,29.6 22.8,29.6 22.8,29.6 22.8,29.6 22.8,29.6 22.8,29.7 22.8,29.7 
					22.8,29.7 22.7,29.6 22.7,29.6 				"/>
				<polyline points="22.3,30 22.3,30 22.3,29.9 22.3,29.9 22.3,29.9 22.3,29.9 22.3,29.9 22.4,29.9 22.5,29.9 22.5,29.9 22.6,29.9 
					22.6,29.9 22.7,29.9 22.7,29.9 22.8,29.9 22.8,29.9 22.8,29.9 22.9,29.9 22.9,30 22.9,30 22.9,30 22.9,30.1 22.9,30.1 
					22.9,30.1 22.7,30 22.7,30 22.6,30 22.6,30 22.6,30 22.6,30 22.5,30 22.5,30 22.5,30 22.4,30 22.4,30 22.4,30 22.3,29.9 
					22.3,30 22.3,30 				"/>
				<polyline points="20.7,28.9 20.8,28.9 20.8,28.9 20.8,29 20.8,29 20.9,29 20.9,29 20.9,29 21,29 21,29 21,29 21.1,29 21.1,29 
					21.1,29 21.2,29 21.2,29 21.3,29 21.4,29 21.5,28.9 21.5,28.9 21.6,28.8 21.6,28.8 21.6,28.8 21.6,28.8 21.6,28.9 21.6,28.9 
					21.6,28.9 21.5,29 21.5,29.1 21.5,29.1 21.4,29.1 21.4,29.1 21.3,29.1 21.2,29.1 21.2,29.1 21.1,29.1 21,29.1 20.9,29.1 
					20.9,29.1 20.9,29.1 20.8,29.1 20.8,29.1 20.8,29.1 20.7,29.1 20.7,29.1 20.7,29.1 20.6,29.1 20.6,29.1 20.5,29.1 20.5,29.2 
					20.5,29.3 20.5,29.4 20.5,29.4 20.6,29.4 20.6,29.5 20.7,29.5 20.7,29.5 20.8,29.5 20.8,29.4 20.8,29.4 20.9,29.4 20.9,29.4 
					20.9,29.4 20.9,29.4 21,29.4 21.1,29.4 21.1,29.4 21.2,29.3 21.2,29.3 21.2,29.4 21.2,29.4 21.2,29.4 21.2,29.4 21.1,29.4 
					21,29.5 21,29.6 20.9,29.6 20.9,29.6 20.8,29.6 20.8,29.6 20.8,29.6 20.8,29.7 20.8,29.7 21,29.9 21,29.9 21,29.9 21,29.9 
					21,30 21,30 21,30 21,30 21,30.1 21,30.1 21,30.1 21.1,30.2 21.1,30.2 21.1,30.2 21.1,30.2 21.1,30.2 21,30.2 21,30.2 
					20.9,30.3 20.9,30.3 20.8,30.3 20.8,30.3 20.8,30.2 20.8,30.2 20.8,30.1 20.7,30.1 20.7,30 20.7,30 20.7,29.9 20.7,29.9 
					20.7,29.8 20.7,29.8 20.6,29.8 20.6,29.8 20.5,29.9 20.5,29.9 20.5,30 20.5,30 20.5,30.3 20.6,30.3 20.5,30.4 20.5,30.4 
					20.6,30.5 20.5,30.5 20.5,30.5 20.4,30.5 20.4,30.5 20.3,30.5 20.3,30.4 20.3,30.3 20.3,30.3 20.4,30.1 20.4,30.1 20.3,30 
					20.3,30 20.2,30 20.2,30 20.2,29.9 20.2,29.8 20.2,29.8 20.3,29.7 20.3,29.6 20.3,29.5 20.3,29.4 20.4,29.4 20.4,29.3 
					20.4,29.4 20.4,29.3 20.4,29.2 20.4,29.2 20.4,29.2 20.4,29.2 20.4,29.1 20.4,29.1 20.5,29.1 20.5,29 20.5,29 20.6,29 20.6,29 
					20.6,29 20.6,28.9 20.7,28.9 20.7,28.9 				"/>
				<polyline points="21,30.3 21,30.3 21,30.3 21.1,30.3 21.1,30.3 21.1,30.4 21.1,30.4 21.1,30.4 21,30.4 21,30.4 21,30.4 21,30.4 
					21,30.3 				"/>
				<polyline points="21.1,30.4 21.1,30.3 21.1,30.2 21.1,30.2 21.1,30.2 21.1,30.2 21.2,30.3 21.2,30.3 21.2,30.3 21.1,30.3 
					21.1,30.3 21.1,30.4 21.2,30.4 21.2,30.4 21.2,30.4 21.1,30.5 21.1,30.5 21.1,30.5 21.1,30.5 21.1,30.4 21.1,30.4 21.1,30.4 
									"/>
				<polyline points="21.5,29.6 21.5,29.6 21.6,29.6 21.6,29.6 21.6,29.6 21.7,29.6 21.6,29.6 21.6,29.6 21.5,29.6 21.5,29.7 
					21.5,29.7 21.5,29.6 21.5,29.6 21.5,29.6 				"/>
				<polyline points="21.8,29.9 21.8,29.9 21.9,29.9 21.9,29.9 22,29.9 22.1,29.9 22.1,30 22.1,30 22.1,30 22.1,30.1 22,30.1 
					22,30.1 21.9,30.1 21.9,30.1 21.9,30 21.8,30 21.8,29.9 21.8,29.9 21.8,29.9 				"/>
				<polyline points="22.4,28.6 22.4,28.6 22.4,28.7 22.4,28.7 22.4,28.7 22.4,28.7 22.3,28.7 22.3,28.7 22.4,28.6 22.4,28.6 				
					"/>
				<polyline points="22.3,28.7 22.3,28.7 22.3,28.7 22.3,28.7 22.3,28.8 22.3,28.8 22.3,28.8 22.3,28.8 22.3,28.9 22.3,28.9 
					22.3,28.9 22.2,29 22.2,29 22.2,29 22.2,29 22.3,29 22.3,29 22.3,28.9 22.4,28.9 22.4,28.9 22.4,28.9 22.4,28.9 22.4,29 
					22.4,29 22.4,29 22.4,29.1 22.4,29.1 22.4,29.1 22.5,29.1 22.4,29.2 22.4,29.1 22.3,29.1 22.3,29.1 22.3,29.1 22.3,29.2 
					22.3,29.3 22.3,29.3 22.3,29.4 22.4,29.4 22.3,29.4 22.3,29.4 22.2,29.3 22.2,29.1 22.2,29.1 22.2,29 22.2,29 22.2,29 
					22.1,28.9 22.1,28.9 22.1,28.9 22.2,28.8 22.2,28.8 22.3,28.7 				"/>
				<polyline points="22.1,29.3 22.2,29.3 22.2,29.3 22.2,29.3 22.2,29.4 22.2,29.4 22.2,29.4 22.2,29.4 22.2,29.4 22.2,29.4 
					22.2,29.3 22.1,29.3 22.1,29.3 				"/>
				<polyline points="22.1,29.5 22.2,29.5 22.2,29.5 22.2,29.5 22.3,29.6 22.3,29.6 22.3,29.6 22.2,29.6 22.2,29.6 22.1,29.6 
					22.1,29.6 22.1,29.5 				"/>
				<polyline points="22.3,30.1 22.3,30.1 22.3,30.1 22.3,30 22.3,30 22.3,30 22.4,30 22.4,30 22.3,30.1 22.3,30.1 22.3,30.1 				
					"/>
				<polyline points="24,29.4 24,29.4 24,29.4 24,29.4 24.1,29.4 24.1,29.4 24.1,29.4 24.2,29.4 24.2,29.5 24.2,29.5 24.1,29.5 
					24.1,29.5 24.1,29.4 24.1,29.4 24,29.4 24,29.4 				"/>
				<polyline points="24,29.6 24,29.6 24.1,29.6 24.2,29.6 24.3,29.6 24.3,29.6 24.3,29.6 24.3,29.6 24.2,29.6 24,29.6 24,29.6 				
					"/>
				<polyline points="23.7,30.5 23.8,30.5 23.8,30.5 23.8,30.5 23.8,30.6 23.8,30.6 23.8,30.7 23.8,30.7 23.8,30.7 23.8,30.6 
					23.7,30.6 23.8,30.5 23.7,30.6 23.7,30.5 				"/>
				<polyline points="23.7,30.6 23.7,30.6 23.7,30.6 23.7,30.6 23.8,30.6 23.8,30.7 23.8,30.7 23.8,30.7 23.8,30.7 23.7,30.7 
					23.7,30.6 23.7,30.6 				"/>
				<polyline points="23.7,30.6 23.7,30.6 23.8,30.7 23.8,30.7 23.8,30.8 23.7,30.8 23.7,30.8 23.7,30.8 23.7,30.8 23.7,30.7 
					23.7,30.7 23.7,30.7 23.7,30.7 23.7,30.7 23.7,30.7 23.7,30.7 23.7,30.6 				"/>
				<polyline points="23,31 23,31 23,31 23,30.9 23.1,30.9 23.1,30.8 23.1,30.8 23.1,30.9 23.1,30.9 23.1,31 23,31 23,31 				"/>
				<polyline points="11.3,27 11.2,27 11.3,27 11.3,27 11.3,27 11.3,27 11.3,27.1 11.3,27.1 11.2,27.2 11.2,27.4 11.2,27.3 
					11.2,27.4 11.2,27.4 11.2,27.7 11.2,27.7 11.3,27.8 11.3,27.8 11.4,27.8 11.4,27.8 11.6,27.8 11.6,27.7 11.7,27.7 11.7,27.6 
					11.7,27.5 11.7,27.5 11.6,27.4 11.6,27.3 11.6,27.3 11.6,27.2 11.5,27.2 11.5,27.2 11.5,27.1 11.5,27.1 11.4,27 11.3,27 
					11.3,27 11.3,27 				"/>
				<polyline points="19.9,28.3 19.9,28.3 19.9,28.3 19.9,28.3 19.9,28.3 19.9,28.3 19.9,28.3 19.9,28.3 19.9,28.4 19.9,28.4 
					19.9,28.4 19.9,28.4 19.8,28.4 19.8,28.4 19.8,28.4 19.9,28.5 19.9,28.5 19.9,28.5 19.9,28.5 19.9,28.5 19.9,28.5 19.9,28.6 
					20,28.7 20,28.7 20,28.7 20,28.7 20,28.8 20,28.8 20.2,29 20.2,29 20.2,29 20.2,29 20.1,29 20,29 20,29 20,29 20,29 20,29 
					20,29 19.9,29.1 19.9,29.1 19.9,29.2 19.9,29.2 19.9,29.2 19.9,29.3 19.8,29.4 19.8,29.5 19.8,29.5 19.7,29.5 19.7,29.5 
					19.6,29.6 19.6,29.6 19.6,29.6 19.6,29.7 19.6,29.7 19.7,29.7 19.7,29.8 19.6,29.8 19.6,29.8 19.6,29.8 19.6,29.9 19.6,29.9 
					19.6,29.9 19.6,29.9 19.6,29.9 19.6,29.9 19.6,30 19.5,30 19.5,30.1 19.5,30.1 19.4,30.1 19.3,30.2 19.2,30.2 19.2,30.1 
					19.2,30 19.2,30 19.2,30 19.1,30 19.1,30 19.1,30 19,30 19,30 19,29.9 18.9,29.9 18.9,29.9 18.9,29.9 18.8,29.9 18.8,29.9 
					18.8,30 18.8,30 18.7,30 18.7,30 18.6,30 18.6,30 18.6,30 18.6,30 18.6,29.9 18.6,29.8 18.5,29.9 18.5,29.9 18.5,29.9 
					18.5,29.9 18.4,29.9 18.4,29.9 18.4,29.9 18.4,29.9 18.3,29.9 18.3,29.9 18.3,29.9 18.2,29.9 18.2,29.8 18.2,29.8 18.2,29.8 
					18.2,29.7 18.2,29.6 18.2,29.6 18.2,29.6 18.2,29.6 18.2,29.5 18.1,29.5 18.1,29.4 18.1,29.4 18.1,29.4 18,29.3 18,29.3 
					18,29.3 18,29.3 18,29.3 18,29.2 17.9,29.1 17.9,29.1 17.9,29.1 17.9,29 17.9,29 18,28.9 18,28.8 18,28.8 18,28.8 18.1,28.7 
					18.1,28.7 18.1,28.7 18.1,28.7 18.1,28.8 18.1,28.8 18.2,28.8 18.2,28.8 18.3,28.8 18.3,28.8 18.3,28.8 18.3,28.8 18.4,28.8 
					18.4,28.8 18.4,28.8 18.4,28.7 18.4,28.7 18.4,28.7 18.5,28.7 18.5,28.7 18.5,28.7 18.5,28.6 18.5,28.6 18.5,28.6 18.5,28.5 
					18.6,28.5 18.6,28.5 18.6,28.5 18.7,28.5 18.7,28.5 18.7,28.5 18.8,28.5 18.8,28.5 18.9,28.5 18.9,28.4 18.9,28.4 19,28.3 
					19,28.3 19.1,28.2 19.1,28.2 19.1,28.2 19.1,28.2 19.1,28.1 19.2,28.1 19.2,28.1 19.3,28 19.3,28.1 19.4,28.1 19.4,28.1 
					19.4,28.1 19.4,28 19.4,28 19.4,28 19.4,28 19.4,28 19.5,28 19.5,27.9 19.6,27.8 19.6,27.8 19.7,27.7 19.7,27.7 19.7,27.6 
					19.7,27.6 19.7,27.6 19.7,27.6 19.7,27.7 19.7,27.7 19.7,27.7 19.7,27.7 19.8,27.6 19.8,27.6 19.8,27.6 19.8,27.7 19.9,27.7 
					19.9,27.7 19.9,27.7 19.9,27.8 19.9,27.8 19.9,27.9 19.9,27.9 19.9,27.9 20,27.9 20,27.8 20,27.8 20,27.9 20,27.9 20,27.9 
					20,27.9 20,27.9 20,27.9 20.1,27.9 20.1,27.9 20.2,28 20.2,28 20.3,28 20.3,28 20.3,28 20.2,28.1 20.2,28.1 20.2,28.1 
					20.1,28.1 20.1,28.1 20,28.1 20,28.1 20.1,28.1 20.1,28.2 20.1,28.2 20.1,28.2 20.1,28.2 20.1,28.2 20,28.2 20,28.2 20,28.2 
					19.9,28.2 19.9,28.2 19.9,28.2 19.9,28.3 				"/>
				<polygon points="27.5,31.6 27.6,31.6 27.6,31.6 27.4,31.5 27.4,31.5 27.3,31.5 27.3,31.4 27.4,31.4 27.3,31.4 27.3,31.4 
					27.2,31.4 27.2,31.4 27.2,31.3 27.2,31.3 27.2,31.3 27.1,31.3 27,31.3 27,31.2 27,31.2 26.9,31.1 26.9,31.1 26.9,31.1 
					26.9,31.1 26.9,31 26.9,31 26.8,31 26.8,30.9 26.7,30.9 26.7,30.9 26.7,30.8 26.7,30.8 26.7,30.8 26.8,30.8 26.8,30.8 
					26.8,30.7 26.9,30.7 26.9,30.7 26.9,30.6 26.8,30.6 26.8,30.6 26.7,30.6 26.6,30.6 26.6,30.5 26.5,30.5 26.4,30.5 26.4,30.4 
					26.4,30.4 26.4,30.3 26.3,30.3 26.3,30.2 26.2,30.2 26.1,30.1 26.1,30.1 26.1,30.1 26,30.1 26,30.1 25.8,30 25.7,30 25.7,29.9 
					25.6,29.9 25.5,29.9 25.5,29.9 25.4,29.8 25.4,29.8 25.3,29.8 25.3,29.8 25.3,29.8 25.2,29.8 25.2,29.8 25.2,29.8 25.2,29.8 
					25.2,29.8 25.2,29.7 25.1,29.7 25.1,29.7 25.1,29.7 25.1,29.7 25,29.7 25,29.7 24.9,29.7 24.9,29.7 24.8,29.6 24.8,29.6 
					24.7,29.6 24.7,29.6 24.6,29.6 24.6,29.5 24.6,29.5 24.5,29.6 24.4,29.6 24.4,29.6 24.4,29.7 24.4,29.7 24.3,29.7 24.3,29.7 
					24.2,29.7 24.2,29.8 24.1,29.9 24.1,29.9 24.1,29.9 24.1,29.9 24,30 24,30 23.9,30 23.9,29.9 23.9,29.9 23.8,29.9 23.8,29.8 
					23.8,29.8 23.8,29.8 23.8,29.8 23.7,29.8 23.7,29.7 23.7,29.6 23.7,29.6 23.7,29.5 23.7,29.5 23.7,29.4 23.5,29.4 23.5,29.4 
					23.5,29.3 23.4,29.3 23.4,29.3 23.3,29.3 23.2,29.3 23.2,29.4 23.1,29.4 23.1,29.4 23,29.4 23,29.4 23,29.5 23,29.5 23,29.5 
					23,29.6 23,29.5 23.1,29.6 23.1,29.6 23.2,29.6 23.2,29.6 23.2,29.6 23.2,29.7 23.3,29.7 23.3,29.7 23.4,29.7 23.4,29.7 
					23.5,29.7 23.6,29.7 23.6,29.7 23.6,29.7 23.6,29.7 23.6,29.8 23.6,29.8 23.5,29.8 23.5,29.8 23.4,29.8 23.4,29.8 23.3,29.8 
					23.2,29.8 23.2,29.8 23.2,29.9 23.2,29.9 23.3,29.9 23.3,29.9 23.4,30 23.4,30 23.4,30 23.4,30 23.4,30.1 23.4,30.1 23.4,30.1 
					23.4,30.2 23.5,30.1 23.5,30.1 23.6,30.1 23.6,30.1 23.6,30 23.6,30 23.6,29.9 23.6,29.9 23.6,29.9 23.6,30 23.6,30 23.6,30 
					23.7,30.1 23.7,30.1 23.7,30.1 23.7,30.1 23.7,30.1 23.8,30.1 23.8,30.1 23.8,30.1 23.8,30.2 23.9,30.2 23.9,30.2 23.9,30.2 
					23.9,30.2 24,30.2 24,30.2 24.1,30.2 24.2,30.3 24.2,30.3 24.3,30.3 24.4,30.3 24.4,30.3 24.5,30.4 24.5,30.4 24.5,30.4 
					24.5,30.4 24.6,30.4 24.6,30.5 24.6,30.5 24.7,30.5 24.7,30.5 24.7,30.6 24.7,30.6 24.7,30.7 24.8,30.7 24.7,30.8 24.7,30.8 
					24.8,30.8 24.8,30.8 24.8,30.9 24.8,30.9 24.8,30.9 24.8,30.9 24.8,30.9 24.7,30.9 24.7,30.9 24.7,30.9 24.6,31 24.6,31.1 
					24.5,31.1 24.5,31.1 24.6,31.1 24.7,31.1 24.7,31.1 24.8,31.1 24.8,31.1 24.8,31.1 24.8,31.1 24.8,31.1 24.8,31.1 24.9,31.1 
					24.9,31.1 25,31.1 25,31.1 25.1,31.1 25.1,31.1 25.1,31.1 25.2,31.2 25.2,31.2 25.3,31.3 25.3,31.3 25.3,31.3 25.3,31.3 
					25.4,31.3 25.4,31.3 25.5,31.3 25.5,31.3 25.5,31.3 25.6,31.3 25.6,31.3 25.7,31.3 25.7,31.3 25.8,31.3 25.8,31.3 25.8,31.2 
					25.8,31.2 25.8,31.1 25.8,31.1 25.8,31.1 25.9,31.1 25.9,31.1 25.9,31 25.9,31 26,31 25.9,31 25.9,30.9 26,31 26,31 26,31 
					26.1,30.9 26.1,30.9 26.1,31 26.1,30.9 26.2,30.9 26.2,31 26.2,31 26.2,31 26.3,31 26.3,31 26.3,31 26.4,31 26.4,31.1 
					26.5,31.1 26.5,31.1 26.6,31.2 26.6,31.3 26.7,31.3 26.7,31.3 26.7,31.3 26.7,31.4 26.7,31.4 26.8,31.4 26.8,31.4 26.8,31.5 
					26.9,31.5 26.9,31.5 27,31.5 27,31.5 27.1,31.5 27.1,31.6 27.4,31.6 27.4,31.6 27.4,31.6 27.4,31.7 27.5,31.6 27.5,31.6 
					27.5,31.6 27.4,31.6 27.5,31.6 				"/>
				<polyline points="4.1,22 4.1,22 4.1,22 4.1,22 4.1,21.9 4.1,21.9 4.1,21.9 4.1,21.9 4.2,21.9 4.2,21.9 4.2,21.9 4.2,22 4.2,22 
					4.2,22 4.3,22 4.3,22 4.3,22 4.4,22 4.4,22 4.4,22 4.4,22.1 4.4,22.1 4.5,22.2 4.5,22.2 4.5,22.2 4.6,22.3 4.6,22.4 4.7,22.5 
					4.7,22.6 4.7,22.6 4.8,22.6 4.8,22.6 4.9,22.6 4.9,22.7 5,22.7 5,22.7 5,22.8 5.1,22.8 5.2,22.8 5.2,22.9 5.2,22.8 5.2,22.9 
					5.2,22.9 5.3,22.9 5.4,22.9 5.4,22.9 5.4,22.9 5.5,22.9 5.6,22.9 5.6,22.9 5.6,22.9 5.7,22.8 5.7,22.8 5.8,22.8 5.9,22.8 
					5.9,22.8 6,22.8 6,22.9 6,23 6,23.1 6.1,23.1 6.2,23.1 6.2,23.2 6.3,23.2 6.4,23.2 6.4,23.2 6.5,23.2 6.5,23.2 6.5,23.2 
					6.5,23.2 6.6,23.2 6.8,23.2 6.8,23.2 6.8,23.2 6.9,23.3 6.9,23.3 7,23.3 7,23.3 7,23.3 7.1,23.3 7.1,23.3 7.1,23.3 7.1,23.3 
					7.2,23.3 7.2,23.3 7.3,23.3 7.3,23.2 7.4,23.3 7.5,23.3 7.5,23.2 7.6,23.2 7.6,23.2 7.7,23.3 7.7,23.3 7.7,23.3 7.8,23.2 
					7.8,23.2 7.9,23.2 7.9,23.2 8,23.2 8.1,23.2 8.1,23.2 8.2,23.2 8.2,23.2 8.2,23.3 8.2,23.4 8.3,23.4 8.3,23.4 8.3,23.4 
					8.3,23.4 8.3,23.5 8.4,23.5 8.4,23.6 8.4,23.6 8.4,23.6 8.4,23.6 8.5,23.6 8.5,23.6 8.5,23.6 8.5,23.6 8.5,23.7 8.6,23.7 
					8.6,23.7 8.6,23.8 8.7,23.8 8.7,23.9 8.8,23.9 8.9,23.9 9,23.8 9,23.8 9,23.8 9,23.8 9.1,23.8 9,23.9 9,23.9 8.9,24 8.9,24 
					8.8,24 8.8,24 8.7,24 8.7,24 8.7,24 8.9,24.2 9,24.3 9.1,24.4 9.1,24.4 9.2,24.4 9.2,24.4 9.3,24.3 9.3,24.3 9.3,24.3 9.4,24.3 
					9.4,24.2 9.4,24.2 9.4,24.1 9.5,24 9.5,24 9.5,24 9.5,24 9.6,24 9.6,24 9.6,24 9.5,24 9.5,24.1 9.5,24.1 9.5,24.1 9.5,24.1 
					9.6,24.2 9.5,24.2 9.5,24.3 9.5,24.3 9.6,24.3 9.6,24.3 9.6,24.3 9.6,24.4 9.6,24.4 9.6,24.5 9.6,24.5 9.6,24.6 9.6,24.6 
					9.6,24.7 9.6,24.7 9.6,24.8 9.6,24.8 9.6,24.8 9.6,24.8 9.6,24.8 9.6,24.8 9.6,24.8 9.6,24.9 9.6,24.9 9.6,25 9.6,25 9.6,25.1 
					9.6,25.1 9.7,25.2 9.7,25.2 9.7,25.2 9.7,25.3 9.7,25.4 9.7,25.4 9.7,25.5 9.8,25.5 9.8,25.5 9.8,25.6 9.8,25.6 9.8,25.6 
					9.8,25.6 9.8,25.6 9.9,25.6 9.9,25.7 9.9,25.7 9.9,25.8 9.9,25.8 9.9,25.8 10,25.9 10,26 10,26 10.1,26.1 10.1,26.2 10.1,26.4 
					10.1,26.4 10.2,26.4 10.2,26.5 10.3,26.6 10.3,26.7 10.3,26.8 10.4,27 10.5,27.1 10.5,27.2 10.5,27.2 10.6,27.3 10.7,27.4 
					10.7,27.4 10.8,27.3 10.8,27.3 10.8,27.3 10.8,27.3 10.8,27.2 10.8,27.2 10.8,27.1 10.9,27.1 11,27.1 11,27 11,27 11.1,26.9 
					11.1,26.9 11.1,26.8 11.2,26.8 11.2,26.9 11.2,26.9 11.2,26.8 11.2,26.7 11.2,26.5 11.2,26.5 11.3,26.4 11.3,26.3 11.3,26.2 
					11.3,26.2 11.3,26.1 11.3,26.1 11.3,26.1 11.3,26.1 11.3,26.1 11.3,26.1 11.3,25.9 11.3,25.9 11.3,25.9 11.3,25.8 11.3,25.8 
					11.3,25.8 11.3,25.7 11.3,25.6 11.3,25.6 11.4,25.6 11.4,25.6 11.5,25.6 11.5,25.6 11.5,25.5 11.5,25.5 11.5,25.5 11.6,25.4 
					11.7,25.4 11.7,25.4 11.8,25.4 11.8,25.3 11.8,25.3 11.9,25.2 12,25.2 12,25.1 12.1,25 12.1,25 12.2,25 12.2,25 12.2,24.9 
					12.3,24.9 12.4,24.7 12.5,24.7 12.6,24.6 12.7,24.6 12.7,24.6 12.7,24.6 12.8,24.5 12.8,24.5 12.8,24.4 12.9,24.4 12.8,24.3 
					12.9,24.2 13,24.2 13,24.1 13.1,24.1 13.1,24.1 13.1,24.1 13.1,24 13.1,24 13.1,24.1 13.1,24.1 13.1,24.1 13.1,24.1 13.1,24.1 
					13.2,24.2 13.2,24.2 13.2,24.2 13.2,24.2 13.2,24.1 13.2,24.1 13.3,24.2 13.3,24.2 13.3,24.2 13.3,24.2 13.4,24.2 13.4,24.1 
					13.4,24.1 13.4,24.1 13.4,24.1 13.4,24.1 13.5,24.1 13.5,24.1 13.5,24.1 13.5,24.1 13.5,24 13.6,24.1 13.6,24.1 13.7,24 
					13.7,24 13.7,23.9 13.7,23.9 13.7,23.8 13.7,23.8 13.8,23.9 13.8,23.9 13.8,23.9 13.9,23.9 13.9,23.9 14,24 14,24.1 14,24.2 
					14,24.3 14.1,24.3 14.1,24.3 14.1,24.4 14.1,24.4 14.2,24.5 14.2,24.5 14.2,24.5 14.2,24.5 14.2,24.5 14.4,24.6 14.4,24.7 
					14.4,24.7 14.4,24.7 14.4,24.7 14.4,24.7 14.4,24.7 14.4,24.8 14.5,24.8 14.5,24.8 14.5,24.8 14.5,24.9 14.6,25 14.6,25 
					14.6,25 14.6,25.1 14.6,25.2 14.6,25.3 14.6,25.4 14.6,25.4 14.5,25.5 14.6,25.5 14.6,25.5 14.6,25.5 14.6,25.5 14.7,25.5 
					14.7,25.6 14.7,25.5 14.7,25.6 14.8,25.5 14.8,25.6 14.8,25.5 14.9,25.5 14.9,25.5 15,25.4 15,25.4 15.1,25.3 15.1,25.3 
					15.1,25.2 15.1,25.2 15.2,25.3 15.2,25.3 15.2,25.3 15.3,25.4 15.3,25.4 15.3,25.4 15.3,25.4 15.3,25.5 15.3,25.7 15.4,25.8 
					15.4,25.8 15.4,25.9 15.4,26 15.5,26.1 15.5,26.1 15.5,26 15.5,26.1 15.5,26.2 15.6,26.3 15.6,26.4 15.6,26.4 15.5,26.4 
					15.5,26.5 15.6,26.5 15.6,26.5 15.6,26.6 15.6,26.6 15.5,26.7 15.5,26.8 15.5,26.8 15.6,26.9 15.5,26.9 15.5,27 15.5,27.2 
					15.5,27.2 15.5,27.3 15.5,27.3 15.6,27.3 15.7,27.4 15.7,27.4 15.7,27.5 15.8,27.6 15.8,27.6 15.9,27.7 15.9,27.7 15.9,27.8 
					15.9,27.9 16,27.9 16,28 16,28.1 16,28.1 16,28.2 16,28.2 16,28.3 16,28.3 16.1,28.4 16.2,28.4 16.2,28.5 16.2,28.5 16.2,28.6 
					16.3,28.6 16.4,28.7 16.4,28.7 16.5,28.8 16.5,28.8 16.6,28.8 16.6,28.9 16.7,28.9 16.7,28.9 16.7,28.9 16.7,28.8 16.7,28.8 
					16.8,28.8 16.8,28.9 16.8,28.8 16.8,28.8 16.8,28.7 16.8,28.6 16.7,28.6 16.7,28.5 16.7,28.3 16.7,28.2 16.7,28.1 16.7,28.1 
					16.6,28 16.6,27.9 16.5,27.9 16.4,27.8 16.4,27.8 16.3,27.7 16.3,27.7 16.2,27.6 16.1,27.6 16,27.5 16,27.5 16,27.5 16,27.3 
					15.9,27.3 15.9,27.3 15.9,27.2 15.9,27.1 15.8,27.1 15.8,27.1 15.7,27.1 15.7,27.1 15.7,27.1 15.7,27 15.7,26.9 15.7,26.9 
					15.7,26.8 15.7,26.8 15.7,26.8 15.7,26.7 15.7,26.7 15.7,26.6 15.8,26.5 15.8,26.5 15.8,26.4 15.9,26.3 15.9,26.2 15.9,26.1 
					15.9,26.1 16,26.1 16,26.1 16,26.1 16.1,26.1 16.1,26.1 16.1,26.3 16.1,26.3 16.1,26.3 16.1,26.3 16.1,26.3 16.2,26.3 
					16.2,26.3 16.3,26.3 16.4,26.4 16.4,26.4 16.4,26.4 16.4,26.4 16.5,26.4 16.5,26.4 16.5,26.5 16.5,26.5 16.5,26.5 16.6,26.6 
					16.6,26.6 16.6,26.6 16.6,26.6 16.6,26.7 16.6,26.7 16.7,26.7 16.7,26.7 16.7,26.7 16.7,26.7 16.7,26.7 16.7,26.8 16.7,26.8 
					16.8,26.8 16.8,26.8 16.9,26.8 16.9,26.8 16.9,26.8 16.9,26.9 17,26.9 17,26.9 17,26.9 17,27 17,27.1 17,27.1 17,27.2 17,27.2 
					17,27.2 17,27.2 17,27.2 17.1,27.2 17.1,27.1 17.2,27.1 17.3,27.1 17.3,27 17.3,27 17.3,27 17.3,27 17.4,27 17.3,26.9 
					17.4,26.9 17.4,26.9 17.4,26.9 17.4,26.9 17.4,26.9 17.4,26.9 17.4,26.8 17.5,26.8 17.5,26.8 17.5,26.8 17.6,26.8 17.7,26.7 
					17.7,26.7 17.9,26.6 17.9,26.6 17.9,26.6 17.9,26.6 17.9,26.5 18,26.5 18,26.5 18,26.5 18,26.5 18,26.5 18,26.5 18,26.4 
					18,26.3 18,26.4 18,26.3 18,26.3 18,26.3 18,26.3 18,26.3 18,26.2 18,26.2 18,26.1 18,26.1 18,26.1 18,26 18,26 17.9,25.9 
					17.9,25.7 17.8,25.6 17.8,25.5 17.8,25.5 17.7,25.5 17.7,25.5 17.7,25.5 17.7,25.4 17.6,25.4 17.6,25.4 17.6,25.4 17.5,25.3 
					17.5,25.3 17.5,25.3 17.5,25.2 17.4,25.2 17.4,25.2 17.3,25.1 17.3,25.1 17.3,25 17.3,25 17.2,24.9 17.1,24.8 17.2,24.8 
					17.2,24.7 17.2,24.7 17.2,24.6 17.3,24.5 17.4,24.5 17.4,24.4 17.4,24.4 17.4,24.3 17.5,24.3 17.5,24.3 17.5,24.2 17.6,24.2 
					17.7,24.2 17.7,24.2 17.7,24.2 17.7,24.2 17.7,24.2 17.8,24.2 17.8,24.2 17.8,24.2 17.8,24.1 17.8,24.1 17.9,24.1 17.9,24.2 
					17.9,24.2 18,24.2 18,24.2 18,24.2 18.1,24.2 18.1,24.2 18.1,24.3 18.1,24.3 18.1,24.3 18.1,24.5 18.2,24.5 18.2,24.5 
					18.2,24.4 18.2,24.4 18.2,24.3 18.2,24.2 18.3,24.2 18.3,24.2 18.4,24.2 18.4,24.2 18.4,24.2 18.5,24.2 18.5,24.2 18.6,24.1 
					18.6,24.1 18.6,24.1 18.7,24.1 18.7,24.1 18.7,24.1 18.8,24.1 18.8,24.1 18.8,24.1 18.8,24 18.8,24 18.8,24 18.9,23.9 
					18.9,23.9 18.9,24 18.9,24 18.9,24 19,24 19,24 19,24 19,23.9 19,23.9 19,23.9 19,23.9 19.1,23.9 19.1,23.9 19.1,24 19.1,24 
					19.1,24 19.1,24 19.1,23.9 19.1,23.9 19.1,23.9 19.1,23.9 19.2,23.9 19.2,23.9 19.2,23.9 19.2,24 19.2,23.9 19.2,23.9 
					19.2,23.9 19.2,23.9 19.2,23.9 19.2,23.9 19.3,23.9 19.3,23.9 19.3,23.9 19.4,23.9 19.4,23.9 19.4,23.9 19.4,23.9 19.4,23.9 
					19.4,23.9 19.5,23.9 19.5,23.9 19.6,23.8 19.6,23.8 19.7,23.8 19.7,23.8 19.7,23.7 19.7,23.7 19.7,23.7 19.8,23.7 19.8,23.7 
					19.8,23.6 19.8,23.6 19.9,23.6 19.9,23.6 19.9,23.6 19.9,23.6 19.9,23.6 19.9,23.6 20,23.5 20,23.5 20,23.5 20,23.5 20,23.4 
					20.1,23.4 20.1,23.4 20.1,23.4 20.2,23.4 20.2,23.3 20.2,23.3 20.2,23.3 20.2,23.3 20.3,23.3 20.3,23.2 20.3,23.2 20.3,23.2 
					20.3,23.2 20.3,23.2 20.3,23.2 20.3,23.1 20.3,23.1 20.3,23.1 20.4,23.1 20.4,23.1 20.4,23 20.4,23 20.4,23 20.3,22.9 
					20.4,22.9 20.4,22.9 20.4,22.9 20.4,22.9 20.5,22.9 20.5,22.8 20.5,22.8 20.5,22.8 20.6,22.8 20.6,22.7 20.6,22.7 20.6,22.7 
					20.6,22.6 20.6,22.6 20.6,22.6 20.7,22.5 20.7,22.5 20.7,22.5 20.7,22.5 20.8,22.5 20.8,22.5 20.8,22.4 20.8,22.4 20.8,22.3 
					20.8,22.3 20.8,22.2 20.8,22.2 20.9,22.2 20.9,22.2 20.9,22.2 20.9,22.1 20.8,22.2 20.8,22.2 20.8,22.1 20.9,22.1 20.9,22.1 
					20.9,22.1 20.9,22.1 20.8,22 20.8,22 20.8,22 20.8,22 20.7,22 20.6,22 20.6,22 20.5,22 20.5,22 20.5,21.9 20.6,21.9 20.6,21.9 
					20.7,21.9 20.7,21.9 20.7,21.9 20.8,21.9 20.8,21.8 20.9,21.8 20.9,21.8 20.9,21.7 20.8,21.7 20.8,21.7 20.8,21.7 20.7,21.6 
					20.7,21.6 20.6,21.6 20.6,21.5 20.6,21.5 20.5,21.5 20.5,21.5 20.6,21.5 20.6,21.5 20.7,21.5 20.7,21.5 20.8,21.6 20.9,21.6 
					20.9,21.6 20.8,21.5 20.8,21.4 20.8,21.4 20.7,21.4 20.7,21.3 20.6,21.2 20.6,21.2 20.6,21 20.6,21 20.5,20.9 20.5,20.9 
					20.4,20.8 20.3,20.8 20.3,20.8 20.3,20.7 20.3,20.7 20.4,20.6 20.4,20.5 20.5,20.5 20.5,20.4 20.5,20.4 20.5,20.4 20.5,20.3 
					20.5,20.3 20.6,20.4 20.6,20.4 20.6,20.3 20.6,20.3 20.7,20.3 20.7,20.2 20.7,20.2 20.8,20.2 20.8,20.2 20.9,20.2 20.9,20.1 
					20.9,20.1 21,20.1 21,20.2 21,20.2 21,20.1 21,20.1 21,20.1 21.1,20 21,20 21,20 20.9,20 20.9,20 20.8,20 20.8,20 20.8,20 
					20.7,20 20.7,19.9 20.7,19.9 20.6,19.9 20.5,19.9 20.5,20 20.5,20 20.4,20.1 20.3,20.1 20.2,20.1 20.2,20 20.2,20 20.2,19.9 
					20.1,19.9 20.1,19.9 20.1,19.9 20.1,19.8 20,19.8 20,19.8 20,19.8 19.9,19.7 19.9,19.6 20,19.5 20,19.5 20,19.5 20.1,19.5 
					20.1,19.5 20.2,19.5 20.2,19.5 20.3,19.5 20.3,19.4 20.3,19.4 20.3,19.3 20.4,19.3 20.4,19.2 20.6,19.2 20.6,19.2 20.6,19.1 
					20.6,19.1 20.7,19 20.8,19 20.9,19 20.9,18.9 20.9,19 20.9,19 21,19.1 21,19.1 20.9,19.2 20.8,19.3 20.8,19.3 20.8,19.4 
					20.8,19.4 20.8,19.4 20.8,19.4 20.8,19.4 20.8,19.5 20.8,19.5 20.8,19.5 20.7,19.6 20.7,19.6 20.8,19.6 20.8,19.6 20.9,19.6 
					20.9,19.5 21,19.5 21,19.4 21.1,19.4 21.2,19.3 21.2,19.3 21.3,19.3 21.3,19.3 21.4,19.3 21.4,19.3 21.4,19.3 21.5,19.3 
					21.5,19.4 21.6,19.3 21.6,19.4 21.7,19.4 21.7,19.4 21.7,19.4 21.7,19.5 21.7,19.6 21.7,19.6 21.7,19.6 21.6,19.7 21.6,19.7 
					21.6,19.7 21.6,19.8 21.5,19.8 21.6,19.8 21.7,19.8 21.7,19.8 21.6,19.9 21.6,19.9 21.6,19.9 21.6,19.9 21.7,19.9 21.7,19.9 
					21.7,19.9 21.7,19.9 21.7,19.9 21.8,19.8 21.7,19.8 21.8,19.8 21.8,19.9 21.8,19.9 21.9,19.9 21.9,19.9 21.9,19.9 22,19.9 
					21.9,19.9 21.9,19.9 21.9,19.9 22,20 22,20 22,20 22,20 22,20 22,20 22,20 22,20.1 22,20.1 22,20.1 22,20.2 22,20.2 22,20.1 
					21.9,20.1 21.9,20.2 21.9,20.2 21.9,20.2 21.9,20.2 21.9,20.3 21.9,20.3 21.9,20.2 21.9,20.2 21.9,20.3 22,20.3 22,20.4 
					22,20.4 22,20.4 22,20.4 22,20.5 22,20.5 22,20.5 21.9,20.6 21.9,20.6 21.9,20.7 21.9,20.7 21.9,20.7 21.9,20.7 22,20.7 
					21.9,20.8 21.9,20.8 21.9,20.8 21.9,20.8 21.9,20.8 21.9,20.9 21.9,20.8 21.9,20.8 21.9,20.9 22,20.8 22,20.8 22,20.8 22,20.8 
					22.1,20.8 22.1,20.8 22.1,20.7 22.1,20.8 22.1,20.8 22.1,20.8 22.1,20.8 22.2,20.8 22.2,20.7 22.2,20.7 22.2,20.8 22.2,20.8 
					22.2,20.7 22.2,20.7 22.3,20.7 22.3,20.7 22.3,20.7 22.3,20.7 22.4,20.7 22.4,20.7 22.4,20.7 22.4,20.6 22.5,20.6 22.5,20.6 
					22.5,20.6 22.6,20.6 22.6,20.5 22.7,20.4 22.6,20.4 22.6,20.3 22.6,20.1 22.6,20.1 22.6,20 22.5,19.9 22.5,19.9 22.5,19.8 
					22.4,19.7 22.4,19.7 22.4,19.6 22.3,19.6 22.2,19.5 22.2,19.5 22.2,19.5 22.2,19.4 22.2,19.4 22.2,19.4 22.2,19.3 22.2,19.3 
					22.2,19.3 22.3,19.3 22.3,19.2 22.4,19.2 22.4,19.2 22.4,19.2 22.5,19.1 22.6,19 22.7,19 22.7,19 22.7,18.8 22.7,18.8 
					22.7,18.8 22.7,18.7 22.7,18.7 22.9,18.5 22.9,18.5 22.9,18.5 22.9,18.5 22.9,18.5 22.9,18.5 22.9,18.4 23,18.4 23,18.4 
					23.1,18.4 23.1,18.4 23.1,18.3 23.2,18.3 23.2,18.2 23.2,18.2 23.2,18.2 23.2,18.3 23.2,18.3 23.3,18.2 23.3,18.2 23.3,18.3 
					23.3,18.3 23.3,18.3 23.3,18.4 23.3,18.4 23.4,18.4 23.4,18.4 23.4,18.4 23.5,18.4 23.5,18.4 23.6,18.4 23.6,18.4 23.7,18.4 
					23.7,18.3 23.9,18.2 24,18.1 24,18.1 24.1,18 24.1,18 24.1,17.9 24.1,17.9 24.2,17.8 24.2,17.7 24.3,17.7 24.3,17.6 24.5,17.4 
					24.5,17.4 24.6,17.3 24.6,17.3 24.7,17.2 24.7,17 24.7,17 24.8,16.9 24.9,16.7 25,16.7 25,16.6 25,16.6 25.1,16.6 25.1,16.5 
					25.1,16.4 25.1,16.4 25.1,16.3 25.1,16.3 25.2,16.2 25.2,16.2 25.2,16 25.2,16 25.2,15.9 25.2,15.9 25.2,15.8 25.2,15.7 
					25.2,15.7 25.2,15.6 25.2,15.5 25.2,15.5 25.2,15.5 25.2,15.5 25.2,15.5 25.3,15.4 25.3,15.4 25.3,15.3 25.4,15.3 25.4,15.2 
					25.4,15.2 25.3,15.1 25.3,15 25.3,15 25.3,14.9 25.3,14.9 25.2,14.9 25.2,14.9 25.1,14.8 25.1,14.8 25,14.8 25,14.8 25.1,14.8 
					25.2,14.8 25.2,14.8 25.2,14.8 25.3,14.9 25.3,14.9 25.4,14.8 25.4,14.8 25.3,14.8 25.2,14.7 25.2,14.6 25.1,14.6 25.1,14.6 
					25.1,14.5 25.1,14.5 25,14.5 25,14.4 25,14.4 25,14.4 25,14.4 24.9,14.4 24.9,14.4 24.8,14.4 24.7,14.4 24.7,14.5 24.8,14.5 
					24.7,14.5 24.7,14.6 24.7,14.7 24.7,14.7 24.7,14.6 24.7,14.6 24.7,14.5 24.6,14.6 24.6,14.6 24.5,14.7 24.4,14.7 24.4,14.6 
					24.5,14.6 24.5,14.6 24.5,14.6 24.5,14.5 24.5,14.5 24.4,14.5 24.5,14.5 24.5,14.4 24.5,14.4 24.4,14.4 24.4,14.4 24.4,14.5 
					24.4,14.5 24.4,14.5 24.4,14.6 24.3,14.6 24.3,14.6 24.3,14.6 24.3,14.5 24.3,14.5 24.3,14.4 24.3,14.4 24.3,14.4 24.3,14.3 
					24.3,14.3 24.3,14.3 24.2,14.3 24.1,14.3 24,14.2 23.9,14.2 23.9,14.2 24,14.1 24.1,14 24.1,14 24.2,14 24.2,13.9 24.2,13.9 
					24.3,13.9 24.3,13.8 24.5,13.6 24.6,13.6 24.6,13.5 24.6,13.5 24.6,13.5 24.6,13.4 24.7,13.4 24.7,13.4 24.7,13.4 24.7,13.3 
					24.8,13.3 24.9,13.2 24.9,13.2 25,13.1 25,13 25,13 25.1,13 25.1,13 25.2,12.9 25.2,12.8 25.2,12.7 25.4,12.6 25.5,12.5 
					25.5,12.5 25.6,12.4 25.6,12.3 25.8,12.3 26,12.2 26.1,12.2 26.2,12.2 26.3,12.2 26.3,12.2 26.4,12.3 26.4,12.3 26.4,12.3 
					26.4,12.3 26.4,12.4 26.5,12.3 26.5,12.3 26.5,12.2 26.5,12.2 26.8,12.3 26.8,12.3 26.8,12.3 26.9,12.2 27,12.3 27,12.3 
					27,12.3 27,12.3 27.1,12.3 27.1,12.3 27.1,12.3 27,12.2 27.1,12.2 27.1,12.2 27.1,12.2 27.1,12.2 27.1,12.1 27.2,12.1 
					27.2,12.1 27.3,12.1 27.4,12.2 27.4,12.2 27.5,12.2 27.5,12.2 27.5,12.2 27.6,12.2 27.6,12.2 27.7,12.2 27.7,12.2 27.7,12.2 
					27.8,12.3 27.8,12.3 27.9,12.3 27.8,12.4 27.7,12.4 27.6,12.4 27.6,12.4 27.6,12.4 27.7,12.5 27.7,12.5 27.8,12.5 27.8,12.5 
					27.9,12.4 27.9,12.4 27.9,12.4 28,12.5 28,12.4 28.1,12.4 28.1,12.4 28.1,12.4 28.2,12.3 28.2,12.4 28.3,12.4 28.3,12.4 
					28.4,12.4 28.4,12.3 28.4,12.4 28.5,12.4 28.5,12.3 28.5,12.3 28.5,12.3 28.5,12.3 28.5,12.2 28.4,12.2 28.3,12.2 28.3,12.2 
					28.3,12.1 28.3,12.1 28.3,12 28.3,12.1 28.3,12.1 28.4,11.9 28.4,11.9 28.4,11.8 28.5,11.8 28.6,11.8 28.7,11.6 28.7,11.6 
					28.7,11.5 28.8,11.4 28.9,11.4 28.9,11.3 28.9,11.3 29,11.2 29,11.2 29.1,11.1 29.2,11.1 29.4,11.1 29.4,11.1 29.4,11.1 
					29.4,11.1 29.5,11.1 29.5,11.1 29.5,11.2 29.6,11.2 29.6,11.1 29.7,11 29.7,11.2 29.6,11.3 29.6,11.3 29.6,11.4 29.6,11.4 
					29.6,11.4 29.6,11.5 29.6,11.5 29.6,11.5 29.6,11.5 29.7,11.5 29.7,11.5 29.7,11.6 29.7,11.7 29.7,11.7 29.7,11.7 29.8,11.6 
					29.8,11.6 29.9,11.4 30,11.4 30,11.4 30.1,11.3 30.2,11.2 30.2,11.2 30.3,11.2 30.3,11.2 30.3,11.2 30.3,11.2 30.3,11.2 
					30.3,11.2 30.4,11.2 30.3,11.2 30.3,11.1 30.3,11.1 30.3,11 30.3,11 30.4,10.9 30.4,10.8 30.4,10.8 30.5,10.8 30.6,10.7 
					30.7,10.7 30.8,10.8 30.7,10.8 30.7,10.8 30.6,10.9 30.6,10.9 30.6,11 30.6,11 30.6,11.1 30.5,11.2 30.5,11.2 30.5,11.3 
					30.5,11.3 30.5,11.3 30.5,11.4 30.5,11.4 30.5,11.4 30.4,11.5 30.4,11.5 30.5,11.5 30.5,11.6 30.4,11.6 30.4,11.6 30.3,11.6 
					30.3,11.6 30.2,11.7 30.2,11.7 30.1,11.8 30.1,11.8 30.1,11.8 30,11.9 30,11.9 29.9,12 29.8,12.1 29.7,12.2 29.7,12.3 
					29.7,12.3 29.6,12.4 29.6,12.5 29.5,12.6 29.4,12.6 29.4,12.7 29.3,12.8 29.3,12.8 29.2,12.9 29.1,12.9 29.1,12.9 29,13 
					29,12.9 28.9,12.9 28.9,13 28.9,13.1 28.9,13.2 28.8,13.3 28.8,13.3 28.7,13.4 28.7,13.4 28.7,13.5 28.6,13.7 28.6,13.9 
					28.6,14 28.6,14.1 28.6,14.2 28.7,14.3 28.7,14.5 28.7,14.5 28.7,14.5 28.7,14.7 28.7,14.7 28.7,14.9 28.8,15 28.8,15.1 
					28.8,15.1 28.8,15.2 28.8,15.4 28.8,15.5 28.9,15.6 28.9,15.7 29,15.6 29,15.6 29.1,15.5 29.1,15.4 29.1,15.4 29.2,15.3 
					29.3,15.2 29.3,15.1 29.3,15 29.3,15 29.3,15 29.3,14.9 29.3,14.9 29.3,14.9 29.3,14.9 29.4,14.9 29.5,14.8 29.6,14.8 
					29.6,14.8 29.6,14.8 29.6,14.8 29.6,14.7 29.6,14.6 29.6,14.5 29.6,14.4 29.8,14.3 29.8,14.3 29.9,14.3 29.9,14.3 30,14.3 
					30,14.3 30.1,14.2 30.1,14.2 30,14.1 30,14 30,14 30,13.9 30,13.8 30,13.8 30.1,13.7 30.1,13.7 30.2,13.6 30.2,13.6 30.1,13.6 
					30.1,13.5 30.2,13.5 30.3,13.5 30.3,13.5 30.3,13.5 30.3,13.5 30.2,13.6 30.2,13.6 30.3,13.7 30.3,13.7 30.3,13.7 30.4,13.6 
					30.4,13.6 30.4,13.4 30.3,13.4 30.3,13.4 30.3,13.4 30.3,13.3 30.2,13.2 30.3,13.2 30.3,13.1 30.3,13.1 30.4,13 30.4,13 
					30.2,12.9 30.2,12.9 30.2,13 30.2,13 30.1,13 30.1,12.9 30.1,12.9 30.1,12.8 30.1,12.8 30.1,12.7 30.1,12.6 30.2,12.6 
					30.3,12.5 30.3,12.4 30.3,12.4 30.3,12.4 30.3,12.4 30.3,12.3 30.3,12.3 30.4,12.3 30.4,12.3 30.4,12.2 30.4,12.2 30.4,12.1 
					30.4,12.1 30.4,12 30.5,12 30.5,12 30.6,12 30.6,12 30.6,12 30.7,11.9 30.7,12 30.7,12 30.8,12.1 30.8,12 30.8,11.9 30.8,11.9 
					30.9,11.9 30.9,11.8 31,11.8 31,11.8 31,11.7 31.1,11.7 31.1,11.8 31,11.8 31.1,11.9 31,12 31,12 31,12 31,12 31,12.1 31,12.1 
					31.1,12 31.2,11.9 31.2,11.8 31.2,11.8 31.2,11.8 31.3,11.8 31.3,11.8 31.3,11.8 31.4,11.7 31.5,11.7 31.5,11.7 31.5,11.7 
					31.5,11.7 31.7,11.7 31.7,11.7 31.8,11.7 31.8,11.8 31.8,11.8 31.9,12 31.9,12 32,12 32,12 32,11.9 32,11.8 32,11.8 32,11.8 
					32.1,11.8 32.1,11.7 32.2,11.7 32.2,11.7 32.2,11.7 32.2,11.7 32.3,11.6 32.3,11.6 32.3,11.6 32.3,11.6 32.4,11.6 32.4,11.5 
					32.4,11.5 32.4,11.5 32.4,11.5 32.4,11.5 32.4,11.5 32.4,11.5 32.4,11.5 32.5,11.5 32.5,11.4 32.5,11.4 32.5,11.4 32.6,11.4 
					32.6,11.4 32.6,11.4 32.6,11.3 32.6,11.3 32.6,11.3 32.6,11.3 32.6,11.3 32.7,11.3 32.7,11.3 32.7,11.3 32.7,11.2 32.7,11.2 
					32.7,11.1 32.7,11.2 32.8,11.2 32.8,11.2 32.8,11.2 32.9,11.1 33,11.1 33,11.1 33.1,11 33.1,11 33.1,11 33.1,10.9 33.1,10.9 
					33.1,11 33.1,11 33.1,11 33.2,10.9 33.2,10.9 33.3,10.9 33.4,10.8 33.6,10.8 33.6,10.7 33.6,10.7 33.5,10.7 33.5,10.6 
					33.5,10.6 33.5,10.6 33.5,10.6 33.6,10.7 33.6,10.7 33.6,10.7 33.6,10.7 33.6,10.7 33.7,10.7 33.7,10.7 33.6,10.7 33.7,10.7 
					33.7,10.7 33.7,10.7 33.7,10.8 33.8,10.8 33.8,10.8 33.9,10.8 34,10.9 34,10.9 34,10.8 34,10.8 34.1,10.7 34.1,10.7 34.1,10.6 
					34,10.6 34,10.6 34,10.5 34,10.5 34,10.5 34,10.5 34.1,10.5 34.1,10.5 34,10.4 34,10.4 34,10.4 33.9,10.3 33.9,10.2 33.9,10.2 
					33.9,10 33.9,10.1 33.8,10 33.8,10 33.9,10 33.9,10 33.9,9.9 33.8,9.8 33.8,9.9 33.8,9.9 33.7,9.9 33.7,9.8 33.7,9.8 33.6,9.8 
					33.6,9.7 33.6,9.7 33.6,9.6 33.7,9.6 33.7,9.6 33.8,9.7 33.8,9.6 33.8,9.6 33.8,9.7 33.9,9.7 33.9,9.7 33.9,9.7 33.9,9.7 
					34,9.6 34,9.6 34.1,9.6 34.2,9.5 34.2,9.4 34.2,9.4 34.2,9.4 34.3,9.4 34.3,9.4 34.4,9.3 34.4,9.2 34.4,9.2 34.4,9.1 34.4,9.1 
					34.3,9 34.3,8.9 34.3,8.9 34.3,8.9 34.4,8.8 34.4,8.9 34.4,8.8 34.4,8.7 34.5,8.8 34.5,8.7 34.5,8.8 34.5,8.8 34.6,8.8 
					34.6,8.8 34.6,8.7 34.6,8.7 34.6,8.7 34.6,8.8 34.6,8.9 34.6,8.9 34.5,8.9 34.5,8.9 34.5,8.9 34.6,9 34.6,9 34.6,9 34.6,9.1 
					34.6,9.2 34.7,9.2 34.7,9.2 34.8,9.2 34.9,9.2 34.9,9.2 34.9,9.1 35,9.2 35.1,9.2 35.1,9.2 35.1,9.2 35.2,9.2 35.2,9.2 
					35.2,9.3 35.2,9.3 35.2,9.4 35.2,9.5 35.3,9.5 35.3,9.6 35.3,9.6 35.4,9.6 35.4,9.6 35.4,9.6 35.4,9.6 35.4,9.5 35.5,9.6 
					35.5,9.6 35.5,9.5 35.5,9.5 35.5,9.5 35.5,9.6 35.5,9.6 35.5,9.7 35.6,9.7 35.6,9.7 35.6,9.7 35.6,9.7 35.6,9.8 35.7,9.8 
					35.7,9.8 35.7,9.8 35.8,9.8 35.8,9.8 35.8,9.8 35.8,9.7 35.8,9.7 35.8,9.8 35.8,9.8 35.8,9.9 35.9,9.9 35.9,9.9 35.9,9.8 
					35.9,9.8 35.9,9.8 35.9,9.8 35.9,9.7 35.9,9.8 36,9.8 36,9.8 36,9.7 36,9.7 36,9.7 35.9,9.7 35.9,9.7 35.9,9.7 35.9,9.6 
					35.9,9.6 35.9,9.6 35.9,9.6 35.9,9.6 35.9,9.6 36,9.6 36,9.5 36,9.5 36,9.5 36.1,9.4 36.1,9.4 36.1,9.4 36,9.4 36,9.3 36.1,9.3 
					36.1,9.3 36.1,9.2 36.1,9.2 36.2,9.2 36.3,9.2 36.3,9.2 36.3,9.2 36.3,9.2 36.3,9.1 36.2,9 36.3,9 36.3,9.1 36.3,9.1 36.4,9.1 
					36.4,9.1 36.4,9.1 36.4,9.1 36.5,9 36.5,8.9 36.5,8.9 36.6,8.9 36.6,8.9 36.6,8.9 36.6,8.8 36.6,8.9 36.5,8.8 36.5,8.8 
					36.5,8.8 36.5,8.8 36.4,8.8 36.4,8.8 36.5,8.8 36.5,8.7 36.4,8.7 36.4,8.7 36.3,8.6 36.3,8.6 36.2,8.5 36.2,8.5 36.2,8.5 
					36.2,8.4 36.2,8.4 36,8.3 35.9,8.4 36,8.4 36,8.4 36,8.4 35.9,8.4 35.8,8.4 35.8,8.4 35.8,8.5 35.8,8.5 35.8,8.4 35.8,8.4 
					35.8,8.3 35.8,8.3 35.8,8.3 35.8,8.3 35.7,8.3 35.7,8.3 35.7,8.3 35.7,8.3 35.7,8.3 35.7,8.3 35.6,8.3 35.6,8.3 35.5,8.3 
					35.5,8.4 35.6,8.3 35.6,8.3 35.6,8.3 35.6,8.3 35.6,8.4 35.6,8.5 35.6,8.6 35.6,8.6 35.7,8.6 35.7,8.6 35.7,8.6 35.7,8.7 
					35.7,8.7 35.7,8.7 35.6,8.7 35.6,8.7 35.7,8.7 35.7,8.6 35.6,8.6 35.6,8.6 35.6,8.6 35.6,8.5 35.5,8.5 35.5,8.5 35.5,8.4 
					35.5,8.4 35.5,8.3 35.5,8.3 35.4,8.2 35.4,8.1 35.4,8.1 35.5,8.1 35.5,8.2 35.5,8.1 35.5,8.1 35.4,8 35.3,8 35.3,7.9 35.2,7.9 
					35.2,7.9 35.2,7.9 35.3,8 35.3,8 35.3,8 35.3,8.1 35.3,8.1 35.3,8.1 35.2,8 35.1,8 35.1,7.9 35.1,7.9 35.1,7.9 35.2,7.9 
					35.2,7.8 35.1,7.8 35,7.8 35,7.8 35,7.8 35,7.8 35,7.7 35,7.7 35,7.7 34.9,7.7 34.9,7.7 34.9,7.6 34.8,7.6 34.8,7.6 34.8,7.6 
					34.7,7.6 34.7,7.6 34.7,7.5 34.7,7.5 34.7,7.5 34.6,7.4 34.7,7.5 34.6,7.5 34.6,7.5 34.6,7.4 34.5,7.3 34.5,7.3 34.5,7.3 
					34.4,7.2 34.4,7.2 34.3,7.2 34.3,7.2 34.2,7.2 34.2,7.2 34.2,7.2 34,7 33.9,6.9 33.9,6.9 33.8,6.9 33.8,6.9 33.7,6.8 33.6,6.7 
					33.6,6.7 33.5,6.7 33.4,6.7 33.3,6.6 33.3,6.6 33,6.6 33,6.6 33,6.6 32.9,6.6 32.9,6.5 32.8,6.6 32.7,6.5 32.7,6.6 32.6,6.6 
					32.5,6.5 32.5,6.5 32.2,6.4 32.1,6.4 32,6.5 32,6.5 32,6.6 32,6.7 32,6.7 31.9,6.7 32.1,6.8 32.1,6.9 32.1,6.9 32.1,7 32.2,7.1 
					32,7.2 31.9,7.3 31.8,7.3 31.8,7.3 31.8,7.2 31.8,7.1 31.7,7.1 31.7,7 31.6,7 31.5,7 31.5,7 31.5,7 31.5,6.9 31.5,6.8 31.5,6.8 
					31.4,6.7 31.4,6.7 31.5,6.7 31.5,6.7 31.4,6.6 31.4,6.6 31.3,6.7 31.2,6.8 31.2,6.8 31.2,6.8 31.1,6.8 31,6.8 30.8,6.7 
					30.8,6.8 30.8,6.8 30.8,6.8 30.7,6.8 30.6,6.7 30.6,6.6 30.5,6.7 30.3,6.7 30.3,6.7 30.2,6.7 30.2,6.7 30.1,6.7 30.1,6.7 
					30.1,6.7 30.1,6.8 30,6.8 30,6.8 30,6.9 29.9,6.9 29.9,6.8 29.9,6.8 29.9,6.8 29.9,6.8 29.8,6.7 29.8,6.7 29.7,6.7 29.7,6.7 
					29.6,6.7 29.6,6.6 29.6,6.6 29.6,6.6 29.6,6.3 29.6,6.3 29.6,6.2 29.6,6.2 29.6,6.1 29.6,6.1 29.5,6 29.5,6 29.5,6 29.4,5.9 
					29.4,5.9 29.4,5.8 29.3,5.8 29.1,5.8 29.1,5.8 29,5.8 28.9,5.8 28.8,5.8 28.7,5.8 28.7,5.8 28.6,5.8 28.6,5.8 28.5,5.8 
					28.4,5.8 28.4,5.8 28.4,5.8 28.3,5.9 28.3,5.8 28.2,5.8 28.1,5.9 28.1,5.8 28,5.9 28,5.9 27.9,5.9 27.9,5.9 27.8,5.8 27.8,5.8 
					27.7,5.8 27.8,5.8 27.9,5.7 27.9,5.7 27.7,5.5 27.7,5.5 27.7,5.5 27.6,5.5 27.5,5.5 27.5,5.5 27.5,5.5 27.5,5.4 27.4,5.4 
					27.4,5.3 27.4,5.3 27.3,5.3 27.3,5.3 27.2,5.3 27.2,5.3 27.1,5.3 27.1,5.3 27.1,5.3 27.2,5.2 27.2,5.1 27.3,5.2 27.3,5.2 
					27.3,5.2 27.3,5.1 27.3,5.1 27.3,4.9 27.2,4.9 27.2,4.9 27.1,4.9 27.1,4.8 27,4.8 26.9,4.8 26.9,4.8 26.9,4.8 26.8,4.8 
					26.7,4.8 26.7,4.8 26.6,4.8 26.5,4.7 26.5,4.7 26.4,4.6 26.3,4.6 26.2,4.6 26.1,4.6 25.9,4.6 25.8,4.5 25.7,4.5 25.4,4.5 
					25.4,4.5 25.4,4.5 25.3,4.4 25.3,4.4 25.3,4.4 25.2,4.5 25.2,4.5 25.3,4.5 25.3,4.6 25.3,4.6 25.3,4.6 25.2,4.7 25.2,4.7 
					25.2,4.8 25.2,4.9 25.1,4.9 25.1,4.9 25,5 25,5 25,5.1 25,5.1 25,5.2 25,5.2 25,5.3 25,5.3 25,5.4 25,5.4 25,5.4 25,5.5 25,5.5 
					24.9,5.4 24.9,5.5 24.8,5.5 24.8,5.5 24.8,5.5 24.7,5.5 24.7,5.6 24.7,5.6 24.6,5.7 24.6,5.7 24.6,5.7 24.5,5.7 24.5,5.6 
					24.5,5.6 24.5,5.6 24.5,5.6 24.4,5.5 24.4,5.5 24.4,5.5 24.3,5.4 24.2,5.4 24.1,5.4 24.1,5.4 24.1,5.4 24,5.3 23.9,5.3 
					23.8,5.4 23.8,5.5 23.8,5.5 23.8,5.5 23.8,5.5 23.8,5.5 23.7,5.5 23.6,5.5 23.6,5.5 23.5,5.4 23.5,5.4 23.5,5.3 23.4,5.2 
					23.4,5.2 23.4,5.1 23.4,5.1 23.3,5.1 23.3,5.2 23.2,5.3 23.2,5.4 23.2,5.5 23.2,5.5 23.2,5.7 23.2,5.7 23.1,5.8 23.1,5.8 
					23.1,5.9 23.1,5.9 23,6 23,6 23,5.8 22.9,5.8 22.9,5.9 22.9,5.9 22.9,5.8 22.8,5.9 22.8,5.8 22.8,5.8 22.8,5.8 22.8,5.7 
					22.7,5.8 22.7,5.7 22.7,5.7 22.7,5.7 22.7,5.6 22.6,5.6 22.6,5.6 22.6,5.6 22.6,5.5 22.6,5.5 22.6,5.4 22.6,5.4 22.6,5.4 
					22.5,5.3 22.5,5.3 22.5,5.4 22.5,5.3 22.5,5.3 22.5,5.3 22.5,5.2 22.5,5.2 22.4,5.1 22.5,5 22.6,5 22.6,5 22.6,5 22.6,5 22.6,5 
					22.6,4.9 22.6,4.9 22.6,4.9 22.6,4.9 22.6,4.9 22.6,4.9 22.7,4.8 22.6,4.7 22.6,4.7 22.6,4.7 22.6,4.6 22.6,4.6 22.6,4.6 
					22.6,4.5 22.6,4.5 22.6,4.5 22.6,4.5 22.6,4.4 22.6,4.4 22.6,4.4 22.6,4.4 22.6,4.3 22.6,4.3 22.6,4.3 22.6,4.3 22.6,4.2 
					22.5,4.2 22.5,4.2 22.5,4.1 22.4,4.1 22.4,4 22.4,4 22.3,4 22.3,4 22.3,4 22.3,3.9 22.2,3.9 22.2,3.9 22.1,3.9 22.1,3.9 22,3.9 
					22,3.9 22,3.9 22,4 22,4 21.9,3.9 21.9,3.8 21.8,3.9 21.8,3.8 21.8,3.9 21.7,3.8 21.7,3.8 21.7,3.8 21.7,3.8 21.6,3.8 21.6,3.8 
					21.6,3.7 21.6,3.7 21.6,3.8 21.6,3.7 21.5,3.7 21.5,3.7 21.4,3.7 21.4,3.6 21.3,3.6 21.3,3.7 21.3,3.7 21.3,3.7 21.3,3.7 
					21.3,3.7 21.2,3.7 21.2,3.7 21.2,3.8 21.2,3.9 21.2,4 21.2,4 21.2,4 21.2,4.1 21.2,4.2 21.2,4.2 21.2,4.3 21.1,4.3 21,4.3 
					21,4.3 21,4.3 21,4.3 20.9,4.3 20.8,4.3 20.8,4.3 20.7,4.3 20.7,4.4 20.6,4.3 20.5,4.3 20.4,4.3 20.4,4.3 20.4,4.3 20.3,4.2 
					20.2,4.2 20.1,4.2 20.1,4.1 20.1,4.1 20.1,4.1 20.1,4.1 20.1,4 20.1,4 20.1,3.9 20.2,4 20.2,3.9 20.2,3.9 20.2,3.9 20.2,3.9 
					20,3.9 20,3.8 19.9,3.9 19.8,3.9 19.8,3.8 19.7,3.8 19.7,3.8 19.6,3.8 19.5,3.8 19.5,3.7 19.4,3.8 19.4,3.8 19.3,3.8 19.2,3.9 
					19.1,3.8 19,3.9 19,4 19,4.1 19,4.1 18.9,4.1 18.9,4.1 18.9,4.1 18.9,4.1 19,4.1 18.9,4 18.9,4 18.9,4 18.9,3.9 18.9,3.8 
					18.9,3.7 18.9,3.7 18.9,3.6 18.8,3.6 18.8,3.5 18.8,3.6 18.8,3.7 18.8,3.7 18.7,3.8 18.6,3.7 18.5,3.8 18.5,3.7 18.4,3.7 
					18.4,3.6 18.4,3.5 18.4,3.5 18.5,3.5 18.5,3.5 18.5,3.5 18.4,3.5 18.4,3.5 18.4,3.6 18.3,3.6 18.3,3.5 18.3,3.5 18.2,3.5 
					18.2,3.5 18.1,3.5 18.1,3.6 18,3.7 18,3.7 18,3.8 18.1,3.8 18.1,3.8 18.1,3.8 18.1,3.8 18.1,3.8 18.2,3.8 18.2,3.7 18.3,3.7 
					18.3,3.7 18.3,3.7 18.3,3.8 18.2,3.8 18.2,3.9 18.2,3.9 18.1,4 18,4 17.9,3.9 18,4 18,4 18,4 18,4 18,4 17.8,4.1 17.8,4.1 
					17.7,4.1 17.8,4.1 17.7,4.1 17.6,4.2 17.6,4.2 17.5,4.2 17.4,4.2 17.3,4.2 17.3,4.2 17.3,4.3 17.3,4.3 17.4,4.4 17.4,4.4 
					17.4,4.4 17.3,4.4 17.2,4.3 17.2,4.4 17.2,4.4 17.2,4.5 17.1,4.5 17.1,4.5 17,4.5 17,4.6 16.9,4.6 16.9,4.6 16.9,4.6 16.9,4.6 
					16.8,4.7 16.8,4.6 16.8,4.6 16.9,4.5 16.9,4.5 17,4.5 17,4.5 17.1,4.5 17.1,4.4 17.1,4.4 17.2,4.2 17.2,4.2 17.2,4.2 17.2,4.1 
					17.3,4.1 17.3,4.1 17.4,4 17.4,4 17.5,3.9 17.5,3.8 17.7,3.8 17.7,3.8 17.7,3.8 17.8,3.7 17.8,3.6 17.9,3.5 18,3.4 18,3.4 
					18.1,3.4 18.1,3.3 18.2,3.2 18.2,3.1 18.2,3.1 18.2,3.1 18.3,3.1 18.3,3 18.3,3 18.3,3 18.3,3 18.4,3 18.4,3 18.4,3 18.5,2.9 
					18.6,2.9 18.6,2.9 18.6,2.9 18.6,2.8 18.7,2.8 18.6,2.8 18.7,2.7 18.7,2.7 18.7,2.7 18.8,2.7 18.8,2.7 18.8,2.7 18.8,2.6 
					18.8,2.6 18.9,2.6 18.9,2.6 18.9,2.5 18.9,2.5 19,2.4 19,2.4 19,2.4 19,2.3 19,2.3 19,2.2 19,2.2 19,2.2 18.9,2.2 18.9,2.1 
					18.9,2.1 18.8,2.1 18.8,2.1 18.8,2.1 18.8,2.1 18.8,2.1 18.8,2 18.8,2 18.7,1.9 18.7,1.9 18.7,1.9 18.8,1.9 18.8,2 19,2 
					18.9,2.1 19,2.1 19,2.1 19,1.9 19,1.8 19,1.8 19,1.8 19,1.8 18.9,1.7 18.9,1.6 18.9,1.5 18.8,1.5 18.9,1.6 18.8,1.6 18.8,1.6 
					18.8,1.7 18.8,1.6 18.7,1.5 18.8,1.5 18.8,1.5 18.8,1.4 18.7,1.3 18.6,1.3 18.6,1.3 18.6,1.2 18.5,1.1 18.5,1.1 18.5,1.1 
					18.4,1.1 18.4,1.1 18.4,1.1 18.4,1 18.3,1 18.2,1 18.1,1.1 18.1,1.1 18.1,1.1 18,1 17.9,1 17.9,1 17.8,1.1 17.8,1 17.7,1.1 
					17.7,1 17.8,1 17.7,1 17.7,1 17.7,1 17.7,1 17.7,1.1 17.6,1.1 17.7,1.1 17.7,1.1 17.6,1.1 17.6,1.2 17.6,1.2 17.6,1.3 17.5,1.2 
					17.5,1.3 17.4,1.3 17.4,1.3 17.3,1.3 17.3,1.3 17.3,1.3 17.3,1.3 17.3,1.2 17.3,1.2 17.4,1.1 17.4,1.1 17.4,1 17.5,1 17.5,0.9 
					17.5,0.9 17.5,0.9 17.5,0.9 17.5,0.9 17.5,0.8 17.5,0.8 17.5,0.8 17.5,0.8 17.4,0.7 17.4,0.7 17.4,0.7 17.3,0.7 17.3,0.7 
					17.3,0.7 17.2,0.7 17.2,0.7 17.2,0.7 17.2,0.6 17.1,0.7 17.1,0.7 16.8,0.8 16.9,0.7 16.9,0.7 17,0.5 17.1,0.5 17.1,0.5 
					17.1,0.4 17.1,0.4 17.2,0.4 17.2,0.4 17.2,0.3 17.2,0.2 17.1,0.2 17.1,0.2 17,0.2 17,0.1 16.9,0 16.9,0.1 16.8,0.1 16.8,0 
					16.8,0 16.8,0 16.8,0 16.7,0.1 16.7,0.1 16.6,0.1 16.5,0.1 16.5,0.1 16.5,0.2 16.4,0.4 16.3,0.4 16.2,0.5 16.2,0.5 16.2,0.7 
					16.1,0.7 16.1,0.7 16.1,0.8 16.1,0.8 16.1,0.8 16.1,0.8 16,0.9 16.1,0.9 16.1,1 16.1,1 16.1,1 16.1,1.1 16.2,1.1 16.2,1.1 
					16.1,1.1 16.1,1.1 16.1,1.2 16.1,1.2 16.1,1.2 16,1.3 15.9,1.3 15.8,1.3 15.8,1.3 15.6,1.3 15.6,1.3 15.6,1.3 15.6,1.3 
					15.6,1.4 15.7,1.4 15.7,1.4 15.7,1.5 15.8,1.5 15.8,1.5 15.8,1.5 15.8,1.6 15.8,1.7 15.8,1.7 15.7,1.7 15.7,1.6 15.7,1.6 
					15.6,1.6 15.6,1.6 15.6,1.5 15.6,1.5 15.6,1.5 15.6,1.5 15.5,1.5 15.4,1.6 15.4,1.6 15.4,1.7 15.4,1.7 15.4,1.6 15.3,1.6 
					15.3,1.7 15.3,1.7 15.3,1.7 15.3,1.7 15.3,1.8 15.3,1.7 15.2,1.8 15.2,1.7 15.2,1.7 15.2,1.7 15.1,1.8 15.1,1.8 15,1.8 15,1.8 
					15.1,1.8 15.1,1.8 15,1.7 15,1.7 15,1.7 14.9,1.8 14.9,1.8 14.9,1.8 14.8,1.8 14.9,1.7 14.9,1.6 14.9,1.6 14.8,1.6 14.7,1.6 
					14.7,1.6 14.6,1.6 14.6,1.6 14.5,1.7 14.5,1.6 14.4,1.6 14.4,1.7 14.4,1.7 14.4,1.7 14.3,1.7 14.3,1.7 14.3,1.7 14.3,1.7 
					14.2,1.7 14.2,1.7 14.2,1.7 14.2,1.8 14.2,1.8 14.3,1.7 14.3,1.8 14.3,1.8 14.3,1.8 14.3,1.8 14.4,1.8 14.4,1.8 14.4,1.8 
					14.3,1.9 14.1,2 13.9,2 13.9,2 13.9,2 13.9,2.1 13.9,2 13.9,2 13.8,2.1 13.7,2 13.7,2.1 13.6,2.1 13.5,2.2 13.6,2.2 13.5,2.2 
					13.4,2.3 13.4,2.2 13.3,2.2 13.3,2.3 13.3,2.3 13.3,2.3 13.3,2.3 13.3,2.3 13.2,2.4 13.2,2.4 13.2,2.4 13.1,2.5 13.1,2.5 
					13.1,2.5 13.1,2.5 13,2.6 13,2.5 13,2.5 12.9,2.5 12.9,2.5 12.8,2.6 12.9,2.6 12.9,2.6 13,2.6 13,2.6 13,2.7 12.9,2.7 12.9,2.7 
					12.9,2.7 12.9,2.7 12.9,2.8 12.9,2.8 12.8,2.9 12.8,2.9 12.8,2.9 12.8,2.9 12.8,3 12.8,2.9 12.7,2.9 12.7,2.8 12.6,2.8 
					12.6,2.8 12.6,2.9 12.6,2.9 12.6,2.9 12.6,2.9 12.6,3 12.7,3 12.7,3 12.8,3 12.8,3 12.8,3.1 12.8,3.1 12.8,3.1 12.7,3.1 
					12.7,3.1 12.6,3.1 12.7,3.2 12.6,3.2 12.6,3.2 12.6,3.2 12.6,3.3 12.8,3.3 12.8,3.4 12.8,3.4 12.8,3.5 12.8,3.5 12.8,3.5 
					12.8,3.5 12.8,3.5 12.8,3.5 12.8,3.5 12.8,3.6 12.8,3.6 12.8,3.6 12.7,3.6 12.6,3.6 12.6,3.6 12.5,3.7 12.5,3.7 12.5,3.7 
					12.4,3.7 12.4,3.7 12.4,3.7 12.3,3.7 12.2,3.7 12.1,3.8 11.9,3.8 11.9,3.8 11.8,3.8 11.7,3.8 11.6,3.8 11.6,3.8 11.6,3.8 
					11.5,3.8 11.5,3.8 11.5,3.9 11.4,3.9 11.4,3.9 11.4,4 11.4,3.9 11.4,3.9 11.5,3.9 11.4,4 11.4,4 11.4,4 11.4,4 11.3,4 11.4,4.1 
					11.4,4.1 11.4,4.1 11.3,4.2 11.4,4.2 11.4,4.2 11.4,4.3 11.5,4.3 11.5,4.4 11.5,4.4 11.5,4.4 11.5,4.4 11.5,4.5 11.4,4.5 
					11.5,4.6 11.5,4.6 11.5,4.7 11.5,4.7 11.5,4.8 11.6,4.8 11.7,4.8 11.8,4.9 11.8,4.9 11.8,5 11.8,5 11.8,5 11.8,5 11.9,5.1 
					11.9,5.1 11.9,5.2 12,5.2 12.1,5.2 12.1,5.2 12.1,5.2 12.1,5.3 12.1,5.4 12.1,5.4 12.1,5.5 12,5.6 12,5.6 12,5.7 12,5.7 
					12.1,5.8 12.1,6 12.1,6 12.1,6.1 12.1,6.2 12.1,6.2 12.1,6.3 12,6.3 12,6.3 12,6.3 12,6.4 12,6.4 11.9,6.4 11.8,6.4 11.8,6.3 
					11.8,6.3 11.8,6.1 11.8,6 11.8,6 11.8,5.8 11.8,5.8 11.8,5.7 11.8,5.7 11.8,5.6 12,5.5 12,5.5 12,5.4 12,5.4 12,5.4 12,5.3 
					11.9,5.2 11.8,5.3 11.7,5.3 11.6,5.3 11.6,5.2 11.6,5.2 11.5,5.2 11.5,5.1 11.5,5.1 11.5,5 11.4,5 11.3,4.9 11.2,4.9 11.1,4.8 
					10.9,4.8 10.8,4.8 10.8,4.9 10.7,4.9 10.7,5 10.8,5 10.8,5.1 10.8,5.1 10.8,5.2 10.7,5.2 10.6,5.3 10.5,5.3 10.5,5.2 10.5,5.2 
					10.4,5.1 10.4,5.1 10.3,5.2 10.4,5.2 10.4,5.3 10.4,5.3 10.4,5.4 10.5,5.4 10.5,5.5 10.6,5.5 10.6,5.6 10.7,5.6 10.7,5.6 
					10.7,5.6 10.8,5.5 10.8,5.6 10.8,5.6 10.8,5.6 10.8,5.7 10.9,5.8 10.9,5.8 10.8,5.8 10.8,5.8 10.8,5.8 10.8,5.7 10.7,5.7 
					10.6,5.7 10.5,5.6 10.4,5.6 10.2,5.6 10.2,5.5 10.2,5.5 10.2,5.5 10.2,5.5 10.2,5.4 10.2,5.4 10.2,5.3 10.2,5.2 10.2,5.1 
					10.2,5.1 10.2,5 10.3,4.9 10.2,4.8 10.2,4.7 10.3,4.7 10.2,4.6 10.2,4.6 10.2,4.5 10.1,4.5 10.1,4.4 10.1,4.4 10.1,4.5 
					10.1,4.6 10.1,4.7 10.1,4.9 10.1,4.9 9.9,5.1 9.9,5.1 9.7,5.2 9.7,5.2 9.7,5.3 9.7,5.3 9.7,5.4 9.7,5.4 9.8,5.5 9.8,5.6 
					9.8,5.7 9.9,5.8 9.9,5.9 10,6 10,6.1 9.9,6.1 9.9,6.2 9.9,6.3 9.8,6.3 9.8,6.4 9.8,6.5 9.8,6.5 9.8,6.6 9.8,6.6 9.8,6.7 
					9.9,6.8 9.9,6.9 9.8,7 9.8,7 9.9,7.1 9.9,7.1 10,7.1 10,7.1 10.1,7.1 10.2,7.1 10.2,7.1 10.3,7 10.4,7 10.5,7.1 10.5,7.1 
					10.6,7.2 10.7,7.2 10.8,7.3 10.8,7.3 10.7,7.4 10.8,7.5 10.8,7.5 10.8,7.6 10.8,7.6 10.8,7.6 10.7,7.7 10.7,7.7 10.7,7.8 
					10.7,7.9 10.7,7.9 10.8,7.9 10.8,8 10.9,8 11,8 11,8 10.9,8.1 10.8,8 10.7,8 10.7,8 10.7,8 10.6,7.9 10.6,7.9 10.6,7.9 
					10.6,7.8 10.6,7.8 10.6,7.7 10.7,7.6 10.7,7.6 10.6,7.6 10.6,7.6 10.6,7.5 10.6,7.5 10.6,7.5 10.7,7.5 10.6,7.4 10.6,7.4 
					10.6,7.4 10.6,7.3 10.5,7.3 10.5,7.3 10.5,7.2 10.5,7.2 10.4,7.2 10.3,7.2 10.2,7.2 10.1,7.3 10,7.3 10,7.3 10,7.4 10,7.4 
					10,7.5 10,7.5 10,7.6 10,7.6 10,7.6 10,7.6 10,7.7 10,7.7 10.1,7.8 10.1,7.8 10,7.9 10,8 9.9,8.1 9.9,8.2 9.9,8.2 9.8,8.3 
					9.8,8.4 9.7,8.5 9.7,8.5 9.6,8.5 9.5,8.6 9.5,8.6 9.5,8.7 9.5,8.8 9.4,8.8 9.3,8.7 9.2,8.7 9.1,8.7 9.1,8.7 9,8.7 9,8.7 9,8.7 
					9,8.6 9,8.5 8.9,8.5 8.9,8.5 8.9,8.5 9,8.5 9,8.5 9,8.5 9.1,8.5 9.1,8.5 9.1,8.5 9.2,8.4 9.2,8.4 9.3,8.4 9.3,8.4 9.3,8.4 
					9.4,8.4 9.4,8.4 9.4,8.3 9.4,8.3 9.3,8.3 9.3,8.3 9.3,8.3 9.3,8.2 9.4,8.3 9.5,8.3 9.5,8.3 9.5,8.2 9.5,8.2 9.5,8.1 9.5,8.1 
					9.6,8.1 9.6,8 9.6,8 9.7,7.9 9.7,7.9 9.7,7.9 9.7,7.7 9.7,7.7 9.7,7.6 9.8,7.5 9.8,7.4 9.6,7.3 9.5,7.1 9.5,7 9.6,7 9.6,6.9 
					9.5,6.9 9.6,6.8 9.6,6.7 9.6,6.7 9.6,6.6 9.6,6.5 9.6,6.5 9.6,6.5 9.6,6.5 9.6,6.4 9.6,6.4 9.5,6.3 9.5,6.3 9.5,6.2 9.6,6.2 
					9.6,6.2 9.6,6 9.6,6 9.6,5.9 9.5,5.7 9.6,5.6 9.5,5.6 9.4,5.5 9.4,5.4 9.4,5.4 9.4,5.4 9.5,5.3 9.5,5.3 9.5,5.2 9.5,5.2 
					9.5,5.2 9.5,5.1 9.6,5 9.6,4.9 9.6,4.8 9.6,4.7 9.6,4.7 9.6,4.6 9.6,4.5 9.6,4.5 9.6,4.5 9.4,4.4 9.3,4.4 9.2,4.4 9.1,4.4 
					9,4.4 8.9,4.4 8.9,4.3 8.8,4.4 8.8,4.4 8.8,4.4 8.8,4.5 8.7,4.5 8.7,4.6 8.7,4.8 8.7,4.9 8.6,4.9 8.6,5.1 8.6,5.2 8.5,5.4 
					8.4,5.5 8.4,5.5 8.2,5.6 8.2,5.7 8.2,5.8 8.2,5.8 8.3,5.7 8.3,5.7 8.3,5.8 8.3,5.8 8.2,5.8 8.2,5.9 8.2,6 8.3,6 8.3,5.9 
					8.4,5.9 8.4,6 8.4,6 8.4,6.2 8.3,6.3 8.3,6.4 8.4,6.4 8.3,6.5 8.3,6.5 8.3,6.4 8.3,6.5 8.3,6.7 8.3,6.8 8.3,6.7 8.3,6.7 
					8.4,6.8 8.5,6.8 8.5,6.8 8.5,6.8 8.5,6.9 8.6,7 8.6,7.1 8.6,7.1 8.7,7.2 8.7,7.2 8.7,7.2 8.8,7.2 8.7,7.3 8.7,7.4 8.6,7.5 
					8.6,7.6 8.6,7.6 8.6,7.6 8.6,7.5 8.5,7.5 8.4,7.4 8.3,7.3 8.3,7.2 8.2,7.2 8.1,7.1 8,7.1 8,7 8,7 8,7 7.9,7 7.8,6.9 7.8,6.9 
					7.6,6.8 7.5,6.8 7.4,6.7 7.4,6.7 7.3,6.7 7.2,6.7 7,6.6 7,6.6 6.9,6.6 6.9,6.6 6.9,6.6 6.9,6.6 6.8,6.7 6.8,6.7 6.8,6.8 
					6.8,6.8 6.8,6.9 6.9,7.1 6.9,7 6.9,7 6.9,7.2 6.9,7.2 6.8,7.3 6.7,7.3 6.7,7.4 6.7,7.4 6.7,7.5 6.6,7.5 6.6,7.6 6.5,7.5 
					6.5,7.5 6.5,7.4 6.5,7.4 6.5,7.3 6.6,7.3 6.5,7.2 6.5,7.1 6.4,7.1 6.3,7.2 6.2,7.3 6.2,7.3 6.1,7.4 6,7.4 6,7.4 5.9,7.4 
					5.9,7.4 5.8,7.4 5.7,7.4 5.6,7.4 5.5,7.5 5.5,7.5 5.5,7.6 5.5,7.7 5.5,7.7 5.4,7.6 5.4,7.6 5.4,7.6 5.3,7.6 5.3,7.6 5.3,7.4 
					5.3,7.4 5.3,7.4 5.3,7.3 5.3,7.3 5.3,7.2 5.3,7.2 5.3,7.2 5.2,7.2 5.2,7.2 5.3,7.2 5.4,7.2 5.4,7.1 5.4,7.1 5.4,7.1 5.3,7.2 
					5.3,7.2 5.3,7.2 5.2,7.2 5.2,7.2 5.1,7.3 5.1,7.3 5.1,7.3 5.1,7.4 5.1,7.4 5.1,7.4 5,7.3 5.1,7.3 5,7.3 4.9,7.4 5,7.4 5,7.4 
					5,7.5 5,7.5 4.9,7.5 4.9,7.5 4.9,7.5 4.9,7.4 4.8,7.5 4.8,7.5 4.6,7.6 4.6,7.5 4.6,7.6 4.5,7.7 4.1,7.9 4.1,7.9 4.1,7.9 
					4.1,7.9 4.1,8 4,8 4,8 3.9,8 3.9,8.1 3.9,8.2 3.9,8.2 3.9,8.4 3.8,8.4 3.8,8.4 3.7,8.4 3.6,8.5 3.6,8.6 3.6,8.5 3.6,8.4 
					3.5,8.5 3.5,8.5 3.5,8.4 3.4,8.4 3.4,8.3 3.3,8.2 3.3,8.2 3.2,8.1 3.2,8 3.3,8 3.3,8 3.3,7.9 3.4,7.9 3.6,7.9 3.6,7.8 3.6,7.7 
					3.6,7.6 3.5,7.7 3.5,7.6 3.5,7.6 3.5,7.5 3.4,7.5 3.3,7.4 3.2,7.4 3.1,7.4 3.1,7.4 3,7.4 2.8,7.3 2.8,7.4 3,7.6 3,7.7 3.1,7.8 
					3,7.8 3,7.9 3,8.1 3,8.2 3,8.2 3,8.3 3.1,8.3 3.1,8.3 3.1,8.4 3.1,8.4 3.1,8.5 3.1,8.5 3.1,8.6 3.1,8.7 3,8.8 3.1,8.8 3.1,9 
					3,8.9 3,8.9 3,8.8 2.9,8.8 2.9,8.9 2.9,8.8 2.9,8.8 2.8,8.7 2.8,8.7 2.7,8.7 2.6,8.6 2.6,8.7 2.6,8.7 2.5,8.8 2.5,8.8 2.4,8.9 
					2.3,8.9 2.3,8.9 2.2,9 2.2,9 2.2,9.1 2.1,9.1 2.1,9.1 2.1,9.2 2.1,9.3 2.1,9.4 2.2,9.5 2.2,9.5 2.3,9.7 2.3,9.7 2.3,9.7 
					2.3,9.8 2.2,9.7 2.2,9.7 2.1,9.7 2.1,9.7 2.1,9.7 2,9.7 1.9,9.7 1.9,9.6 1.8,9.6 1.8,9.6 1.7,9.6 1.7,9.7 1.7,9.6 1.7,9.6 
					1.7,9.6 1.6,9.5 1.6,9.5 1.5,9.4 1.4,9.4 1.4,9.4 1.4,9.5 1.3,9.5 1.3,9.5 1.3,9.6 1.3,9.6 1.4,9.7 1.4,9.8 1.5,9.8 1.6,9.8 
					1.6,9.8 1.7,10 1.7,10.1 1.6,10 1.6,10.1 1.5,10.1 1.5,10.1 1.5,10.1 1.4,10.1 1.3,10 1.2,10 1.2,10 1.2,9.9 1.2,9.9 1.1,9.9 
					1.1,9.8 1.1,9.9 1,9.9 1,9.8 0.9,9.7 0.9,9.8 0.9,9.7 0.9,9.7 0.9,9.6 0.9,9.5 0.9,9.5 0.9,9.4 0.8,9.3 0.8,9.3 0.9,9.2 
					0.9,9.2 0.9,9 0.9,9 0.9,9 0.8,8.9 0.8,8.9 0.8,8.8 0.7,8.8 0.7,8.8 0.6,8.8 0.6,8.7 0.6,8.7 0.6,8.7 0.5,8.7 0.4,8.5 0.4,8.5 
					0.4,8.5 0.3,8.4 0.3,8.3 0.2,8.3 0.3,8.3 0.4,8.3 0.4,8.3 0.4,8.4 0.5,8.4 0.6,8.5 0.6,8.5 0.6,8.5 0.7,8.5 0.7,8.5 0.7,8.5 
					0.8,8.5 0.8,8.5 0.8,8.5 0.8,8.6 0.8,8.6 0.9,8.6 1,8.6 1,8.7 1,8.7 1.1,8.7 1.2,8.7 1.3,8.8 1.4,8.8 1.5,8.8 1.5,8.9 1.6,8.9 
					1.8,8.9 1.9,8.9 1.9,8.9 2.1,8.8 2.2,8.7 2.2,8.7 2.3,8.6 2.4,8.5 2.4,8.4 2.4,8.3 2.4,8.2 2.4,8.2 2.4,8.1 2.3,8.1 2.3,8 
					2.3,7.9 2.2,7.9 2.2,7.9 2.2,7.9 2.2,7.8 2.2,7.8 2.1,7.8 2.1,7.7 2.1,7.7 2,7.7 2.1,7.7 2,7.7 1.9,7.7 1.9,7.6 1.9,7.7 
					1.9,7.7 1.9,7.6 1.8,7.5 1.8,7.6 1.7,7.6 1.7,7.5 1.7,7.5 1.7,7.5 1.5,7.3 1.5,7.3 1.4,7.2 1.3,7.2 1.3,7.1 1.2,7 1.1,7 1,7 
					1,7 1,7 1,7 0.9,7 0.8,7 0.7,6.9 0.7,7 0.6,7 0.6,7 0.6,6.9 0.5,6.9 0.5,6.9 0.5,6.9 0.5,6.9 0.5,6.9 0.4,6.9 0.4,6.8 0.4,6.8 
					0.4,6.8 0.3,6.9 0.3,6.8 0.3,6.8 0.3,6.8 0.3,6.8 0.3,6.7 0.3,6.7 0.3,6.7 0.4,6.7 0.4,6.8 0.4,6.8 0.5,6.8 0.5,6.7 0.5,6.7 
					0.4,6.6 0.4,6.6 0.4,6.6 0.4,6.6 0.3,6.5 0.2,6.5 0.2,6.6 0.2,6.6 0.2,6.6 0.2,6.6 0.2,6.6 0.2,6.7 0.2,6.7 0.1,6.7 0.1,6.7 
					0,6.6 0,6.6 0,6.6 				"/>
			</g>
		</g>
		<circle class="st2" cx="21" cy="31" r="12"/>
	</g>
</g>
<g>
	<path d="M114.4,40.2h-3l3.4-18.3h3.9l3.4,18.3h-3l-0.6-4.1h-3.4L114.4,40.2z M115.4,33.5h2.5l-1.2-7.8h-0.1L115.4,33.5z"/>
	<path d="M123.2,40.2V22h3.1v18.3H123.2z"/>
	<path d="M128.8,22h4.7c3.2,0,5,1.8,5,5.5v7.2c0,3.7-1.7,5.5-5,5.5h-4.7V22z M132,37.6h1.1c1.7,0,2.3-0.6,2.3-2.6v-8
		c0-1.9-0.6-2.6-2.3-2.6H132V37.6z"/>
	<path d="M111.1,48.4h-0.9l1-5.2h1.1l1,5.2h-0.9l-0.2-1.2h-1L111.1,48.4z M111.4,46.4h0.7l-0.4-2.2h0L111.4,46.4z"/>
	<path d="M113.6,48.4v-5.2h0.8l1.1,3h0v-3h0.8v5.2h-0.8l-1.1-3.3h0v3.3H113.6z"/>
	<path d="M118.3,45.7h1.5v2.7h-0.4l-0.2-0.4c-0.3,0.3-0.5,0.5-0.9,0.5c-0.7,0-1.2-0.5-1.2-1.3v-2.7c0-0.7,0.4-1.3,1.3-1.3
		c0.9,0,1.4,0.7,1.4,1.4v0.3h-0.9c0-0.8-0.2-1-0.5-1c-0.2,0-0.4,0.1-0.4,0.6v2.7c0,0.3,0.1,0.6,0.4,0.6c0.4,0,0.5-0.2,0.5-0.7v-0.5
		h-0.6V45.7z"/>
	<path d="M120.4,48.4v-5.2h0.9v4.5h1.4v0.8H120.4z"/>
	<path d="M123.2,48.4v-5.2h0.9v5.2H123.2z"/>
	<path d="M126.8,44.9v-0.4c0-0.4-0.2-0.6-0.4-0.6c-0.4,0-0.5,0.2-0.5,0.6v2.7c0,0.4,0.1,0.6,0.5,0.6c0.3,0,0.4-0.2,0.4-0.5v-0.6h0.9
		v0.6c0,0.7-0.4,1.3-1.3,1.3c-0.9,0-1.4-0.6-1.4-1.3v-2.7c0-0.7,0.4-1.3,1.4-1.3c0.9,0,1.3,0.7,1.3,1.4v0.4H126.8z"/>
	<path d="M128.4,44.4c0-0.7,0.4-1.3,1.4-1.3c0.9,0,1.4,0.6,1.4,1.3v2.7c0,0.7-0.4,1.3-1.4,1.3c-0.9,0-1.4-0.6-1.4-1.3V44.4z
		 M129.3,47.1c0,0.4,0.1,0.6,0.5,0.6c0.4,0,0.5-0.2,0.5-0.6v-2.7c0-0.4-0.1-0.6-0.5-0.6c-0.4,0-0.5,0.2-0.5,0.6V47.1z"/>
	<path d="M132.8,48.4h-0.9v-5.2h1.3c1,0,1.5,0.4,1.5,1.5c0,0.8-0.3,1.2-0.6,1.3l0.8,2.4h-0.9l-0.6-2.2c-0.1,0-0.3,0-0.5,0V48.4z
		 M132.8,45.5h0.3c0.5,0,0.7-0.2,0.7-0.8s-0.2-0.8-0.7-0.8h-0.3V45.5z"/>
	<path d="M135.3,43.1h1.3c0.9,0,1.4,0.5,1.4,1.6v2.1c0,1.1-0.5,1.6-1.4,1.6h-1.3V43.1z M136.2,47.6h0.3c0.5,0,0.6-0.2,0.6-0.7v-2.3
		c0-0.6-0.2-0.7-0.6-0.7h-0.3V47.6z"/>
</g>
</svg>
