<?xml version="1.0" encoding="utf-8"?>
<!-- Generator: Adobe Illustrator 19.1.0, SVG Export Plug-In . SVG Version: 6.00 Build 0)  -->
<svg version="1.1" id="Layer_1" xmlns="http://www.w3.org/2000/svg" xmlns:xlink="http://www.w3.org/1999/xlink" x="0px" y="0px"
	 viewBox="0 0 291.2 98.6" style="enable-background:new 0 0 291.2 98.6;" xml:space="preserve">
<path d="M43.2,60.7L43.2,60.7C43.2,60.7,43.2,60.8,43.2,60.7c-0.6,0.3-0.6,0.8-0.6,1.3c0,0,0,0,0,0c-0.9,0.6-1.2,1.5-1.3,2.5
	c0,0,0,0,0,0c-0.1,0-0.2,0.1-0.2,0.2c0,0,0,0,0,0c-0.7,0.3-1,0.8-1.1,1.5l-0.1,0c0,0,0.1,0,0.1,0c-0.1,0-0.2,0.1-0.2,0.2
	c0,0,0,0,0,0c-0.5,0-0.6,0.3-0.6,0.7c0,0,0,0,0,0c-0.1,0-0.2,0.1-0.2,0.2c0,0,0,0,0,0c-0.1,0-0.2,0.1-0.2,0.2c0,0,0,0,0,0
	c-0.1,0-0.2,0.1-0.2,0.2c0,0,0,0,0,0c-0.1,0-0.2,0.1-0.2,0.2c0,0,0,0,0,0c-0.1,0-0.2,0.1-0.2,0.2c0,0,0,0,0,0
	c-0.1,0-0.2,0.1-0.2,0.2c0,0,0,0,0,0c-0.1,0-0.2,0.1-0.2,0.2c0,0,0,0,0,0c-0.4,0-0.7,0.2-0.7,0.6l-0.1,0c0,0,0.1,0,0.1,0
	c-0.1,0-0.2,0-0.2,0.2c0,0,0,0,0,0c-0.1,0-0.2,0.1-0.2,0.2c0,0,0,0,0,0c-0.1,0-0.2,0.1-0.2,0.2c0,0,0,0,0,0c-0.1,0-0.2,0.1-0.2,0.2
	c-1.8,1.4-3.8,2.4-6,3c-2.1,0.6-4.2,0.9-6.4,0.9c-2.3,0-4.6-0.1-6.8-0.7c-4.4-1.3-8.2-3.6-11.1-7.1c-2.1-2.6-3.6-5.5-4.6-8.7
	C0.5,54,0,50.8,0,47.5c0-2.8,0.1-5.7,0.6-8.5c0.8-4.3,2.3-8.4,4.9-11.9C5.7,27,5.8,26.9,6,26.8c0.2-0.1,0.4-0.2,0.3-0.4c0,0,0,0,0,0
	c0.1,0,0.2-0.1,0.2-0.2c0,0,0,0,0,0c0.1,0,0.2-0.1,0.2-0.2c0,0,0,0,0,0c0.2,0,0.2,0,0.2-0.2c0,0,0,0,0,0c0.4,0.1,0.5-0.2,0.5-0.5
	c0,0,0,0,0,0c0.6-0.1,1-0.5,1.1-1.1c0,0,0,0,0,0c0.3,0,0.6-0.1,0.5-0.5c0,0,0,0,0,0c0.1,0,0.2,0,0.2-0.2c0,0,0,0,0,0
	c0.1,0,0.2-0.1,0.2-0.2c0,0,0,0,0,0c0.1,0,0.2-0.1,0.2-0.2c0,0,0,0,0,0c0.1,0,0.2-0.1,0.2-0.2c0,0,0,0,0,0c0.1,0,0.2-0.1,0.2-0.2
	c1.2-1.1,2.7-1.9,4.3-2.6c3.5-1.6,7.2-2,11-1.7c2.1,0.1,4.1,0.5,6.1,1.1c0.1,0,0.3,0.1,0.4,0.2c0.3,0.5,0.9,0.6,1.3,0.8
	c1.1,0.4,2.1,1.1,3.2,1.7c1.1,0.6,1.9,1.6,2.8,2.5c0.7,0.7,1.4,1.3,2,2.1c1.4,2.1,2.6,4.3,3.2,6.8c0,0.2,0.2,0.3,0.3,0.4
	C44.9,35,44.9,36,45,37c0,0.3,0,0.5,0,0.8c0.1,0.8,0.1,0.8-0.8,0.8c-3.6,0-7.2,0-10.9,0c-0.9,0-0.9,0-1-0.9
	c-0.3-1.7-0.8-3.3-1.9-4.8c-1.4-2-3.4-3-5.7-3.2c-0.8-0.1-1.7,0-2.5,0c-1.5,0.1-2.9,0.7-4,1.7c-2.4,2-3.7,4.7-4.4,7.6
	c-0.1,0.5-0.1,1-0.4,1.4c-0.2,0.2-0.3,0.4-0.3,0.7c-0.2,1.2-0.4,2.5-0.4,3.7c-0.1,2.1,0,4.2,0.4,6.3c0.4,2.4,0.9,4.7,2.1,6.9
	c0.2,0.3,0.2,0.6,0.6,0.6c0.1,0,0.1,0.1,0.1,0.1c0,0.4,0.2,0.8,0.5,1.1c0.4,0.4,0.7,0.7,1.1,1.1c0.9,1,2.1,1.5,3.3,1.8
	c1.7,0.4,3.4,0.4,5.1,0c0.5-0.1,1.1-0.1,1.3-0.7c0,0,0.1,0,0.1,0c0.5,0,0.9,0,1.1-0.6c0,0,0,0,0,0c0.2,0,0.3,0,0.3-0.3c0,0,0,0,0,0
	c0.1,0,0.2-0.1,0.2-0.2c0,0,0,0,0,0c0.3,0.1,0.4-0.1,0.4-0.3c0,0,0,0,0,0c0.2,0,0.3,0,0.3-0.3c0,0,0,0,0,0c0.1,0,0.2,0,0.2-0.2
	l0.1,0c0,0-0.1,0-0.1,0c0.6-0.1,0.8-0.5,1.1-0.9c0.9-1.2,1.3-2.6,1.8-4c0.3-0.9,0.6-1.9,0.4-2.8c0,0,0-0.1,0-0.1c3.5,0,7,0,10.5,0
	c1.7,0,1.7,0,1.3,1.7c-0.1,0.3-0.2,0.7,0.1,1c0,0.3,0.1,0.5-0.1,0.7c-0.3,0.2-0.2,0.5-0.2,0.8c0,0,0,0,0,0c-0.2,0.1-0.3,0.3-0.4,0.5
	c-0.1,0.8-0.5,1.5-0.7,2.2c-0.1,0.3-0.1,0.7-0.1,1c0.1,0.1,0,0.2-0.1,0.3C43.3,60.5,43.2,60.6,43.2,60.7z"/>
<path d="M145.3,33.3c-0.1-1.9,0.4-3.7,1.7-5.2c2.1-2.6,6.4-2.9,8.9-0.8c0.8,0.7,1.4,1.6,1.7,2.7c0.1,0.7,0.1,0.7-0.6,0.8
	c-0.5,0-0.8,0-1-0.6c-0.6-1.9-2.2-2.8-4.3-2.7c-2.1,0.1-3.6,1.3-4.3,3.3c-0.7,2-0.6,4,0.3,5.9c1.2,2.4,3.2,3,5.5,2.5
	c1.8-0.4,2.6-1.8,3.1-3.5c0.1-0.3,0-0.7,0.3-0.7c0.3-0.1,0.7-0.1,1.1,0c0.3,0,0.2,0.3,0.2,0.5c-0.1,1.3-0.6,2.4-1.5,3.4
	c-2.5,3-8.7,2.6-10.5-2.2c-0.2-0.6-0.4-1.2-0.5-1.8C145.2,34.3,145.3,33.8,145.3,33.3z"/>
<path d="M259.5,49c1.1-1.1,2.2-1.6,3.6-1.5c2.1,0.2,3.2,1.2,3.3,3.3c0.1,1.4,0,2.7,0,4.1c0,0.9,0,1.8,0,2.6c0,0.6-0.3,0.6-0.7,0.6
	c-0.7,0-0.8,0-0.8-0.6c0-1.8,0-3.5,0-5.3c0-0.3,0-0.6,0-0.8c0-1.3-0.5-2.2-1.5-2.5c-1.3-0.4-2.6,0.1-3.3,1.2
	c-0.3,0.5-0.5,1.1-0.5,1.7c0,1.5,0,3.1,0,4.6c0,0.3,0,0.6,0,0.9c0,0.7-0.7,1.1-1.3,0.7c-0.1-0.1-0.2-0.2-0.2-0.3c0-0.2,0-0.4,0-0.7
	c0-4.1,0-8.2,0-12.3c0-0.2,0-0.3,0-0.5c0-0.3,0.1-0.5,0.5-0.4c0.1,0,0.2,0,0.3,0c0.7,0,0.7,0,0.8,0.7c0,0.9,0,1.8,0,2.6
	C259.5,47.8,259.5,48.3,259.5,49z"/>
<path d="M273.5,49c1.1-1.3,2.4-1.6,3.9-1.5c1.8,0.2,2.9,1.3,3,3.1c0.1,2.3,0,4.7,0,7c0,0.5-0.2,0.6-0.6,0.6c-0.7,0-0.9,0-0.9-0.5
	c0-1.1,0-2.1,0-3.2c0-1,0-2.1,0-3.1c0-1.3-0.5-2.1-1.5-2.3c-1.2-0.4-2.5,0.1-3.2,1c-0.5,0.7-0.7,1.5-0.7,2.3c0,1.6,0,3.3,0,4.9
	c0,0.9-0.2,1.1-1.1,1c-0.3,0-0.4-0.2-0.4-0.4c0-3.2,0-6.4,0-9.5c0-0.3,0.1-0.4,0.4-0.4c0.2,0,0.4,0,0.6,0c0.4,0,0.6,0.2,0.5,0.6
	C273.5,48.5,273.5,48.6,273.5,49z"/>
<path d="M169.5,40.4c0-3.4,0-6.8,0-10.2c0.1,0,0.2-0.1,0.3-0.1c1.1-0.1,1.1-0.1,1.2,1.1c0.7-0.7,1.4-1.2,2.4-1.4
	c0.9-0.2,1.8-0.1,2.7,0.3c1.3,0.6,1.8,1.7,1.8,3.1c0,2.1,0,4.3,0,6.4c0,0.1,0,0.2,0,0.3c0,0.3-0.1,0.4-0.5,0.4c-1,0.1-1.1,0-1.1-1
	c0-1.7,0-3.5,0-5.2c0-0.2,0-0.4,0-0.6c0-1.4-0.5-2.1-1.4-2.4c-1.2-0.4-2.6,0-3.3,1c-0.4,0.6-0.7,1.3-0.7,2.1c0,1.7,0,3.3,0,5
	c0,1,0.2,1-1,1C169.8,40.4,169.7,40.4,169.5,40.4z"/>
<path d="M184.9,58.3c-2,0.2-4-1.3-4.5-3.3c-0.6-2.1-0.5-4.1,0.9-5.8c1.6-2.1,4.6-2.1,6.3-1c0.8,0.6,1.3,1.4,1.5,2.4
	c0.1,0.4,0,0.6-0.5,0.6c-0.9,0-0.9,0.1-1.2-0.7c-0.7-2.1-3.2-2.1-4.5-1c-0.7,0.6-1.1,1.4-1.3,2.2c-0.3,1.3-0.2,2.6,0.5,3.7
	c0.7,1.2,1.7,1.7,3.1,1.5c1.3-0.2,2-1,2.3-2.2c0.1-0.5,0.9-0.9,1.4-0.6c0.2,0.1,0.1,0.4,0.1,0.6c-0.2,2-1.9,3.5-3.9,3.5
	C185.1,58.3,185,58.3,184.9,58.3z"/>
<path d="M256.4,51.1c-0.3,0.2-0.6,0.1-0.9,0.1c-0.4,0-0.5-0.1-0.7-0.5c-0.7-2-3.2-2.6-4.7-1c-0.5,0.5-0.8,1-1,1.7
	c-0.4,1.4-0.3,2.8,0.4,4.1c0.7,1.2,1.7,1.7,3.1,1.5c1.2-0.2,1.9-0.9,2.3-2.1c0.1-0.3,0-0.7,0.6-0.7c1-0.1,1.2,0.1,0.9,1.1
	c-0.5,1.8-1.7,2.9-3.3,3.1c-2.5,0.3-4.1-0.7-5-2.4c-1-2-1-4,0.1-6c1.5-2.9,5-2.8,6.7-1.7C255.8,48.8,256.4,49.8,256.4,51.1z"/>
<path d="M207.5,31.6c-0.4-0.2-0.8-0.1-1.2-0.1c-0.5,0-0.5-0.3-0.5-0.7c0-0.4,0.1-0.7,0.6-0.7c0.4,0,0.9,0.2,1.1-0.1
	c0.3-0.3,0.2-0.8,0.2-1.3c0-0.4,0-0.7,0.2-1.1c0.3-0.7,0.8-1.2,1.6-1.3c0.4-0.1,0.8,0,1.2,0c0.5,0,0.7,0.2,0.7,0.7
	c0,0.7,0,0.7-0.8,0.6c-1-0.1-1.4,0.2-1.4,1.3c0,0.4-0.4,0.9,0,1.2c0.3,0.3,0.8,0.1,1.2,0.1c0.7,0,0.7,0.1,0.7,0.8
	c0,0.5-0.2,0.6-0.6,0.6c-0.2,0-0.4,0-0.7,0c-0.2,0-0.4,0-0.8,0c0,0.3,0,0.6,0,0.9c0,2.5,0,4.9,0,7.4c0,0.2,0.1,0.6-0.2,0.7
	c-0.4,0.1-0.8,0.1-1.1,0c-0.2-0.1-0.2-0.4-0.2-0.6c0-1.7,0-3.3,0-5C207.5,33.7,207.5,32.6,207.5,31.6z"/>
<path d="M180.6,35.3c0-1.1,0-2.2,0-3.3c0-0.4-0.1-0.6-0.5-0.5c-0.2,0-0.3,0-0.5,0c-0.2,0-0.5,0.1-0.7-0.1c-0.2-0.3-0.1-0.7,0-1
	c0-0.2,0.3-0.2,0.5-0.2c0.4,0,0.9,0.2,1.2-0.1c0.3-0.3,0.1-0.8,0.1-1.3c0-0.3,0-0.6,0-0.8c0-0.8,0-0.8,0.8-0.7c0.7,0,0.7,0,0.7,0.7
	c0,0.6,0,1.2,0,1.8c0,0.4,0.2,0.5,0.6,0.5c0.3,0,0.7,0,1,0c0.5,0,0.5,0.3,0.5,0.6c0,0.4,0,0.7-0.5,0.7c-0.4,0-0.8,0-1.1,0
	c-0.3,0-0.4,0.1-0.4,0.4c0,2.1,0,4.3,0,6.4c0,0.7,0.2,0.9,0.9,0.9c0.2,0,0.3,0,0.5,0c0.4-0.1,0.7,0,0.7,0.5c0,0.4-0.1,0.7-0.6,0.7
	c-0.7,0.1-1.3,0-1.9-0.2c-0.7-0.2-1-0.9-1-1.6C180.6,37.6,180.6,36.4,180.6,35.3C180.6,35.3,180.6,35.3,180.6,35.3z"/>
<path d="M223.6,49.3c0.8-1.1,1.8-1.6,3-1.7c0.3,0,0.6-0.1,0.6,0.2c0.1,0.4,0.1,0.8-0.1,1.2c-0.1,0.1-0.3,0.1-0.4,0.1
	c-2.1,0.3-3.2,1.5-3.2,3.6c0,1.5,0,3.1,0,4.6c0,0.3,0.1,0.6-0.2,0.7c-0.4,0.1-0.7,0.1-1.1,0c-0.1,0-0.2-0.2-0.2-0.3
	c0-0.1,0-0.3,0-0.4c0-3,0-5.9,0-8.9c0-0.2-0.1-0.6,0.2-0.7c0.3-0.1,0.7-0.1,1.1,0c0.2,0,0.2,0.2,0.2,0.4
	C223.5,48.5,223.4,48.9,223.6,49.3z"/>
<path d="M222.7,40.4c0-3,0-5.8,0-8.7c0-0.3,0-0.7,0-1c0-0.6,0.3-0.5,0.7-0.5c0.4,0,0.7-0.1,0.7,0.5c0,0.3-0.1,0.6,0.1,0.9
	c0.3,0,0.4-0.3,0.6-0.5c0.6-0.6,1.4-0.9,2.2-1.1c0.7-0.1,0.8,0,0.8,0.7c0,0.1,0,0.3,0,0.4c0,0.3-0.1,0.4-0.4,0.4
	c-0.6,0-1.1,0.2-1.6,0.4c-1.1,0.6-1.6,1.6-1.7,2.9c0,1.6,0,3.1,0,4.7c0,0.9,0,0.9-0.9,0.9C223.2,40.4,223,40.4,222.7,40.4z"/>
<path d="M174.9,51c0,2.1,0,4.1,0,6.2c0,0.3,0.1,0.6-0.2,0.8c-0.3,0.2-0.7,0.1-1.1,0c-0.1,0-0.2-0.2-0.2-0.3c0-0.2,0-0.4,0-0.6
	c0-4.1,0-8.3,0-12.4c0-0.1,0-0.3,0-0.4c0-0.3,0.1-0.5,0.5-0.4c0.1,0,0.3,0,0.4,0c0.7,0,0.7,0,0.7,0.7
	C174.9,46.8,174.9,48.9,174.9,51C174.9,51,174.9,51,174.9,51z"/>
<path d="M200.8,51c0-2.1,0-4.3,0-6.4c0-0.2-0.1-0.6,0.2-0.6c0.4-0.1,0.8-0.1,1.2,0.1c0.1,0,0.1,0.2,0.1,0.2c0,0.2,0,0.4,0,0.6
	c0,4.1,0,8.2,0,12.3c0,0.2,0,0.4,0,0.6c0,0.3-0.2,0.4-0.4,0.4c-0.9,0.2-1.1,0-1.1-0.9C200.8,55.1,200.8,53.1,200.8,51
	C200.8,51,200.8,51,200.8,51z"/>
<path d="M187,31.7c0.9-1,1.8-1.6,3.1-1.7c0.2,0,0.6-0.1,0.7,0.2c0.1,0.4,0.1,0.8,0,1.2c-0.1,0.1-0.2,0.1-0.3,0.1
	c-2.3,0.1-3.4,1.9-3.4,3.9c0.1,1.6,0,3.2,0,4.8c0,0.1,0,0.1-0.1,0.2c-1.4,0.2-1.4,0.2-1.4-1.1c0-2.8,0-5.5,0-8.3
	c0-0.8,0.4-1,1.1-0.8c0.2,0.1,0.3,0.2,0.3,0.4C187,30.9,187,31.3,187,31.7z"/>
<path d="M59.8,0.3c-3.9,0-7.8,0-11.7,0c-0.7,0-0.7,0-0.7,0.9c0,5.8,0,11.6,0,17.4c0,17.4,0,34.8,0,52.1c0,0.2,0,0.3,0,0.5
	c0,0.9,0,0.9,0.9,0.9c3.7,0,7.3,0,11,0c0,0.1,0,0.1,0,0.2c-3.8,0-7.6,0-11.4,0c-0.6,0-0.7,0-0.7-0.7c0-1.1,0-2.3,0-3.4
	c0-22.3,0-44.6,0-67C47.2-0.1,47,0,48.4,0c3.6,0,7.2,0,10.8,0c0.3,0,0.7-0.2,0.9,0.3C60,0.3,59.9,0.3,59.8,0.3z"/>
<path d="M177,52.9c0-1.5,0-3,0-4.4c0-0.7,0-0.7,0.7-0.8c0.7,0,0.8,0,0.8,0.7c0,3,0,6,0,8.9c0,0.2,0.1,0.6-0.2,0.7
	c-0.4,0.1-0.8,0.1-1.1,0c-0.3-0.1-0.2-0.4-0.2-0.7C177,55.9,177,54.4,177,52.9C177,52.9,177,52.9,177,52.9z"/>
<path d="M160.2,52.9c0,1.4,0,2.9,0,4.3c0,0.3,0.1,0.6-0.2,0.8c-0.3,0.1-0.8,0.1-1.1,0c-0.3-0.1-0.2-0.5-0.2-0.8c0-2.1,0-4.1,0-6.2
	c0-0.9,0-1.8,0-2.7c0-0.6,0.1-0.6,0.8-0.6c0.4,0,0.7,0,0.7,0.6C160.1,49.9,160.2,51.4,160.2,52.9z"/>
<path d="M270,53c0,1.5,0,3,0,4.5c0,0.2,0,0.6-0.3,0.6c-0.4,0-0.8,0.1-1.1-0.1c-0.2-0.1-0.1-0.4-0.1-0.6c0-1.4,0-2.8,0-4.1
	c0-1.6,0-3.1,0-4.7c0-0.7,0.1-0.8,0.8-0.8c0.7,0,0.7,0,0.7,0.8C270,50,270,51.5,270,53z"/>
<path d="M44.5,34.1c-0.2-0.1-0.3-0.2-0.3-0.4c-0.6-2.5-1.7-4.7-3.2-6.8c-0.6-0.8-1.3-1.4-2-2.1c-0.9-0.9-1.7-1.8-2.8-2.5
	c-1-0.6-2-1.2-3.2-1.7c-0.5-0.2-1-0.3-1.3-0.8c2.6,0.8,5,2.2,7,4.1c3,2.7,4.9,6.1,5.8,10C44.5,34,44.5,34.1,44.5,34.1z"/>
<path d="M15.7,58.5c-0.4,0-0.5-0.4-0.6-0.6c-1.3-2.1-1.7-4.5-2.1-6.9c-0.4-2.1-0.4-4.2-0.4-6.3c0.1-1.2,0.3-2.5,0.4-3.7
	c0-0.2,0.1-0.5,0.3-0.7c-0.1,1.2-0.3,2.4-0.4,3.6c-0.2,1.5-0.1,3.1,0,4.6c0.1,1.5,0.3,3,0.7,4.5C14,55,14.8,56.8,15.7,58.5z"/>
<path d="M59.8,0.3c0.1,0,0.2,0,0.2,0c0,0.4,0,0.8,0,1.1c0,7.6,0,15.3,0,22.9c0,0.4,0,0.8,0,1.2c-0.1,0.1-0.3,0.1-0.3-0.1
	c0-0.3,0-0.6,0-0.8c0-7.7,0-15.5,0-23.2C59.8,1.1,59.8,0.7,59.8,0.3z"/>
<path d="M27.1,61.9c-0.2,0.6-0.9,0.6-1.3,0.7c-1.7,0.4-3.4,0.4-5.1,0c-1.2-0.3-2.4-0.8-3.3-1.8c-0.3-0.4-0.7-0.7-1.1-1.1
	c-0.3-0.3-0.5-0.6-0.5-1.1c0.5,0.5,0.9,1,1.4,1.5c2.1,2.2,4.6,2.7,7.5,2.4C25.5,62.4,26.3,62.1,27.1,61.9z"/>
<path d="M75.5,18.6c-2.2-0.2-4.3,0.4-6.4,0.9c-1.8,0.4-3.3,1.4-4.9,2.3c-0.1,0.1-0.2,0.2-0.4,0.2c-0.1,0-0.2,0-0.3,0
	c1.4-1.3,3.1-2,4.9-2.6c2.3-0.8,4.6-1,7-0.9C75.5,18.5,75.5,18.6,75.5,18.6z"/>
<path d="M88.2,66.1c-0.1-0.5,0.2-0.9,0.5-1.3c1.1-1.7,2-3.5,2.6-5.5c0.4-1.2,0.9-2.3,1.1-3.5c0-0.1,0.2-0.2,0.3-0.2
	c-0.5,2.3-1.3,4.6-2.3,6.7C89.8,63.7,89.2,65,88.2,66.1z"/>
<path d="M158.6,45c0-0.1,0-0.1,0-0.2c0-0.8,0.4-1.1,1.2-0.9c0.2,0.1,0.3,0.2,0.3,0.4c0,0.4,0,0.9,0,1.3c0,0.3-0.1,0.5-0.5,0.5
	C158.7,46.3,158.6,46.2,158.6,45z"/>
<path d="M178.5,45.1c0,0.1,0,0.3,0,0.4c0,0.8,0,0.8-0.8,0.8c-0.7,0-0.7,0-0.7-0.7c0-0.3,0-0.6,0-0.9c0-0.5,0.1-0.7,0.6-0.7
	c0.9,0,0.9,0,0.9,0.9C178.5,44.9,178.5,45,178.5,45.1z"/>
<path d="M268.5,45.1c0-0.1,0-0.3,0-0.4c0-0.8,0-0.8,0.8-0.8c0.7,0,0.7,0,0.7,0.7c0,0.2,0,0.4,0,0.7c0,0.8-0.5,1.1-1.2,0.9
	c-0.3-0.1-0.3-0.4-0.3-0.6C268.5,45.4,268.5,45.2,268.5,45.1z"/>
<path d="M44.9,54.9c-0.3-0.3-0.1-0.6-0.1-1c0.4-1.7,0.4-1.7-1.3-1.7c-3.5,0-7,0-10.5,0c0.1-0.3,0.4-0.2,0.6-0.2c3.7,0,7.4,0,11.1,0
	c0.7,0,0.7,0,0.6,0.7C45.2,53.5,45,54.2,44.9,54.9z"/>
<path d="M75.5,18.6c0,0,0-0.1,0-0.1c1.3-0.1,2.6,0.3,3.9,0.7c1.2,0.4,2.3,0.9,3.4,1.6c0.3,0.2,0.7,0.2,0.7,0.7
	c-0.9-0.3-1.7-0.8-2.5-1.3c-1.1-0.6-2.4-0.8-3.6-1.2C76.7,18.8,76.1,19,75.5,18.6z"/>
<path d="M33,52.3c0.1,1-0.1,1.9-0.4,2.8c-0.5,1.4-0.8,2.8-1.8,4c-0.3,0.4-0.5,0.9-1.1,0.9c1.8-2.2,2.8-4.7,3.2-7.5
	C32.9,52.5,32.9,52.4,33,52.3z"/>
<path d="M91,31.5c-0.6-0.4-0.7-1-0.9-1.6c-0.4-1.2-1.2-2.2-1.9-3.3c-0.2-0.3-0.5-0.6-0.4-1c0.5,0.3,0.7,0.8,1,1.2
	c0.8,1.2,1.4,2.5,2,3.8C90.9,30.9,91.1,31.2,91,31.5z"/>
<path d="M93.4,50.3c-0.1-0.2-0.1-0.4-0.1-0.6c-0.1-2.2-0.1-4.3,0-6.5c0.1,0,0.1,0,0.2,0c0.3,1.9,0.2,3.8,0.1,5.7
	C93.5,49.4,93.5,49.8,93.4,50.3z"/>
<path d="M93.5,43.2c-0.1,0-0.1,0-0.2,0c-0.1-1.9-0.4-3.7-0.7-5.5c0-0.3-0.2-0.7,0.1-0.9C93.3,38.9,93.5,41,93.5,43.2z"/>
<path d="M92.7,55.3c-0.3-0.2-0.3-0.4-0.2-0.7c0.3-1.2,0.5-2.4,0.6-3.7c0-0.2,0.1-0.3,0.3-0.4C93.4,52.2,93.1,53.8,92.7,55.3z"/>
<path d="M63.6,22c0.1,0,0.2,0,0.3,0c-0.8,0.9-1.5,1.8-2.6,2.5c0.2-0.7,0.7-1,1.1-1.5C62.8,22.6,63.2,22.3,63.6,22z"/>
<path d="M87.2,24.9c-0.2,0-0.3,0-0.4-0.1c-0.8-0.8-1.7-1.6-2.4-2.5c0.1,0,0.2,0,0.3,0C85.7,22.9,86.6,23.8,87.2,24.9z"/>
<path d="M92.3,35.5c-0.2-0.1-0.2-0.3-0.3-0.5c-0.3-0.8-0.6-1.6-0.9-2.4C91,32.2,91,31.8,91,31.5c0.5,0.4,0.5,0.9,0.7,1.4
	C92,33.7,92.3,34.5,92.3,35.5z"/>
<path d="M43.4,60.1c0-0.3,0-0.7,0.1-1c0.2-0.7,0.5-1.4,0.7-2.2c0-0.2,0.1-0.4,0.4-0.5C44.3,57.7,44,59,43.4,60.1z"/>
<path d="M59.3,72.3c0-0.1,0-0.1,0-0.2c0-1.6,0-3.3,0-4.9c0-0.2,0-0.5,0-0.7c0,0,0,0,0.1,0c0,0,0.1,0,0.1,0c0,1.7,0,3.3,0,5
	C59.5,71.7,59.7,72.1,59.3,72.3z"/>
<path d="M41.3,64.4c0.2-1,0.5-1.9,1.3-2.5C42.3,62.8,41.9,63.6,41.3,64.4z"/>
<path d="M84.9,69.5c0.5-0.7,1.1-1.3,1.8-1.8c0,0.1,0,0.2,0,0.3c-0.4,0.6-0.9,1.1-1.5,1.5C85.1,69.5,85,69.5,84.9,69.5z"/>
<path d="M72.1,73.6C72.1,73.6,72.2,73.5,72.1,73.6c1.5-0.2,2.9-0.3,4.3,0C75,73.7,73.6,73.6,72.1,73.6z"/>
<path d="M79,72.9c0.7-0.5,1.5-0.9,2.5-1C80.7,72.5,79.9,72.8,79,72.9z"/>
<path d="M40.1,66.1c0.1-0.7,0.4-1.3,1.1-1.5C40.9,65.2,40.6,65.7,40.1,66.1z"/>
<path d="M65.9,71.9c0.8,0,1.5,0.4,2.2,0.8C67.2,72.7,66.5,72.4,65.9,71.9z"/>
<path d="M8.4,24.1c-0.1,0.6-0.5,1-1.1,1.1C7.6,24.8,7.9,24.4,8.4,24.1z"/>
<path d="M86.7,68c0-0.1,0-0.2,0-0.3c0.2-0.4,0.4-0.8,1-0.8C87.5,67.3,87.1,67.6,86.7,68z"/>
<path d="M64.4,71.2c0.6,0,1.1,0.4,1.5,0.8C65.2,71.9,64.8,71.6,64.4,71.2z"/>
<path d="M61.5,68.7c0.6,0.3,1,0.8,1.3,1.3C62.2,69.8,61.7,69.4,61.5,68.7z"/>
<path d="M42.7,61.9c0-0.5-0.1-1,0.5-1.2C43.1,61.2,42.9,61.6,42.7,61.9z"/>
<path d="M82.8,71.2c0.1-0.6,0.5-0.9,1.1-0.8C83.7,70.8,83.3,71.1,82.8,71.2z"/>
<path d="M84.9,69.5c0.1,0,0.2,0,0.3,0c-0.2,0.4-0.6,0.6-0.9,0.8C84.2,69.8,84.5,69.6,84.9,69.5z"/>
<path d="M28.3,61.3c-0.1,0.6-0.6,0.6-1.1,0.6C27.5,61.6,27.9,61.5,28.3,61.3z"/>
<path d="M81.9,71.8c0.1-0.5,0.5-0.6,0.9-0.6C82.6,71.5,82.3,71.6,81.9,71.8z"/>
<path d="M87.6,66.8c0-0.4,0.1-0.8,0.6-0.8C88.1,66.4,87.9,66.6,87.6,66.8z"/>
<path d="M39.3,67c0-0.4,0.2-0.7,0.6-0.7C39.7,66.6,39.5,66.9,39.3,67z"/>
<path d="M37.2,69c0-0.4,0.3-0.6,0.7-0.6C37.8,68.6,37.5,68.9,37.2,69z"/>
<path d="M84,21.8c-0.3,0-0.5-0.1-0.6-0.4C83.8,21.4,84,21.5,84,21.8z"/>
<path d="M92.6,36.2c-0.3-0.2-0.2-0.5-0.2-0.8C92.6,35.6,92.5,36,92.6,36.2z"/>
<path d="M8.9,23.6C9,24,8.7,24.1,8.4,24.1C8.5,23.9,8.7,23.7,8.9,23.6z"/>
<path d="M63.2,70.4c0.3,0,0.5,0.1,0.6,0.4C63.5,70.8,63.3,70.7,63.2,70.4z"/>
<path d="M44.6,56.5c0-0.3-0.1-0.6,0.2-0.8C44.7,55.9,44.8,56.2,44.6,56.5z"/>
<path d="M7.3,25.2c0,0.3-0.1,0.6-0.5,0.5C6.9,25.5,7.1,25.3,7.3,25.2z"/>
<path d="M63.8,70.8c0.3,0,0.5,0.1,0.6,0.4C64.1,71.2,63.9,71.1,63.8,70.8z"/>
<path d="M70.6,73.4c0.3-0.3,0.5-0.2,0.7,0C71.1,73.4,70.9,73.4,70.6,73.4z"/>
<path d="M29.2,60.6c0,0.3-0.2,0.4-0.4,0.3C28.9,60.7,29,60.6,29.2,60.6z"/>
<path d="M6.3,26.3c0,0.2-0.1,0.4-0.3,0.4C6,26.5,6.1,26.4,6.3,26.3z"/>
<path d="M84.4,22c-0.2,0-0.3,0-0.4-0.2C84.2,21.8,84.3,21.8,84.4,22z"/>
<path d="M87.4,25.3c-0.2-0.1-0.2-0.2-0.2-0.4c0.1,0,0.2,0.1,0.2,0.2C87.4,25.1,87.4,25.2,87.4,25.3z"/>
<path d="M87.4,25.3c0-0.1,0-0.2,0-0.2c0.2,0.1,0.3,0.2,0.2,0.4C87.5,25.4,87.5,25.4,87.4,25.3z"/>
<path d="M28.6,61.1c0,0.2-0.2,0.3-0.3,0.3C28.3,61.2,28.4,61.1,28.6,61.1z"/>
<path d="M29.5,60.3c0,0.2-0.1,0.3-0.3,0.3C29.3,60.4,29.4,60.4,29.5,60.3z"/>
<path d="M37,69.2c0-0.1,0.1-0.2,0.2-0.2C37.2,69.1,37.1,69.1,37,69.2z"/>
<path d="M36.8,69.3c0-0.1,0.1-0.2,0.2-0.2C37,69.3,36.9,69.3,36.8,69.3z"/>
<path d="M61.3,68.5c0.1,0,0.2,0.1,0.2,0.2C61.4,68.8,61.3,68.7,61.3,68.5z"/>
<path d="M36.6,69.5c0-0.1,0.1-0.2,0.2-0.2C36.8,69.4,36.7,69.5,36.6,69.5z"/>
<path d="M36.4,69.7c0-0.1,0.1-0.2,0.2-0.2C36.6,69.6,36.5,69.7,36.4,69.7z"/>
<path d="M61.3,24.5c0,0.1-0.1,0.2-0.2,0.2C61.2,24.6,61.2,24.5,61.3,24.5z"/>
<path d="M61.1,68.3c0.1,0,0.2,0.1,0.2,0.2C61.2,68.5,61.1,68.5,61.1,68.3z"/>
<path d="M62.8,70c0.1,0,0.2,0.1,0.2,0.2C62.9,70.2,62.8,70.2,62.8,70z"/>
<path d="M63,70.2c0.1,0,0.2,0.1,0.2,0.2C63.1,70.4,63,70.4,63,70.2z"/>
<path d="M9.1,23.5c0,0.1-0.1,0.2-0.2,0.2C8.9,23.5,9,23.5,9.1,23.5z"/>
<path d="M84.6,22.2c-0.1,0-0.2,0-0.3,0c0-0.1,0-0.1,0-0.2C84.5,22,84.6,22.1,84.6,22.2z"/>
<path d="M9.3,23.3c0,0.1-0.1,0.2-0.2,0.2C9.1,23.4,9.2,23.3,9.3,23.3z"/>
<path d="M9.5,23.1c0,0.1-0.1,0.2-0.2,0.2C9.3,23.2,9.4,23.1,9.5,23.1z"/>
<path d="M9.9,22.8c0,0.1-0.1,0.2-0.2,0.2C9.7,22.8,9.8,22.8,9.9,22.8z"/>
<path d="M9.7,22.9c0,0.1-0.1,0.2-0.2,0.2C9.5,23,9.6,22.9,9.7,22.9z"/>
<path d="M6.5,26.1c0,0.1-0.1,0.2-0.2,0.2C6.3,26.2,6.4,26.1,6.5,26.1z"/>
<path d="M43.2,60.7c0-0.1,0-0.2,0.1-0.3C43.4,60.5,43.3,60.6,43.2,60.7z"/>
<path d="M29.7,60.1c0,0.1,0,0.2-0.2,0.2C29.5,60.2,29.6,60.1,29.7,60.1z"/>
<path d="M28.8,60.9c0,0.1-0.1,0.2-0.2,0.2C28.6,61,28.7,60.9,28.8,60.9z"/>
<path d="M87.8,25.6c-0.1,0-0.2-0.1-0.2-0.2C87.8,25.4,87.8,25.5,87.8,25.6z"/>
<path d="M41.2,64.6c0-0.1,0.1-0.2,0.2-0.2C41.3,64.5,41.3,64.6,41.2,64.6z"/>
<path d="M39.9,66.3c0-0.1,0-0.2,0.2-0.2C40.1,66.2,40,66.3,39.9,66.3z"/>
<path d="M6.8,25.7c0,0.2,0,0.2-0.2,0.2C6.7,25.8,6.8,25.8,6.8,25.7z"/>
<path d="M61,24.9c-0.1,0.1-0.1,0.1-0.2,0.2C60.9,25,60.9,24.9,61,24.9z"/>
<path d="M39.1,67.2c0-0.1,0.1-0.2,0.2-0.2C39.3,67.1,39.2,67.2,39.1,67.2z"/>
<path d="M38.9,67.4c0-0.1,0.1-0.2,0.2-0.2C39.1,67.3,39,67.4,38.9,67.4z"/>
<path d="M38.7,67.6c0-0.1,0.1-0.2,0.2-0.2C38.9,67.5,38.8,67.6,38.7,67.6z"/>
<path d="M38.5,67.8c0-0.1,0.1-0.2,0.2-0.2C38.7,67.7,38.6,67.8,38.5,67.8z"/>
<path d="M38.3,68c0-0.1,0.1-0.2,0.2-0.2C38.5,67.9,38.4,68,38.3,68z"/>
<path d="M6.6,25.9c0,0.1,0,0.2-0.2,0.2C6.5,26,6.5,26,6.6,25.9z"/>
<path d="M38.1,68.2c0-0.1,0.1-0.2,0.2-0.2C38.3,68.1,38.2,68.2,38.1,68.2z"/>
<path d="M37.9,68.4c0-0.1,0.1-0.2,0.2-0.2C38.1,68.3,38,68.3,37.9,68.4z"/>
<path d="M60.9,68.1c0.1,0,0.2,0.1,0.3,0.2C61,68.3,60.9,68.2,60.9,68.1z"/>
<path d="M61.2,24.7c-0.1,0.1-0.1,0.1-0.2,0.2C61,24.8,61,24.7,61.2,24.7z"/>
<path d="M244.7,68.6c-0.2-0.2-0.5-0.3-0.8-0.4c-2.1-0.2-4.3-0.3-6.4-0.5c-2.4-0.2-4.8-0.3-7.2-0.4c-4.1-0.2-8.2-0.4-12.3-0.5
	c-1.7-0.1-3.4-0.1-5.1-0.1c-5.1,0-10.3-0.1-15.4,0.1c-2.5,0.1-5,0.2-7.4,0.3c-3.2,0.2-6.4,0.4-9.6,0.7c-2,0.2-4,0.4-6,0.6
	c-3.2,0.3-6.4,0.8-9.5,1.2c-4.4,0.7-8.8,1.5-13.2,2.4c-7.6,1.7-15.1,3.7-22.4,6.5c-6.4,2.5-12.4,5.5-18,9.4
	c-1.2,0.9-2.4,1.8-3.5,2.6c-0.1-0.1-0.1-0.1-0.1-0.1c0-0.1-0.1-0.2-0.1-0.4c0-0.3-0.1-0.6-0.1-0.9c0-7.6,0-15.2,0-22.9
	c0,0,0-0.1,0-0.1c0.1-0.1,0.1,0.1,0.1,0c0.1,0.2,0.2,0.4,0.4,0.5c1.7,2.4,3.8,4.3,6.6,5.5c2,0.9,4,1.3,6.2,1.4
	c2.4,0,4.7-0.2,6.9-1.1c3.8-1.5,6.6-4,8.8-7.4c3.2-4.8,4.4-10.2,4.8-15.9c0.2-3.8,0-7.6-0.7-11.4c-0.8-3.9-2.1-7.7-4.3-11.1
	c-2.2-3.3-5.1-5.8-8.8-7.2c-3-1.2-6.2-1.5-9.4-1c-3.7,0.5-6.8,2-9.3,4.9c-0.7,0.8-1.3,1.7-1.9,2.7c0-0.4,0-0.6,0-0.7
	c0-1.6,0-3.3,0-4.9c0-0.7,0-0.7-0.7-0.7c-0.2,0-0.4,0-0.6,0c-3.2,0-6.5,0-9.7,0c-1.5,0-1.2-0.1-1.2,1.2c0,21.6,0,43.2,0,64.8
	c0,1.3-0.4,2.6-0.6,3.9c-1.2-0.5-2.3-1-3.4-1.5C85,86,79.2,84.3,73.4,82.8c-3.7-1-7.5-1.8-11.3-2.5c-4.3-0.8-8.6-1.5-12.9-2
	c-3-0.4-6-0.7-9-1c-4.2-0.4-8.5-0.6-12.7-0.8c-3.1-0.1-6.2-0.1-9.3-0.2c-2.4,0-4.7,0.1-7.1,0.1c-0.3,0-0.5,0-0.9,0.1
	c0.5,1,1,1.9,1.5,2.7c0.5,0.7,1.1,1,1.9,0.8c0.4-0.1,0.9-0.1,1.3-0.1c3.8,0,7.7-0.1,11.5,0.1c2.2,0.1,4.3,0.1,6.5,0.3
	c1,0.1,2,0.1,3,0.2c2,0.2,4,0.3,6,0.5c1.8,0.1,3.5,0.3,5.3,0.5c2.3,0.3,4.5,0.6,6.8,0.8c3.7,0.4,7.3,1,11,1.6
	c4,0.7,7.9,1.5,11.9,2.5c10,2.6,19.5,6.2,28.3,11.9c0.6,0.4,0.8,0.4,1.3-0.3c1.1-1.4,2.3-2.6,3.7-3.8c2.4-2,5-3.7,7.7-5.3
	c5.4-3.1,11-5.8,16.9-7.9c4.7-1.7,9.6-3.2,14.5-4.4c5.5-1.4,11.2-2.4,16.8-3.3c3.1-0.5,6.2-0.8,9.3-1.2c2.6-0.3,5.1-0.6,7.7-0.8
	c4-0.4,8.1-0.6,12.1-0.8c4.6-0.2,9.2-0.3,13.9-0.4c2,0,4.1,0,6.1,0.1c4.5,0.1,8.9,0.2,13.4,0.4c3,0.1,5.9,0.3,8.9,0.5
	c2.4,0.1,4.9,0.3,7.3,0.5c0.6,0.1,1.2,0.1,1.9,0C246.1,70.5,245.6,69.5,244.7,68.6z M106.9,45.5c0.1-2.8,0.4-5.6,1.3-8.2
	c0.8-2.4,2.1-4.6,4.2-6.1c1-0.7,2.1-1.2,3.3-1.4c4.4-0.8,7.5,0.7,9.8,4c1.4,2,2.1,4.2,2.5,6.5c0.4,2,0.6,4,0.5,5.6
	c0,3.4-0.2,6.3-1.2,9.2c-0.8,2.4-2,4.4-4.1,6c-1.2,0.9-2.7,1.4-4.2,1.6c-4.5,0.4-7.9-1.5-9.9-5.5c-1-1.9-1.5-4-1.8-6.1
	C107.1,49.2,106.8,47.3,106.9,45.5z"/>
<g>
	<polygon points="87.8,25.6 87.8,25.6 87.8,25.6 	"/>
	<polygon points="92.3,35.4 92.3,35.4 92.3,35.5 	"/>
	<polygon points="61.2,68.3 61.2,68.3 61.1,68.3 	"/>
	<polygon points="61.1,24.7 61.2,24.7 61.2,24.7 	"/>
	<polygon points="91,31.5 91,31.5 91,31.5 	"/>
	<polygon points="83.5,21.5 83.5,21.5 83.5,21.5 	"/>
	<polygon points="84,21.8 84,21.8 84,21.8 	"/>
	<polygon points="87.2,24.9 87.2,24.9 87.2,24.9 	"/>
	<polygon points="84.4,22 84.4,22 84.4,22 	"/>
	<polygon points="87.6,25.4 87.6,25.4 87.6,25.4 	"/>
	<polygon points="61.3,24.5 61.3,24.5 61.3,24.5 	"/>
	<polygon points="64.4,71.2 64.4,71.2 64.4,71.2 	"/>
	<polygon points="87.6,66.8 87.6,66.8 87.6,66.8 	"/>
	<polygon points="63.8,70.8 63.8,70.8 63.8,70.8 	"/>
	<polygon points="88.2,66.1 88.2,66.1 88.2,66.1 	"/>
	<path d="M93.4,50.3c-0.1-0.2-0.1-0.4-0.1-0.6c-0.1-2.2-0.1-4.3,0-6.5c-0.1-1.9-0.4-3.7-0.7-5.5c0-0.3-0.2-0.7,0.1-0.9
		c0-0.2,0-0.4-0.1-0.6c-0.3-0.2-0.2-0.5-0.2-0.8c-0.2-0.1-0.2-0.3-0.3-0.4c-0.3-0.8-0.6-1.6-0.9-2.4C91,32.2,91,31.8,91,31.5
		c-0.6-0.4-0.7-1-0.9-1.6c-0.4-1.2-1.2-2.2-1.9-3.3c-0.2-0.3-0.5-0.6-0.4-1c-0.1,0-0.2-0.1-0.2-0.2c-0.1,0-0.2-0.1-0.2-0.2
		c-0.2-0.1-0.2-0.2-0.2-0.4c-0.2,0-0.3,0-0.4-0.1c-0.8-0.8-1.7-1.6-2.4-2.5c0-0.1,0-0.1,0-0.2c-0.2,0-0.3,0-0.4-0.2
		c-0.3,0-0.5-0.1-0.6-0.4c-0.9-0.3-1.7-0.8-2.5-1.3c-1.1-0.6-2.4-0.8-3.6-1.2c-0.6-0.2-1.3,0-1.8-0.4c-2.2-0.2-4.3,0.4-6.4,0.9
		c-1.8,0.4-3.3,1.4-4.9,2.3c-0.1,0.1-0.2,0.2-0.4,0.2c-0.8,0.9-1.5,1.8-2.6,2.4c0,0.1-0.1,0.2-0.2,0.2c-0.1,0.1-0.1,0.1-0.2,0.2
		c0,0,0,0,0,0c-0.1,0.1-0.1,0.1-0.2,0.2c-0.3,0.2-0.4,0.5-0.7,0.6c-0.1,0.1-0.3,0.1-0.3-0.1c0-0.3,0-0.6,0-0.8c0-7.7,0-15.5,0-23.2
		c0-0.4,0-0.8,0-1.1c-3.9,0-7.8,0-11.7,0c-0.7,0-0.7,0-0.7,0.9c0,5.8,0,11.6,0,17.4c0,17.4,0,34.8,0,52.1c0,0.2,0,0.3,0,0.5
		c0,0.9,0,0.9,0.9,0.9c3.7,0,7.3,0,11,0c0-1.6,0-3.3,0-4.9c0-0.2,0-0.5,0-0.7c0,0,0,0,0.1,0c0,0,0.1,0,0.1,0c0.3,0,0.3,0.2,0.5,0.4
		c0.3,0.4,0.5,0.9,0.9,1.3c0.1,0,0.2,0.1,0.3,0.2c0.1,0,0.2,0.1,0.2,0.2c0.1,0,0.2,0.1,0.2,0.2c0.5,0.3,1,0.8,1.3,1.3
		c0.1,0,0.2,0.1,0.2,0.2c0.1,0,0.2,0.1,0.2,0.2c0.3,0,0.5,0.1,0.6,0.4c0.3,0,0.5,0.1,0.6,0.4c0.6,0,1.1,0.4,1.5,0.8l0,0
		c0.8,0,1.5,0.4,2.2,0.8c0.1,0.2,0.4,0.3,0.6,0.3c0.7,0.1,1.3,0.2,2,0.4c0.3-0.3,0.5-0.2,0.7,0c0.3,0.1,0.5,0.1,0.8,0.2
		c0,0,0-0.1,0.1-0.1c1.4-0.2,2.8-0.2,4.2,0c0.4-0.1,0.9-0.1,1.3-0.2c0.5-0.1,1-0.1,1.3-0.5c0.7-0.5,1.5-0.9,2.5-1
		c0.2,0,0.3-0.1,0.4-0.2c0.1-0.5,0.5-0.6,0.9-0.6c0,0,0,0,0,0c0.1-0.6,0.5-0.9,1.1-0.8c0.1,0,0.2,0,0.3-0.1c0-0.5,0.2-0.7,0.6-0.8
		c0.5-0.7,1.1-1.3,1.8-1.8c0.2-0.4,0.4-0.8,1-0.8c0-0.4,0.1-0.7,0.6-0.8c0-0.5,0.2-0.9,0.5-1.3c1.1-1.7,2-3.5,2.6-5.5
		c0.4-1.2,0.9-2.3,1.1-3.5c0-0.1,0.2-0.2,0.3-0.2c0-0.1,0-0.2,0-0.4c-0.3-0.2-0.3-0.4-0.2-0.7c0.3-1.2,0.5-2.4,0.6-3.7
		c0-0.2,0.1-0.3,0.3-0.4C93.4,50.5,93.4,50.4,93.4,50.3z M80.6,49.7c-0.3,0.4-0.2,1-0.2,1.4c0,0,0,0,0,0l0,0c0,0,0,0,0,0
		c-0.3,0.3-0.2,0.7-0.2,1.1c-0.4,0.7-0.5,1.4-0.5,2.2c-0.4,0.8-0.7,1.6-1,2.4l0,0c-0.7,0.8-1.1,1.7-1.7,2.6l0,0
		c-0.5,0.5-1.1,1-1.6,1.4c-1.3,1.1-2.8,1.6-4.5,1.7c-2.1,0.1-4-0.2-5.7-1.5c-0.1-0.1-0.3-0.2-0.4-0.1c0,0,0,0,0,0c0,0,0,0,0,0
		c0,0,0,0,0,0c0-0.1,0-0.1,0-0.2c-0.5-0.5-1-1.1-1.5-1.5c-0.1,0-0.1,0-0.2,0c0,0,0,0,0,0c0,0,0,0,0,0c0,0,0,0,0,0
		c0.1-0.1,0-0.2,0-0.3c-1.2-1.7-2-3.5-2.5-5.6c0-0.2-0.1-0.4-0.3-0.4c0.1-0.1,0.1-0.3,0-0.4c0-1.2-0.4-2.3-0.4-3.4
		c0-0.1,0-0.3,0-0.4c-0.2-2.7-0.1-5.4,0.4-8.1c0.1-0.5,0.3-0.9,0.2-1.4c0.3-0.9,0.6-1.7,0.8-2.6c0.4-1.2,1.1-2.2,1.6-3.3l0,0
		c1.4-1.5,2.9-2.9,4.9-3.6c0.3-0.1,0.6,0.1,0.8-0.2c1.1,0,2.2,0,3.3,0c0.3,0.3,0.6,0.2,1,0.2c0,0,0,0,0,0l0,0c0,0,0,0,0,0
		c0.5,0.5,1.2,0.5,1.7,0.8c0.1,0.2,0.2,0.3,0.5,0.3c0.4,0.3,0.7,0.8,1.2,1c0,0,0,0,0,0l0,0c0,0,0,0,0,0c0.2,0.4,0.4,0.8,0.9,0.9
		c0,0,0,0,0,0c0,0,0,0,0,0c0,0,0,0,0,0c0,0.1,0,0.1,0,0.2c0.1,0.2,0.2,0.4,0.4,0.4c0,0,0,0,0,0l0,0c0,0,0,0,0,0c0,0.2,0,0.3,0.2,0.4
		l0,0c0.1,0.3,0.2,0.7,0.6,0.8c0,0,0,0,0,0l0,0c0,0,0,0,0,0c-0.1,0.2,0,0.3,0.2,0.4c0,0,0,0,0,0c0,0,0,0,0,0c0,0,0,0,0,0
		c-0.1,0.2,0,0.3,0.2,0.4c0,0,0,0,0,0c0,0,0,0,0,0c0,0,0,0,0,0c0,0.2,0,0.3,0.2,0.4c0,0,0,0,0,0l0,0c0,0,0,0,0,0
		c0.1,0.8,0.4,1.5,0.8,2.1c0,0.8,0.2,1.5,0.5,2.2c0,0.3,0.1,0.6,0.1,0.9c0,0.2,0,0.3,0.1,0.4c0,0.3,0,0.6,0.1,0.9
		c0,0.2,0,0.3,0.1,0.4c0,0.6,0,1.2,0.1,1.9c0,1.1,0,2.2,0,3.3C80.6,48.4,80.6,49,80.6,49.7C80.6,49.7,80.6,49.7,80.6,49.7z"/>
	<polygon points="63,70.2 63,70.2 63,70.2 	"/>
	<polygon points="62.9,70 62.8,70 62.8,70 	"/>
	<polygon points="63.2,70.4 63.2,70.4 63.2,70.4 	"/>
	<polygon points="61.5,68.7 61.5,68.7 61.5,68.7 	"/>
	<polygon points="61.3,68.5 61.3,68.5 61.3,68.5 	"/>
</g>
<path d="M64.7,60.9c0.2-0.1,0.3,0,0.4,0.1c1.7,1.3,3.6,1.6,5.7,1.5c1.7-0.1,3.2-0.6,4.5-1.7c0.6-0.5,1.1-1,1.6-1.4
	c0.1,0.7-0.5,1-1,1.4c-1.2,1.1-2.7,1.8-4.4,2c-2.2,0.2-4.3,0.1-6.3-1.1C65.2,61.5,64.9,61.3,64.7,60.9z"/>
<path d="M60.2,52.9c0.2,0.1,0.3,0.2,0.3,0.4c0.5,2,1.3,3.9,2.5,5.6c0.1,0.1,0.1,0.2,0,0.4c-0.8-0.5-1.2-1.3-1.5-2.1
	c-0.4-1-0.9-1.9-1.2-3C60.3,53.8,60.2,53.4,60.2,52.9z"/>
<path d="M62.9,33.4c-0.5,1.1-1.3,2.1-1.6,3.3c-0.3,0.9-0.6,1.7-0.8,2.6c-0.2-0.2-0.2-0.5-0.1-0.7c0.5-1.7,1.1-3.3,2.1-4.8
	C62.4,33.5,62.6,33.4,62.9,33.4z"/>
<path d="M67.8,29.8c-2,0.6-3.5,2-4.9,3.6c0-0.2,0-0.4,0.1-0.5c1.3-1.6,2.8-2.9,4.9-3.3C67.8,29.7,67.8,29.7,67.8,29.8z"/>
<path d="M60.2,40.6c-0.5,2.7-0.6,5.4-0.4,8.1c-0.3-0.1-0.3-0.4-0.3-0.6c0-1.5-0.1-3,0-4.4c0-1,0.3-1.9,0.4-2.9
	C59.9,40.6,60,40.6,60.2,40.6z"/>
<path d="M77,59.4c0.6-0.8,1-1.8,1.7-2.6c-0.1,0.9-0.7,1.6-1.2,2.3C77.4,59.4,77.2,59.5,77,59.4z"/>
<path d="M59.8,49.1c0,1.2,0.4,2.3,0.4,3.4C59.8,51.4,59.4,50.3,59.8,49.1z"/>
<path d="M78.7,56.9c0.2-0.9,0.5-1.7,1-2.4C79.7,55.4,79.3,56.2,78.7,56.9z"/>
<path d="M79.7,37.8c-0.4-0.7-0.7-1.4-0.8-2.2C79.5,36.2,79.7,37,79.7,37.8z"/>
<path d="M74.6,30.6c-0.5-0.3-1.2-0.4-1.7-0.8C73.5,29.9,74.2,29.9,74.6,30.6z"/>
<path d="M77.2,32.8c-0.5-0.1-0.7-0.5-0.9-0.9C76.8,31.9,77.1,32.3,77.2,32.8z"/>
<path d="M76.3,31.9c-0.5-0.2-0.8-0.6-1.2-1C75.6,31,76.2,31.1,76.3,31.9z"/>
<path d="M80.7,44.5c0-0.6,0-1.2-0.1-1.9C81,43.2,80.9,43.9,80.7,44.5z"/>
<path d="M80.6,49.7c0-0.6,0-1.3,0.1-1.9C80.9,48.4,81,49.1,80.6,49.7z"/>
<path d="M78.3,34.5c-0.4-0.1-0.5-0.4-0.6-0.8C78.3,33.8,78.4,34.1,78.3,34.5z"/>
<path d="M80.4,51.1c0-0.5-0.1-1,0.2-1.4C80.6,50.2,80.8,50.7,80.4,51.1z"/>
<path d="M80.5,42.2c0-0.3,0-0.6-0.1-0.9c0.1,0,0.1,0,0.1,0C80.7,41.6,80.8,41.9,80.5,42.2z"/>
<path d="M80.2,52.3c0-0.4-0.1-0.8,0.2-1.2C80.4,51.5,80.6,52,80.2,52.3z"/>
<path d="M80.3,40.9c0-0.3-0.1-0.6-0.1-0.9C80.6,40.2,80.5,40.6,80.3,40.9z"/>
<path d="M72.9,29.8c-0.3,0-0.7,0.1-1-0.2C72.2,29.6,72.6,29.4,72.9,29.8z"/>
<path d="M67.8,29.8c0-0.1,0-0.1,0-0.2c0.3,0,0.5,0,0.8,0C68.4,29.9,68,29.7,67.8,29.8z"/>
<path d="M77.6,33.4c-0.2,0-0.3-0.2-0.4-0.4c0.1,0,0.2,0,0.3,0C77.6,33.1,77.6,33.2,77.6,33.4z"/>
<path d="M78.9,35.6c-0.2,0-0.2-0.2-0.2-0.4C78.9,35.3,78.9,35.5,78.9,35.6z"/>
<path d="M78.7,35.3c-0.2-0.1-0.3-0.2-0.2-0.4C78.7,34.9,78.7,35.1,78.7,35.3z"/>
<path d="M78.5,34.9c-0.2,0-0.3-0.2-0.2-0.4C78.5,34.6,78.5,34.7,78.5,34.9z"/>
<path d="M77.8,33.8c-0.2-0.1-0.2-0.2-0.2-0.4C77.8,33.4,77.8,33.6,77.8,33.8z"/>
<path d="M64.8,60.7c0,0.1,0,0.1,0,0.2C64.6,60.9,64.6,60.8,64.8,60.7z"/>
<path d="M63,59.2c0.1-0.1,0.1-0.1,0.2,0C63.2,59.4,63.1,59.4,63,59.2z"/>
<path d="M77.5,33c-0.1,0-0.2,0-0.3,0c0-0.1,0-0.1,0-0.2C77.3,32.9,77.4,32.9,77.5,33z"/>
<path d="M155.1,50.8c-0.1-0.1-0.3-0.1-0.4-0.3c0.1-0.1,0.2-0.1,0.3-0.2c1.3-0.9,1.7-2.2,1.4-3.6c-0.2-1.3-1.1-2-2.3-2.4
	c-0.4-0.1-0.9-0.3-1.4-0.3c-2.1,0-4.2,0-6.3,0c-0.5,0-0.6,0.2-0.6,0.7c0,4.2,0,8.5,0,12.7c0,0.7,0,0.8,0.8,0.8c1.9,0,3.8,0,5.8,0
	c0.8,0,1.6-0.2,2.4-0.5c1.6-0.6,2.2-1.8,2.3-3.5C157.1,52.6,156.5,51.5,155.1,50.8z M147.5,45.7c0-0.3,0.1-0.5,0.4-0.5
	c1.7,0.1,3.3-0.1,5,0.1c1.4,0.2,2,1.2,2,2.4c0,1.1-1,2-2.3,2.1c-0.4,0-0.8,0-1.2,0c-0.4,0-0.8,0-1.2,0c-0.7,0-1.4,0-2.2,0
	c-0.3,0-0.5-0.1-0.5-0.5C147.5,48.3,147.5,47,147.5,45.7z M155.3,55c-0.3,1-1.2,1.6-2.5,1.7c-0.8,0-1.6,0-2.5,0c0,0,0,0,0,0
	c-0.8,0-1.6,0-2.4,0c-0.4,0-0.5-0.1-0.5-0.5c0-1.4,0-2.8,0-4.2c0-0.3,0.1-0.5,0.5-0.5c1.7,0,3.3-0.1,5,0.1
	C154.9,51.7,155.9,53.1,155.3,55z"/>
<path d="M291.1,47.8c-1.3-0.1-1.3-0.1-1.4,1c0,0.1-0.1,0.1-0.2,0c-0.5-0.5-1-1.1-1.8-1.2c-2-0.4-3.8,0.3-4.9,2
	c-0.8,1.4-0.9,2.9-0.7,4.5c0.2,1.7,1.1,3.1,2.8,3.6c1.7,0.5,3.3,0.4,4.6-1c0,0,0.1-0.1,0.3-0.1c0.2,0.9,0,1.7-0.3,2.5
	c-0.2,0.7-0.7,1.1-1.3,1.4c-0.9,0.4-1.8,0.4-2.8,0.1c-0.7-0.3-1.2-0.7-1.4-1.5c-0.1-0.3-0.8-0.5-1.3-0.3c-0.4,0.2-0.3,0.5-0.2,0.8
	c0.3,0.9,0.8,1.5,1.7,1.9c1.5,0.7,3,0.8,4.5,0.3c1.1-0.4,1.9-1.1,2.3-2.2c0.2-0.6,0.3-1.2,0.3-1.8c0-3.1,0-6.2,0-9.3
	C291.2,48.2,291.2,48,291.1,47.8z M289,55.3c-1.2,1.8-3.7,1.8-4.9,0c-0.4-0.6-0.6-1.5-0.6-2.8c0-0.9,0.2-2,1.1-2.9
	c1.3-1.3,3.5-1.2,4.5,0.4C290,51.6,290.1,53.7,289,55.3z"/>
<path d="M171.4,50.6c-1.1-3.3-4.9-4.2-7.4-1.8c-0.1,0.1-0.1,0.1-0.3,0c0-0.1,0-0.3,0-0.4c0-1.3,0-2.6,0-3.9c0-0.4-0.1-0.6-0.5-0.6
	c-0.2,0-0.3,0-0.5,0c-0.4,0-0.5,0.1-0.5,0.5c0,0.2,0,0.3,0,0.5c0,4.1,0,8.1,0,12.2c0,0.2,0,0.4,0,0.7c0,0.2,0.1,0.3,0.2,0.4
	c0.6,0.3,1.1-0.1,1.2-0.8c0-0.1-0.1-0.3,0.1-0.4c0.2,0,0.2,0.1,0.3,0.2c1.8,2,6.1,1.8,7.3-1.6C171.9,53.8,171.9,52.2,171.4,50.6z
	 M169.7,55.4c-1,2.1-4.1,2-5.2,0.3c-0.6-0.9-0.7-1.8-0.7-2.9c0-0.9,0.1-1.7,0.6-2.4c0.6-1.1,1.6-1.6,2.9-1.6c1.2,0,2.1,0.7,2.6,1.8
	C170.5,52.2,170.4,53.8,169.7,55.4z"/>
<path d="M220.1,46.1c-0.6-1.5-1.9-2.2-3.5-2.2c-2,0-4,0-5.9,0c-0.7,0-0.7,0-0.7,0.7c0,2.1,0,4.2,0,6.3c0,2.1,0,4.2,0,6.2
	c0,0.9,0,0.9,0.9,0.9c0.8,0,0.8,0,0.8-0.9c0-1.4,0-2.8,0-4.2c0-0.9,0-0.8,0.8-0.8c1.4,0,2.8,0,4.2,0c1.2,0,2.2-0.4,3-1.3
	C220.7,49.3,220.8,47.7,220.1,46.1z M216.9,50.6c-1.6,0.3-3.3,0.1-5,0.1c-0.3,0-0.3-0.2-0.3-0.4c0-0.8,0-1.6,0-2.4
	c0-0.7,0-1.4,0-2.2c0-0.3,0.1-0.5,0.4-0.5c1.6,0.1,3.3-0.2,4.9,0.2c1.3,0.3,2.1,1.1,2.1,2.6C218.9,49.7,218,50.4,216.9,50.6z"/>
<path d="M246.4,56.7c-0.6,0-0.6-0.3-0.6-0.8c0-1.8,0-3.5,0-5.3c0-1.6-1-2.8-2.5-3.1c-0.9-0.2-1.8-0.2-2.7,0
	c-1.5,0.3-2.7,1.5-2.7,2.8c0,0.3-0.2,0.6,0.4,0.7c0.8,0.1,1,0,1.1-0.5c0.1-0.6,0.4-1.1,0.9-1.4c1-0.5,2.1-0.5,3.2-0.1
	c0.7,0.3,1,1.1,0.9,1.9c-0.1,0.6-0.5,0.8-1.4,0.9c-0.7,0.1-1.3,0.1-2,0.2c-0.7,0.1-1.4,0.2-2,0.6c-1.1,0.6-1.6,1.5-1.6,2.8
	c0.1,1.2,0.7,2.2,1.8,2.6c1,0.4,2,0.3,3,0.1c0.9-0.2,1.5-0.8,2.1-1.5c0.4,1.2,1.3,1.7,2.2,1.3c0.5-0.2,0.4-0.5,0.4-0.8
	C246.9,56.8,246.7,56.7,246.4,56.7z M244.3,54c0,2.4-2.3,3.4-4.2,2.9c-0.7-0.2-1.2-0.9-1.3-1.6c0-0.7,0.3-1.2,1.1-1.6
	c1-0.4,2-0.5,3-0.6c0.4-0.1,0.8-0.1,1.3-0.3C244.3,53.3,244.3,53.6,244.3,54z"/>
<path d="M199.7,57.2c0-0.3-0.1-0.5-0.5-0.4c-0.5,0-0.6-0.3-0.6-0.7c0-0.7,0-1.4,0-2.1c0-1.1,0-2.1,0-3.2c-0.1-1.6-0.8-2.7-2.2-3
	c-1.2-0.3-2.5-0.3-3.7,0.1c-1.2,0.5-2,1.4-2.1,2.8c0,0.2-0.1,0.5,0.1,0.5c0.3,0.1,0.7,0.1,1,0c0.3,0,0.3-0.4,0.4-0.6
	c0.1-0.5,0.3-0.8,0.6-1.1c0.9-0.7,2.8-0.8,3.7-0.1c0.5,0.4,0.8,1.2,0.6,1.9c-0.2,0.7-0.7,0.7-1.3,0.8c-0.7,0.1-1.3,0.1-2,0.2
	c-0.7,0.1-1.4,0.2-2,0.5c-1.1,0.5-1.7,1.4-1.7,2.7c0,1.3,0.7,2.3,1.8,2.7c1.3,0.4,2.5,0.4,3.8-0.1c0.6-0.2,0.9-0.7,1.4-1.2
	c0.4,1.2,1.3,1.7,2.2,1.3C199.8,57.8,199.6,57.5,199.7,57.2z M197,54.3c-0.1,2.3-2.6,3.1-4.2,2.6c-0.8-0.2-1.2-0.9-1.2-1.6
	c0-0.8,0.4-1.3,1.2-1.6c0.9-0.4,2-0.4,2.9-0.6c0.4-0.1,0.8-0.1,1.3-0.2C197,53.4,197.1,53.8,197,54.3z"/>
<path d="M199,36.8c-0.6,0-0.5,0.4-0.7,0.8c-0.5,1.2-1.4,1.8-2.6,1.9c-1.2,0.1-2.1-0.4-2.8-1.5c-0.4-0.6-0.6-1.3-0.5-2.1
	c0.3-0.1,0.6-0.1,0.9-0.1c2,0,4,0,5.9,0c0.8,0,0.8,0,0.8-0.8c0-0.5-0.1-1-0.2-1.5c-0.4-2.1-2-3.6-4.1-3.7c-2.2-0.1-3.9,1.1-4.6,3.2
	c-0.3,1-0.3,2-0.3,3c0,2.6,1.5,4.4,4.1,4.7c2.7,0.3,4.1-0.9,4.8-2.9C200.2,36.8,200.2,36.8,199,36.8z M194.1,31.5
	c1.3-0.7,2.8-0.4,3.7,0.7c0.2,0.2,0.4,0.5,0.5,0.8c0.6,1.3,0.5,1.4-0.9,1.4c-1.6,0-3.2,0-4.9,0C192.6,33.2,193.1,32.2,194.1,31.5z"
	/>
<path d="M167.5,36.8c-0.8-0.1-0.9,0-1.2,0.8c-0.5,1.2-1.4,1.8-2.7,1.9c-1.3,0-2.2-0.6-2.8-1.7c-0.3-0.6-0.5-1.2-0.4-1.8
	c0.3-0.1,0.6-0.1,0.8-0.1c1.7,0,3.4,0,5.1,0c1.9,0,1.9,0,1.6-1.9c-0.2-1.2-0.7-2.3-1.7-3.2c-2.1-1.7-6.2-1.2-7.1,2.7
	c-0.3,1.2-0.3,2.5,0,3.7c0.4,1.7,1.3,2.9,3.1,3.4c1,0.3,2,0.2,3,0c1.6-0.5,2.4-1.7,2.8-3.1C168,37,167.9,36.8,167.5,36.8z
	 M163.5,31.1c1.7,0,2.9,1.4,2.9,3.3c-2.1,0-4,0-6,0C160.5,32.6,161.9,31.1,163.5,31.1z"/>
<path d="M235.3,54.5c-0.4,0-0.4,0.3-0.5,0.6c-0.4,0.9-0.9,1.7-2,1.9c-2.7,0.6-4.1-1.6-4-3.5c0.3-0.1,0.6-0.1,0.9-0.1c2,0,4,0,6,0
	c0.4,0,0.6-0.1,0.6-0.6c0-0.9-0.1-1.8-0.4-2.6c-0.7-1.7-1.9-2.7-3.8-2.8c-1.9-0.1-3.4,0.7-4.3,2.4c-0.7,1.4-0.8,2.9-0.6,4.4
	c0.1,1,0.5,1.9,1.1,2.6c1,1.1,2.2,1.5,3.7,1.4c2.2,0,3.4-1.3,3.9-2.8c0.1-0.3,0.4-0.7,0.1-1C236,54.3,235.6,54.5,235.3,54.5z
	 M231.8,48.8c1.6-0.1,2.9,1.2,3.2,3.3c-2.1,0-4.1,0-6.1,0C228.9,50.2,230.2,48.9,231.8,48.8z"/>
<path d="M220.8,33c-0.7-1.8-2-3-4-3.2c-1.8-0.2-3.4,0.4-4.5,2c-1.1,1.6-1.2,3.5-0.7,5.3c0.7,2.4,2.4,3.5,4.6,3.5
	c2.5,0,4-1.5,4.6-3.7c0.1-0.6,0.1-1.1,0.2-1.9C221.1,34.5,221.1,33.8,220.8,33z M218.8,38.1c-1.2,1.8-3.8,1.7-5.1,0
	c-0.6-0.9-0.8-1.9-0.8-2.7c0-1.3,0.3-2.2,0.9-3c1.3-1.8,3.9-1.6,5,0.1C219.9,34.1,219.9,36.5,218.8,38.1z"/>
</svg>
