<?xml version="1.0" encoding="utf-8"?>
<!-- Generator: Adobe Illustrator 19.1.0, SVG Export Plug-In . SVG Version: 6.00 Build 0)  -->
<svg version="1.1" id="Layer_1" xmlns="http://www.w3.org/2000/svg" xmlns:xlink="http://www.w3.org/1999/xlink" x="0px" y="0px"
	 viewBox="0 0 239.1 52.1" style="enable-background:new 0 0 239.1 52.1;" xml:space="preserve">
<path d="M79.8,37.5c0,0-0.2-0.1-0.2-0.4c0,0,0.2-0.2-0.7,0c0,0-9.9,0.2-16.4,1c0,0-8.4,0.8-10.1,1.1c0,0-0.2,0.3,0.3,0.3
	c0,0-0.2,0.4-0.5,0.5c0,0-2.4,0.3-2.1,0c0,0,0.1-0.3,1-0.3c0,0,0.1-0.2,0.5-0.2c0,0,0.8,0,0.4-0.5l-0.7,0.4c0,0,0.2-0.1-2.5,0.2
	c0,0-2.5,0.3-2.1,0.6c0,0-0.1,0.6-0.4,0c0,0,0.1-0.5-0.5,0c0,0,0,0.4-0.2,0.4c0,0-0.2-0.4-0.4-0.3c0,0-1,0-1.2,0.2
	c0,0-0.4,0.4-0.8,0.2c0,0-2.8,0.4-4.3,0.6c0,0-2.7,0.3-3.7,0.5c0,0-3.5,0.8-5.1,1c0,0-5,0.4-14,2.3c0,0-5.8,1.5-8.3,1.7
	c0,0-0.4-0.2-0.6,0.3c0,0-0.5,0.7-1.1,0.1c0,0-0.4-0.3-0.5,0.7c0,0,0.3,0.5-0.6,1c0,0-0.4,0.2-0.7,0.2c0,0-0.4,0.1-0.4,0.4
	c0,0.3-0.3,0.4-0.3,0.8c0,0.6,0.9,1.2,1.5,1c0,0,1.6-0.5,1.7-1.1c0,0,0.2-0.5-0.2-0.9c0,0-0.3-0.7,0-0.2c0,0,0.2,0.2,0.6,0.3
	c0,0,0.3,0.1,0.4,0.4c0,0,0.1,0.6,0.8,0.4c0,0,0.3,0,0.2-0.5c0,0,0.2-0.5,0.5-0.2c0,0,0.4,0.4,0.5-0.4c0,0,0-0.4,0.5-0.2
	c0,0,0.4,0.2,0.7,0.2c0,0,0.3,0.5,0.8,0.2c0,0,0.4-0.2,0.4-0.4c0,0,0.7,0.1,2.4-0.5c1-0.3,2-0.4,3-0.6c0.8-0.2,1.7-0.3,2.5-0.5
	c0.6-0.1,1.6,0,2-0.7c1-0.1,2-0.3,3-0.5c0.6-0.1,1.2-0.3,1.8-0.4c0.3,0,0.6,0,1,0c1.6,0,3.2-0.4,4.8-0.7c1.8-0.2,3.6-0.5,5.4-0.7
	c0,0,10.1-1.5,20.1-2.5c0,0,13.7-1.2,18.9-1.3c0,0,0.3,0.2,0.5,0.1c0.4-0.4,1.3,0.3,1.6-0.5c0.4,0,0.4-0.3,0.6-0.4
	c0.3-0.2,0.7-0.2,1-0.3c0,0,0.8-0.4,0.1-1.4C80.2,38,80.2,37.7,79.8,37.5"/>
<path d="M77,0.1c0,0-6.3,0.3-9.8,8.8c-0.1,0.3-0.2,0.5-0.3,0.8c-1.1,3.5-0.9,6.9,0.8,10.3c1.1,2.2,1.8,5.5-0.5,7.2
	c0,0-2.3,2.5-6.2,2.2c0,0-4.9-0.3-4.2-5.1c0,0,0.4-4.1,4-9.6c0,0,3.8-5.9,5.9-8.9c0.8-1-0.5-2.4-1.3-2.8c-1.1-0.5-2.4-0.1-3.3,0.6
	c0,0-5.7,4.3-12.7,11.3c0,0-0.7,0.4,0.2-2.4c0,0,0.7-1.5,2.6-3.7c0,0,3-3.9,0.4-5.5c0,0-2.1-0.6-4.2,1.5c0,0-5.3,5.1-10.1,10
	c0,0-1,0.9,0.5-2c0,0,1.8-3.9,3.5-7.2c0,0,1.2-2.5-1.1-3.5c0,0-1.9-0.8-3.7,2.1c0,0-4.1,7.8-7.1,14.6c0,0-2.4,3.1-4.9,6
	c-2.8,3.4-6.9,6.7-6.9,6.7c-4.4,3.3-6.6,2-6.6,2c-2.9-1.7-2.5-5-1.7-7.8c0.6-2,1.4-4,2.4-5.9c4.9-10.3,9.5-11,9.5-11
	c2-0.8,1.8,1.8,1.8,1.8c-0.2,1.7-3,4.9-3,4.9c-1.2,1.8,0.6,3.5,2.4,2.6c1.5-0.7,2.6-2.6,3.4-4c1.4-2.5,1.8-5.4,1.1-8.2
	c0,0-1.4-3.8-5.6-3c-0.3,0.1-0.6,0.2-0.9,0.3c-2.4,1.3-4.6,3.3-6.5,5.3c-3.1,3.2-5.4,7-7.6,10.9c0,0-2.6,4.6-2.8,10
	c0,0,0.2,7.2,5,8.5c3,0.8,6.1,0.1,8.7-1.5c1.6-0.9,2.9-2.2,4.3-3.4c1.6-1.5,3.2-3.1,4.6-4.8c0,0,0.7-1.1,0.3,0.5
	c0,0-3.2,7.8,0.6,9.1c0,0,2.8,0.9,3.7-2.4c1-3.7,2.3-7.4,4.1-10.8c1.1-2,2.3-3.9,3.8-5.7c0.2-0.3,2.5-3.2,3-2.4c0,0,0.5,0.9-2,7.9
	c0,0-0.9,2.3-1.4,3.6c0,0-1.4,3.5,1.6,4.2c0,0,1.9,0.5,2.7-1.1c0,0,1.2-2.3,2.8-5.4c0,0,1.9-3.8,4-6.4c0.5-0.6,1.1-1.2,1.7-1.8
	c0.3-0.3,0.7-0.8,1.2-0.9c0.5-0.2,0.9,0.3,0.6,0.9c0,0-4,7.6-1.3,12.2c0,0,1.9,4.8,8.4,4.8c0.4,0,0.8,0,1.3-0.1
	c2.2-0.2,4.3-0.9,6.3-1.8c1.3-0.6,2.4-1.3,3.4-2.3c1.1-1.2,2.2-2.9,2.6-4.4c1-3.3-0.2-7-1.5-10.1c-0.4-0.9-0.8-1.8-1-2.7
	c-0.4-1.4,0-2.8,0.6-4.1c0.8-1.6,2.1-2.8,3.7-3.4c0,0,2.5-1.1,2.2,1.6c0,0,0.4,1.5-2.9,4.8c0,0-0.9,1.1-0.7,1.9c0,0,0.4,1.8,2.1,1.2
	c0,0,5.3-2.5,5.8-10.5C82.4,4.7,82.7-1,77,0.1"/>
<path d="M2.1,50.7c0,0-0.2-0.4-0.6-0.4c0,0-0.9-0.2-1.4,0.4c0,0-0.3,0.9,0.6,1.3c0,0,0.9,0.2,1.1,0c0,0,0.7-0.1,0.6-0.7
	C2.4,51.3,2.5,51,2.1,50.7"/>
<polygon points="199.7,28.4 203.6,28.4 203.6,25.7 199.7,25.7 199.7,23.4 204.6,23.4 204.6,20.7 196.5,20.7 196.5,33.5 204.8,33.5 
	204.8,30.9 199.7,30.9 "/>
<path d="M224.9,28.8c0,1.3-0.9,2.1-2.2,2.1c-1.3,0-2.2-0.7-2.2-2.1v-8.1h-3.1v8.1c0,2.9,2.1,4.9,5.4,4.9c3.2,0,5.3-2,5.3-4.9v-8.1
	h-3.1V28.8z"/>
<path d="M233.3,24.4c0-0.7,0.7-1,1.4-1c1.5,0,2.8,1.1,2.8,1.1l1.3-2.6c0,0-1.4-1.5-4.1-1.5c-2.5,0-4.5,1.6-4.5,3.9
	c0,3.9,5.8,3.9,5.8,5.4c0,0.8-0.7,1-1.3,1c-1.6,0-3.1-1.3-3.1-1.3l-1.6,2.4c0,0,1.7,1.8,4.7,1.8c2.9,0,4.5-1.8,4.5-4
	C239.1,25.7,233.3,26,233.3,24.4"/>
<path d="M209.5,24.4c0-0.7,0.7-1,1.4-1c1.5,0,2.8,1.1,2.8,1.1l1.3-2.6c0,0-1.4-1.5-4.1-1.5c-2.5,0-4.5,1.6-4.5,3.9
	c0,3.9,5.8,3.9,5.8,5.4c0,0.8-0.7,1-1.3,1c-1.6,0-3.1-1.3-3.1-1.3l-1.6,2.4c0,0,1.7,1.8,4.7,1.8c2.9,0,4.5-1.8,4.5-4
	C215.3,25.7,209.5,26,209.5,24.4"/>
<polygon points="120,26.9 123.4,20.7 120.1,20.7 117.4,25.7 116.1,25.7 116.1,20.7 113,20.7 113,33.5 116.1,33.5 116.1,28.3 
	117.4,28.3 120.1,33.5 123.6,33.5 120,26.9 "/>
<path d="M133.1,26.7c0,0.8,0.1,2.2,0.1,2.2h0c0,0-0.6-1.3-1.1-2.2l-3.5-6h-3.2v12.8h3.1v-6c0-0.8-0.1-2.2-0.1-2.2h0
	c0,0,0.6,1.3,1.1,2.2l3.6,6h3.2V20.7h-3.1V26.7z"/>
<path d="M187.1,23.4h3.4v6.1c0,0.9-0.5,1.4-1.1,1.4c-0.4,0-0.7-0.1-0.9-0.5c-0.2-0.2-0.3-0.6-0.3-1.1v-0.7h-3.1v0.9
	c0,2.8,2.1,4.2,4.3,4.2c2.1,0,4.3-1.3,4.3-4.2v-8.9h-6.6V23.4z"/>
<path d="M145.1,20.5c-3.9,0-6.7,2.9-6.7,6.5c0,3.8,2.8,6.7,6.7,6.7c3.9,0,6.7-2.9,6.7-6.7C151.8,23.4,148.9,20.5,145.1,20.5
	 M145.1,30.9c-1.9,0-3.5-1.6-3.5-3.8c0-2.1,1.5-3.7,3.5-3.7c1.9,0,3.5,1.6,3.5,3.7C148.5,29.2,147,30.9,145.1,30.9"/>
<path d="M164.9,28.7c-0.2,0.8-0.2,1.3-0.2,1.3h0c0,0,0-0.6-0.2-1.3l-1.9-8H160l-2,8c-0.2,0.8-0.2,1.3-0.2,1.3h0c0,0,0-0.6-0.2-1.3
	l-1.6-8h-3.3l3.1,12.8h3.5l1.6-6.5c0.2-0.8,0.3-1.5,0.3-1.5h0c0,0,0.1,0.7,0.3,1.5l1.6,6.5h3.5l3.2-12.8h-3.2L164.9,28.7z"/>
<path d="M174.2,24.4c0-0.7,0.7-1,1.4-1c1.5,0,2.8,1.1,2.8,1.1l1.3-2.6c0,0-1.4-1.5-4.1-1.5c-2.5,0-4.5,1.6-4.5,3.9
	c0,3.9,5.8,3.9,5.8,5.4c0,0.8-0.7,1-1.3,1c-1.6,0-3.1-1.3-3.1-1.3l-1.6,2.4c0,0,1.7,1.8,4.7,1.8c2.9,0,4.5-1.8,4.5-4
	C180,25.7,174.2,26,174.2,24.4"/>
<polygon points="188.7,16.7 190.3,16.7 190.3,5.7 188.7,5.7 188.7,10.5 183,10.5 183,5.7 181.4,5.7 181.4,16.7 183,16.7 183,11.9 
	188.7,11.9 "/>
<path d="M139.7,12.3h2.4l2.3,4.4h1.8l-2.3-4.3c-0.2-0.4-0.3-0.5-0.3-0.5v0c1.2-0.4,2-1.6,2-3c0-1.5-0.7-2.6-1.9-3
	c-0.4-0.2-0.9-0.2-2.1-0.2h-3.4v11.1h1.5V12.3z M139.7,7h1.8c0.9,0,1.2,0.1,1.5,0.3c0.6,0.3,0.9,0.9,0.9,1.7c0,1.2-0.8,2-2,2h-2.2V7
	z"/>
<polygon points="154.7,15.4 149.7,15.4 149.7,5.7 148.2,5.7 148.2,16.7 154.7,16.7 "/>
<path d="M199.9,16.7h1.6l-4-11.1h-1.6l-4,11.1h1.6l1.1-3.2h4.2L199.9,16.7z M195,12.3l1.2-3.5c0.2-0.6,0.4-1.6,0.4-1.6h0
	c0,0,0.2,1,0.4,1.6l1.2,3.5H195z"/>
<path d="M165.8,11.2c0-3.5-2.2-5.5-5.6-5.5h-3.7v11.1h3.7C163.5,16.7,165.8,14.7,165.8,11.2 M158,15.4V7h2c2.5,0,4.1,1.5,4.1,4.2
	c0,2.7-1.6,4.2-4.1,4.2H158z"/>
<polygon points="174.5,16.7 176,16.7 176,7 179.8,7 179.8,5.7 170.7,5.7 170.7,7 174.5,7 "/>
<path d="M130.2,16.9c3.2,0,5.7-2.5,5.7-5.8c0-3.2-2.5-5.6-5.7-5.6c-3.2,0-5.7,2.5-5.7,5.6C124.5,14.4,127,16.9,130.2,16.9
	 M130.2,6.9c2.3,0,4.1,1.8,4.1,4.2c0,2.5-1.8,4.4-4.1,4.4c-2.3,0-4.1-1.9-4.1-4.4C126.1,8.7,127.9,6.9,130.2,6.9"/>
<polygon points="206.4,16.7 206.4,7 210.2,7 210.2,5.7 201,5.7 201,7 204.8,7 204.8,16.7 "/>
<path d="M116,9.6c0.2-0.7,0.3-1.6,0.3-1.6h0c0,0,0.1,0.9,0.3,1.6l1.9,7.2h1.8l2.9-11.1h-1.6l-2,8.1c-0.2,0.6-0.2,1.2-0.2,1.2h0
	c0,0-0.1-0.6-0.2-1.2L117,5.7h-1.4l-2.2,8.1c-0.2,0.6-0.2,1.2-0.2,1.2h0c0,0-0.1-0.6-0.2-1.2l-2-8.1h-1.6l2.8,11.1h1.8L116,9.6z"/>
<path d="M99.2,5.7l-4,11.1h1.6l1.1-3.2h4.2l1.1,3.2h1.6l-4-11.1H99.2z M98.3,12.3l1.2-3.5c0.2-0.6,0.4-1.6,0.4-1.6h0
	c0,0,0.2,1,0.4,1.6l1.2,3.5H98.3z"/>
</svg>
