<?xml version="1.0" encoding="utf-8"?>
<!-- Generator: Adobe Illustrator 19.1.0, SVG Export Plug-In . SVG Version: 6.00 Build 0)  -->
<svg version="1.1" id="Layer_1" xmlns="http://www.w3.org/2000/svg" xmlns:xlink="http://www.w3.org/1999/xlink" x="0px" y="0px"
	 viewBox="0 0 92.6 50.9" style="enable-background:new 0 0 92.6 50.9;" xml:space="preserve">
<g>
	<g>
		<path d="M7.2,44.1C7.2,44.4,7.3,45,7.3,45s0.1,0.3,0.1,0.4c0,0.1,0.1,0.4,0.1,0.4l0,0.5l-0.1,0.3l0,0.3l0,0.3c0,0-0.3,0.3-0.4,0
			c-0.1-0.3,0-0.7,0-0.7s0-0.4,0-0.6c0-0.2,0-0.8,0-0.8v-0.4v-0.4L7,44l0.1-0.2C7.1,43.8,7.1,43.8,7.2,44.1z"/>
		<path d="M7.8,46.8"/>
		<path d="M13.5,28.4c0,0-0.2,0.4-0.2,0.6c0,0.2-0.1,0.6-0.1,0.6l0.1,0.2c0,0,0-0.4,0.1-0.5c0-0.2,0.1-0.5,0.1-0.5V28.4z"/>
		<path d="M9.8,25.1c-0.1,0.2-0.2,0.6-0.2,0.6S9.5,26,9.4,26.3c0,0.3,0.2-0.2,0.2-0.3c0-0.2,0.2-0.5,0.2-0.5l0-0.2
			C9.8,25.2,9.9,24.9,9.8,25.1z"/>
		<path d="M10.3,26.1c-0.1,0.3-0.2,0.7-0.4,1.1c-0.1,0.4-0.4,1.5-0.4,1.7C9.4,29.1,9.3,30,9.3,30l-0.2,0.8c0,0,0.3-0.7,0.4-1.3
			c0.1-0.4,0.3-1.2,0.3-1.4c0-0.2,0.2-1,0.3-1.2c0.1-0.2,0.2-0.8,0.2-0.8S10.4,25.8,10.3,26.1z"/>
		<path d="M21.4,0.5c0.1,0,0.6,0.1,0.6,0.1l0.3,0.2L22.4,1l0.3,0H23l0.1-0.1l0.1-0.1l0.2,0.1l0.3-0.1l0.2,0l0.1-0.2H24l0.1,0
			l0.1-0.2h0.3l0.1-0.1l0.2-0.1l0.3,0l0.2,0l0.1,0L25.6,0l0.2,0.1l0.4,0c0,0,0.1,0,0.2,0.1c0,0.1,0,0.4,0,0.4l-0.2,0.3l-0.4,0.5
			l-0.2,0.2l-0.1,0.1l-0.1,0.2l-0.2,0.2c0,0-1.6,2.1-1.9,2.6c-0.3,0.5-1.3,2.2-1.3,2.2L21.5,8l-0.6,1.2l-0.4,0.9l0.1-0.1l0.3-0.6
			c0,0,1.5-2.6,1.9-3.2c0.4-0.6,2.1-3.2,2.3-3.4c0.2-0.2,1.3-1.6,1.3-1.6L26.6,1l0.1-0.2l0.2,0.1L26.8,1l-0.2,0.2l-1.1,1.4l-0.1,0.3
			l-0.2,0.1l0,0.1L25,3.3l0,0.1l-0.1,0.1l-0.1,0.2l-0.5,0.6L24,4.9L23.8,5l-0.2,0.3l-0.2,0.4l-0.3,0.4l-0.3,0.5l-0.3,0.3l-0.1,0.3
			l-0.2,0.2l-0.2,0.3l-0.1,0.3l-0.2,0.3l0,0.1l0,0.1l-0.2,0.4l-0.2,0.5l-0.2,0.4L21,9.9l-0.2,0.2l-0.1,0.4l-0.1,0.2L20.5,11l0.5-0.1
			l0.2,0l0.2-0.1l0.1,0l0.1,0l0.3,0l0.2,0l0.3,0l0.3-0.1H23l0.1,0l0.1-0.1h0.2l0.3,0.1l0.4,0h0.3l0.2-0.1l0.2,0h0.7l1.2,0h0.3
			l0.2,0.2l0.1,0.2l0.2,0.3l0,0.1l0.1,0.1l0.2,0.1l0.1,0.1l0.2,0.1l0.1,0.1l0.1,0l0.1,0.2l0.2,0l0.1,0.1l0.2,0.1l0.1,0l0.1,0.1
			l0.1,0l0.1,0.1l0.1,0.1l0.2,0.1l0.2,0.1l0.2,0l0,0.1l0.2,0.2l0.1,0.2l0.3,0.1l0.2,0.2l0.2,0.1h0.2l0.2,0.2h0.3L32,14l0.3,0.1
			l0.1,0.1l0.2,0.1l0.1,0.1l0.1,0.1l0.3,0.3l0.3,0.1l0.1,0l0.2,0.1l0.1,0.1l0.1,0l0,0.1l-0.1,0.1v0.2v0.2l0,0.3l0,0.1l0,0.3
			l-0.2,0.1l-0.2,0.1c0,0-2.2,0.1-2.4,0c-0.2,0-0.4-0.1-0.4-0.1s-0.5,0-0.6-0.1c-0.1,0-0.5-0.1-0.5-0.1l-0.3-0.1l-0.1-0.1
			c0,0-4.6,0-4.8,0.1c-0.2,0-0.5,0.1-1.3,0.1c-0.8,0-1.1-0.1-1.5-0.1c-0.3,0-0.7,0-0.7,0l-0.1,0l-0.1,0.1l-0.2,0l-0.1-0.1h-0.2
			l-0.3-0.1l-0.1-0.1l-0.3,0l-0.6,0.1l-0.4-0.1l-0.5,0c0,0-3.4,10.1-3.6,11.1c-0.2,1-0.1,0.8-0.1,0.8l-0.2,0.3l-0.3,1
			c0,0-1.4,6-1.5,6.4c-0.1,0.4-0.3,1.8-0.3,1.8v0.3L12,38h-0.1l0.2-2c0,0,0.3-1.3,0.3-1.5c0-0.2,0.6-2.6,0.6-2.6l0.3-1.7l0-0.2
			L13.2,30L13,30.7c0,0-0.3,1.2-0.3,1.4c0,0.3-0.6,2.8-0.7,3.2c-0.1,0.4-0.7,3.1-0.8,3.7c-0.1,0.6-0.5,3.1-0.7,3.7
			c-0.1,0.6-0.4,2.3-0.4,2.6c0,0.2-0.1,1.3-0.1,1.5c0,0.2-0.2,0.7-0.2,0.7l0,0.3c0,0,0,0.6,0,0.7c-0.1,0.1-0.2,0.5-0.2,0.5l-0.1,0.3
			l-0.1,0.1l-0.2,0l0-0.3l0.1-0.3l0.1-0.4l0.1-0.5c0,0,0.1-1.3,0.2-1.8c0.1-0.5,0.2-1.7,0.2-1.7l0.1-0.7l0-0.3l-0.1-0.1l-0.2,0.1
			l-0.1,0.5c0,0-0.2,1-0.2,1.4c0,0.4-0.1,1.3-0.2,1.7S9,48,9,48l-0.2,0.7l-0.1,0.6l-0.1,0.6l-0.1,0.4l0,0.3l0,0.2l-0.1,0.2l-0.1,0
			L8,50.4L8,50l-0.1-0.5l-0.2-0.4l0-0.5l0-0.2l0-0.5l0.1-0.6l0.2-0.8L8,45.5l0-0.7l0-0.3l0-0.2l0-0.4v-0.4l0-0.2L8.1,43L8,42.9
			l0-0.5v-0.3L7.9,42l-0.1,0.2l-0.1,0.2l-0.1,0.2l-0.1,0.1l0-0.2l0-0.5v-1.8v-0.2l0.1-0.5l0.1-0.5l0-0.3l0.1-0.2c0,0,0.4-2,0.4-2.3
			c0-0.4,0.2-1.7,0.2-1.7l0.3-1.7L9,31.9c0,0-0.3,0.6-0.4,1c-0.1,0.3-0.2,1.2-0.3,1.3c0,0.1-0.8,4-0.8,4.5c0,0.5-0.1,1-0.1,1
			l-0.1,0.5l-0.1,0.2L7,40.6l0,0.2L6.9,41l-0.1,0.1l0-0.3l0-0.3l0.1-0.4l0-0.5l0-0.4L7,38.5l0.1-0.4l0.1-0.2l0.1-0.6l0-0.4l0-0.3
			c0,0,0.2-1.1,0.3-1.4c0-0.3,0.3-1.5,0.3-1.5L8,33.2l0.1-0.6l0-0.4l-0.1,0.3L8,32.8l-0.2,0.7c0,0-0.2,0.8-0.4,1.4
			c-0.1,0.6-0.3,1.5-0.3,1.5L7,36.9l0,0.4l-0.1,0.2v0.1l-0.1,0.2L6.6,38l-0.1,0.1v-0.2l0.1-0.2l0-0.2l0.1-0.3l0-0.4l0.1-0.1l0-0.4
			l0.1-0.4L7,35.3c0,0,0.2-1.3,0.3-1.6c0-0.3,0.1-1,0.1-1l0.1-0.3l0.1-0.2l0-0.5l-0.1-0.3l0-0.5l-0.1-0.3L7.5,30l0.1-0.4l0-0.5
			l0.1-0.3l0.1-0.3L8,28l0-0.5l0.1-0.4l0.5-1.7c0,0,0-0.1,0.1-0.3c0-0.1,0.2-0.6,0.2-0.7c0-0.1,0.1-0.3,0.1-0.4c0-0.1,0-0.1,0-0.2
			c0-0.1,0-0.2,0.1-0.3c0-0.1,0.2-0.4,0.2-0.6c0-0.2,0-0.3,0.1-0.5c0-0.2,0.2-0.4,0.2-0.4s0.1-0.1,0.1-0.3c0-0.2,0.1-0.6,0.2-0.8
			c0.1-0.1,0.2-0.4,0.2-0.5c0-0.1,0.2-0.5,0.2-0.6c0-0.1,0.2-0.5,0.2-0.5s0.2-0.6,0.3-0.9c0.1-0.3,0.3-0.6,0.3-0.8
			c0-0.2,0.2-0.5,0.2-0.6c0-0.1,0.2-0.5,0.2-0.5l0.1-0.1l-0.2,0l-0.1,0.1h-0.2l-0.3-0.1l-0.2-0.1l-0.1,0l-0.3-0.1l-0.3,0.1
			c0,0-0.4,0-0.5,0c-0.2,0-0.4,0-0.4,0s0-0.1-0.4-0.1c-0.4,0-0.9,0-1.7,0c-0.8,0-1.1-0.1-2.1-0.1c-1,0-1.6,0.1-1.9,0.1
			c-0.4,0-0.6,0-0.8,0s-0.5,0-0.5,0l-0.2,0L1.4,16H1.1L1,16l0-0.1l-0.4,0l-0.2-0.1l-0.2-0.1L0,15.6l0.3-0.1h0.3l0.3,0l0.3,0l0.2-0.1
			l0.1,0l0.4,0L2,15.2l0.2-0.1L2.3,15l0-0.1l0-0.2l-0.3-0.1L2,14.5l-0.4,0l0.1-0.1l0.3,0l0.3-0.2l2.3,0l0.3,0L5,13.9l1.3,0l0.1-0.1
			l0.1-0.1l0.8,0l0.1,0l0.2-0.1l0.4,0l0.6,0l0.4-0.3l0.1-0.1l0.2-0.2l0-0.3l-1.1,0L8,12.6l0.8,0l0.1-0.1l0.1-0.1l-0.3,0L9,12.2
			l0.2,0l0.1,0L9.6,12l0.3-0.1l0.3-0.1h0.6h1.5l0.2-0.1l0.2-0.1h0.5l0.1-0.2l0.3,0h0.3l0.1-0.1l0.1,0l0.5,0c0,0,0.4-1,0.5-1.2
			c0.1-0.3,2.2-4,2.5-4.7c0.3-0.7,2.2-3.6,2.5-3.8C20.5,1.2,20.8,1,20.8,1l0.1-0.2l0.1-0.1l0.2,0L21.4,0.5
			C21.3,0.4,21.2,0.6,21.4,0.5z"/>
	</g>
	<g>
		<g>
			<path d="M25.9,23.1c-0.5-0.3-1.2-0.4-1.8-0.4c-1.6,0-2.8,1.1-2.8,2.7c0,1.5,1,2.7,2.5,2.7c0.9,0,1.2-0.2,1.9-0.4l0.6,1.6
				c-0.6,0.3-1.6,0.6-2.8,0.6c-2.8,0-4.6-1.8-4.6-4.5c0-2.6,1.8-4.4,4.8-4.4c1.1,0,2.1,0.3,2.6,0.6L25.9,23.1z"/>
			<path d="M29.9,29.6h-2.2l0.1-8.4H31c1.8,0,3.2,0.5,3.2,2.4c0,1.2-0.8,2.1-2,2.2v0c0.5,0.1,0.9,0.7,1.2,1.2l1.5,2.6h-2.5l-1.2-2.3
				c-0.3-0.5-0.5-0.9-1-0.9h-0.3L29.9,29.6z M29.8,24.8h1c0.5,0,1.3-0.1,1.3-1c0-0.7-0.4-1-1.3-1h-0.9L29.8,24.8z"/>
			<path d="M40.1,20.9c2.9,0,4.6,2,4.6,4.5c0,2.5-1.7,4.5-4.6,4.5c-2.9,0-4.6-2-4.6-4.5C35.6,22.9,37.3,20.9,40.1,20.9z M40.1,28.1
				c1.3,0,2.3-0.9,2.3-2.7s-1-2.7-2.3-2.7c-1.3,0-2.3,0.9-2.3,2.7S38.9,28.1,40.1,28.1z"/>
			<path d="M46.4,27.7c0.5,0.2,1.4,0.4,2,0.4c0.7,0,1.4-0.1,1.4-0.9c0-0.8-1-0.9-2-1.1c-1-0.3-2-0.8-2-2.4c0-1.8,1.8-2.7,3.4-2.7
				c0.9,0,1.8,0.2,2.7,0.5L51.3,23c-0.6-0.2-1.3-0.4-1.8-0.4c-1,0-1.4,0.4-1.4,0.9c0,0.3,0.2,0.6,1.2,0.8c2.2,0.5,2.7,1.4,2.7,2.5
				c0,2.1-1.7,2.9-3.6,2.9c-0.9,0-1.8-0.2-2.6-0.5L46.4,27.7z"/>
			<path d="M54.1,27.7c0.5,0.2,1.4,0.4,2,0.4c0.7,0,1.4-0.1,1.4-0.9c0-0.8-1-0.9-2-1.1c-1-0.3-2-0.8-2-2.4c0-1.8,1.8-2.7,3.4-2.7
				c0.9,0,1.8,0.2,2.7,0.5L59,23c-0.6-0.2-1.3-0.4-1.8-0.4c-1,0-1.4,0.4-1.4,0.9c0,0.3,0.2,0.6,1.2,0.8c2.2,0.5,2.7,1.4,2.7,2.5
				c0,2.1-1.7,2.9-3.5,2.9c-0.9,0-1.8-0.2-2.6-0.5L54.1,27.7z"/>
			<path d="M60.7,21.3l1.1-0.3l2.1,7.3h0l2.3-7.1h1.1l2.1,7.1h0l2.4-7.3l1,0.3l-2.9,8.3h-1l-2.2-7.1h0l-2.3,7.1h-1L60.7,21.3z"/>
			<path d="M76.5,21.1h1l3.4,8.3l-1,0.3l-1.1-3h-3.5l-1.2,3l-1-0.3L76.5,21.1z M77,22.1L77,22.1l-1.4,3.8h2.8L77,22.1z"/>
			<path d="M84.1,26l-3-4.5l1-0.5l2.6,4.2l2.7-4.2l0.9,0.5L85.1,26L85,29.6h-1L84.1,26z"/>
		</g>
		<g>
			<path d="M91.3,21.1c0.7,0,1.3,0.6,1.3,1.3c0,0.7-0.6,1.3-1.3,1.3c-0.7,0-1.3-0.6-1.3-1.3C90,21.7,90.6,21.1,91.3,21.1z
				 M91.3,23.5c0.6,0,1.1-0.5,1.1-1.1c0-0.6-0.5-1.1-1.1-1.1c-0.6,0-1.1,0.5-1.1,1.1C90.2,23,90.7,23.5,91.3,23.5z M91,23.1h-0.2
				v-1.5h0.6c0.3,0,0.5,0.1,0.5,0.4c0,0.3-0.2,0.4-0.4,0.4l0.4,0.7h-0.2l-0.4-0.7H91V23.1z M91.3,22.3c0.2,0,0.4,0,0.4-0.3
				c0-0.2-0.1-0.2-0.3-0.2H91v0.5H91.3z"/>
		</g>
	</g>
</g>
</svg>
