<?xml version="1.0" encoding="utf-8"?>
<!-- Generator: Adobe Illustrator 19.1.0, SVG Export Plug-In . SVG Version: 6.00 Build 0)  -->
<svg version="1.1" id="Layer_1" xmlns="http://www.w3.org/2000/svg" xmlns:xlink="http://www.w3.org/1999/xlink" x="0px" y="0px"
	 viewBox="0 0 991.1 241.1" style="enable-background:new 0 0 991.1 241.1;" xml:space="preserve">
<style type="text/css">
	.st0{fill:#FEFEFE;}
	.st1{fill:#060606;}
	.st2{fill:#030303;}
	.st3{fill:#040404;}
	.st4{fill:#050505;}
	.st5{fill:#020202;}
	.st6{fill:#055084;}
	.st7{fill:#1D1D1B;}
</style>
<path class="st0" d="M19.2,193.7c0.1-1.6,0-2.7,0.2-3.8c0.2-1.4-0.2-1.8-1.6-1.7c-3.6,0.1-7.2,0.1-10.8,0c-1.1,0-1.5,0.2-1.5,1.5
	c0,11.2,0,22.4,0,33.6c0,1.2,0.4,1.5,1.5,1.5c3.4-0.1,6.9-0.1,10.3,0c1.8,0.1,2.3-0.3,2.3-2.2c-0.1-6.3-0.1-12.6,0-18.9
	c0-4.7,1.7-6.8,6.2-7.6c1.2-0.2,2.4-0.1,3.6-0.1c5,0,6.4,1.3,6.4,6.4c0,6.8,0,13.6,0,20.4c0,1.5,0.4,2.1,2,2c3.4-0.1,6.7-0.1,10.1,0
	c1.8,0.1,2.1-0.6,2-2.2c-0.1-6.3,0-12.6,0-18.9c0-5.4,2.1-7.5,7.5-7.6c0.8,0,1.6,0,2.4,0c4.7,0.1,6.2,1.4,6.5,6.1
	c0.1,1.4,0.1,2.7,0.1,4.1c0,5.7,0,11.4,0,17c0,1.2,0.2,1.7,1.5,1.6c3.6-0.1,7.2-0.1,10.8,0c1.1,0,1.7-0.1,1.7-1.5
	c-0.1-8,0.1-16-0.1-24c-0.1-6.2-2.7-9.1-8.7-10.7c-3.6-0.9-7.3-1.2-11-0.7c-4.8,0.5-9.5,1.6-11.9,7.1c-1.1-4.4-4.1-5.8-7.6-6.6
	c-1.2-0.3-2.5-0.5-3.8-0.5C30.7,187.6,24.2,187.4,19.2,193.7z"/>
<path class="st0" d="M126.2,213.2c-1.9,0-3.8,0.1-5.8,0c-1.2-0.1-1.4,0.4-1.4,1.5c0,4.3,2.5,7.8,7.1,9c7,1.9,14.2,1.7,21.4,1.3
	c4.1-0.2,8.1-0.4,11.9-2.2c4.5-2.3,6.4-5.9,5.7-11.8c-0.4-3.8-3-6.4-7.7-7.4c-4.1-0.9-8.2-0.9-12.4-1.1c-3-0.1-6.1-0.2-9.1-0.5
	c-1.9-0.1-3.1-1.2-3.2-3.2c-0.1-1.9,0.7-3.2,2.8-3.5c3.8-0.5,7.6-0.5,11.4,0c1.2,0.1,2.2,0.7,2.5,1.9c0.3,0.8,0.6,1.1,1.5,1.1
	c3.7,0,7.4-0.1,11,0c1.2,0,1.2-0.5,1.2-1.4c-0.1-4.2-2.9-7.3-7.9-8.2c-9.3-1.6-18.6-1.5-27.9,0.1c-5.6,0.9-8,4.2-8.2,9.8
	c-0.1,5.8,2.1,8.8,7.7,10.1c2.2,0.5,4.4,0.6,6.6,0.9c4.9,0.6,9.9-0.1,14.8,0.7c2.1,0.3,3.1,1.3,3.2,3.5c0.1,2.1-0.9,3.3-2.9,3.7
	c-4.3,0.8-8.6,0.7-12.9,0.1c-1.1-0.2-2.3-0.7-2.3-1.7c0-3.3-2.2-2.6-4.1-2.6C128.4,213.2,127.3,213.2,126.2,213.2z"/>
<path class="st0" d="M196.9,187.7c-2.8-0.2-6.6,0.2-10.3,0.5c-2.5,0.2-5.1,0.7-7.3,2c-3.5,2-4.9,6.1-4,11.7c0.6,3.6,3.4,6.1,7.9,7
	c3.8,0.7,7.7,1,11.7,1.1c3.2,0.1,6.4-0.2,9.6,0.4c2.1,0.4,3,1.6,3.1,3.6c0.1,2.1-1,3.2-2.9,3.5c-4.3,0.8-8.6,0.8-12.9,0.1
	c-1.7-0.3-2.7-1.3-2.7-2.9c0-1.5-0.7-1.5-1.8-1.5c-3.6,0-7.2,0.1-10.8,0c-1.3,0-1.8,0.2-1.7,1.7c0.1,4.9,3.4,8.4,9.1,9.4
	c6.3,1.1,12.7,1.1,19.1,0.8c3.3-0.2,6.7-0.3,9.9-1.3c6.1-1.9,8.6-5.8,8.1-12.4c-0.4-4.5-3.6-7.4-9.5-8.2c-2.3-0.3-4.6-0.4-6.9-0.5
	c-4.1-0.2-8.3-0.3-12.5-0.6c-2.1-0.1-3.5-1.1-3.5-3.4c0-2.1,1.1-3.2,3.2-3.4c3.4-0.5,6.9-0.3,10.3-0.1c1.5,0.1,3,0.6,3.4,2.4
	c0.2,0.9,0.9,0.8,1.5,0.8c3.6,0,7.2,0,10.8,0c1.1,0,1.3-0.3,1.3-1.3c-0.1-3.8-2.2-6.6-6.3-7.8C207.9,187.7,202.8,187.7,196.9,187.7z
	"/>
<path class="st0" d="M331.1,194.7c0.1-2,0.1-3.5,0.3-5c0.1-1.1,0-1.6-1.3-1.5c-3.8,0.1-7.5,0-11.3,0c-1,0-1.3,0.3-1.3,1.4
	c0.1,11.2,0.1,22.4,0,33.6c0,1.3,0.3,1.6,1.6,1.6c3.5-0.1,7-0.1,10.5,0c1.7,0.1,2-0.5,1.9-2c-0.1-6.2-0.1-12.3,0-18.5
	c0.1-5.5,2.5-7.9,8.1-8.3c1-0.1,1.9,0,2.9,0c5,0,6.5,1.5,6.5,6.4c0,6.9,0,13.7,0,20.6c0,1.3,0.3,1.8,1.7,1.8c3.6-0.1,7.2,0,10.8,0
	c0.9,0,1.7,0.1,1.6-1.3c-0.1-8.7,0-17.4-0.1-26.1c-0.1-3.5-1.9-6-5-7.5c-2.5-1.2-5.2-1.7-7.9-1.9C343,187.5,335.8,187.1,331.1,194.7
	z"/>
<path class="st0" d="M916,218.9c-0.1,1.4-0.1,2.8-0.3,4.2c-0.2,1.3,0.1,1.7,1.4,1.6c3.6-0.1,7.2-0.1,10.8,0c1.3,0,1.6-0.4,1.6-1.6
	c0-11.1,0-22.2,0-33.4c0-1.3-0.4-1.6-1.6-1.6c-3.6,0.1-7.2,0.1-10.8,0c-1.4,0-1.7,0.4-1.7,1.7c0.1,6.3,0,12.6,0,19
	c0,5.1-1.5,6.9-6.4,7.9c-7.8,1.7-10.8-0.8-10.8-8.5c0-6.2,0-12.3,0-18.5c0-1.2-0.2-1.7-1.5-1.7c-3.7,0.1-7.4,0.1-11,0
	c-1.2,0-1.5,0.3-1.5,1.5c0.1,8.1,0,16.2,0.1,24.2c0,3.9,1.5,7.1,5.2,9.1c2.4,1.3,4.9,1.9,7.6,2C904,225.4,911,225.6,916,218.9z"/>
<path class="st0" d="M421,205.7C421,205.7,421,205.7,421,205.7c0-2.6,0.1-5.3-0.1-7.9c-0.1-1.7,0.5-2,2-1.9c3.6,0.1,7.2,0,10.8,0
	c5.9,0,5.9,0,5.8-5.9c0-1.5-0.4-1.9-1.9-1.9c-5,0.1-10.1,0-15.1,0.1c-1.2,0-1.7-0.3-1.6-1.6c0.1-1.8,0-3.5,0-5.3
	c0-1-0.3-1.4-1.3-1.4c-2.4,0.1-4.8,0-7.2,0c-5.4,0-5.6,0-5.4,5.3c0.1,2.3-0.4,3-2.8,2.9c-3.5-0.2-3.5-0.1-3.5,3.4
	c0,4.2,0,4.3,4.2,4.1c1.8,0,2.1,0.5,2.1,2.1c-0.1,5.6,0,11.2,0,16.8c0,5.5,2.1,8.3,7.4,9.5c6.2,1.4,12.4,1.3,18.6,0.2
	c5.9-1.1,8.2-4,8.6-10.1c0.2-4.1,0.2-4.1-3.8-4.1c-1,0-2.1,0-3.1,0c-3.9,0-3.9,0-4.6,3.9c0,0.2,0,0.3,0,0.5
	c-0.5,2.3-2.3,3.2-5.8,2.8c-2.2-0.2-3.3-1.3-3.3-3.6C421,211.1,421,208.4,421,205.7z"/>
<path class="st0" d="M550.1,188.2c4.6,12,9.1,23.7,13.6,35.4c0.4,0.9,0.9,1.1,1.8,1.1c6.4,0,12.8-0.1,19.2,0c1.1,0,1.5-0.4,1.8-1.3
	c4-11.2,7.9-22.4,12-33.6c0.4-1.2,0.3-1.7-1.1-1.7c-3.8,0.1-7.7,0.1-11.5,0c-1.2,0-1.7,0.4-2,1.4c-1.1,3.6-2.3,7.1-3.4,10.7
	c-1.8,5.8-3.6,11.5-5.5,17.6c-0.3-0.8-0.6-1.3-0.7-1.8c-2.6-8.8-5.8-17.3-8.8-26c-0.3-0.8-0.2-1.9-1.7-1.8
	C559.2,188.3,554.7,188.2,550.1,188.2z"/>
<path class="st0" d="M791,193.5c0.1-1.5,0.1-2.5,0.3-3.5c0.5-1.6,0-1.9-1.5-1.8c-3.5,0.1-7,0.1-10.5,0c-1.1,0-1.7,0.2-1.7,1.5
	c0.1,11.1,0.1,22.2,0,33.3c0,1.4,0.5,1.7,1.8,1.7c3.4-0.1,6.9-0.1,10.3,0c1.6,0.1,2-0.4,2-2c-0.1-6.9-0.1-13.9,0-20.9
	c0-3.7,2.1-5.7,5.8-6c0.9-0.1,1.8,0,2.6,0c2,0.1,3.1,1.1,3.7,3.1c0.4,1.3-0.6,3.3,0.7,3.9c1.2,0.6,3,0.1,4.5,0.1c0.8,0,1.6,0,2.4,0
	c5.8,0,5.7,0,5.2-5.8c-0.4-4-1.9-7-5.8-8.5C804,186.1,796.1,187.9,791,193.5z"/>
<path class="st0" d="M464.7,188.2c-4.3,0-8.6,0-12.8,0c-1.2,0-1.2,0.6-1.2,1.5c0,11.2,0,22.4,0,33.6c0,1.2,0.3,1.5,1.5,1.5
	c3.5-0.1,7-0.1,10.6,0c1.5,0,2-0.3,2-1.9c-0.1-7,0-14.1,0-21.1c0-3,1.3-4.5,4.1-5.4c1.4-0.4,2.8-0.4,4.3-0.3c2,0.1,3.1,1,3.7,3.1
	c0.4,1.3-0.7,3.2,0.8,3.9c1.2,0.6,2.8,0.1,4.3,0.1c0.8,0,1.6,0,2.4,0c6.2,0,6.2,0,5.3-6.3c-0.8-5.3-3.1-7.8-8.3-8.6
	c-6.4-1-12.4-0.8-17,5.3C464.1,191.5,464.3,189.9,464.7,188.2z"/>
<path class="st0" d="M662.8,198.4c0,8.2,0,16.3,0,24.5c0,1.5,0.4,1.9,1.9,1.8c3.4-0.1,6.9-0.1,10.3,0c1.4,0,1.7-0.5,1.7-1.8
	c0-16.3,0-32.6,0-48.9c0-1.4-0.5-1.7-1.8-1.7c-3.4,0.1-6.7,0.1-10.1,0c-1.8-0.1-2.1,0.5-2.1,2.1
	C662.8,182.5,662.8,190.4,662.8,198.4z"/>
<path class="st0" d="M107.8,206.6c0-5.6,0-11.2,0-16.8c0-1.2-0.3-1.7-1.6-1.7c-3.6,0.1-7.2,0.1-10.8,0c-1.4,0-1.5,0.5-1.5,1.7
	c0,11,0.1,22.1,0,33.1c0,1.6,0.6,1.8,1.9,1.8c3.3-0.1,6.6-0.1,9.8,0c1.6,0.1,2.2-0.3,2.1-2.1C107.8,217.3,107.8,212,107.8,206.6z"/>
<path class="st0" d="M232.7,206.3c0,5.5,0,11,0,16.5c0,1.4,0.3,1.9,1.8,1.9c3.5-0.1,7-0.1,10.5,0c1.1,0,1.5-0.3,1.5-1.5
	c0-11.2-0.1-22.4,0-33.5c0-1.5-0.6-1.5-1.7-1.5c-3.4,0-6.9,0.1-10.3,0c-1.5-0.1-1.9,0.4-1.9,1.9
	C232.8,195.4,232.7,200.9,232.7,206.3z"/>
<path class="st0" d="M101.1,172.4c0,0.1,0,0.1,0,0.2c-2.3,0-4.6,0-6.9,0c-0.1,2.1-0.1,4.3-0.2,6.4c0,0.1,0,0.2,0,0.2
	c-0.2,1,0.3,1.4,1.3,1.3c3.8-0.1,7.5,0,11.3,0c0.9,0,1.2-0.3,1.3-1.2c0.6-7,0.6-7-6.3-7C101.4,172.4,101.2,172.4,101.1,172.4z"/>
<path class="st0" d="M239.5,180.5c1.9,0,3.8,0,5.7,0c0.9,0,1.2-0.3,1.3-1.2c0.8-6.8,0.7-7-6-7c-0.6,0-1.1,0-1.7,0
	c-2,0-4.8-0.7-5.8,0.3c-1.3,1.4-0.3,4.1-0.4,6.2c-0.1,1.2,0.2,1.7,1.6,1.6C236,180.4,237.8,180.5,239.5,180.5z"/>
<path class="st1" d="M19.2,193.7c5-6.3,11.5-6.2,18-5.9c1.3,0.1,2.5,0.3,3.8,0.5c3.5,0.8,6.6,2.2,7.6,6.6c2.4-5.6,7.1-6.6,11.9-7.1
	c3.7-0.4,7.4-0.2,11,0.7c6,1.5,8.5,4.5,8.7,10.7c0.2,8,0,16,0.1,24c0,1.4-0.6,1.5-1.7,1.5c-3.6-0.1-7.2-0.1-10.8,0
	c-1.4,0-1.5-0.5-1.5-1.6c0-5.7,0-11.4,0-17c0-1.4,0-2.7-0.1-4.1c-0.3-4.6-1.8-6-6.5-6.1c-0.8,0-1.6,0-2.4,0
	c-5.4,0.1-7.5,2.2-7.5,7.6c0,6.3-0.1,12.6,0,18.9c0,1.6-0.2,2.3-2,2.2c-3.4-0.1-6.7-0.1-10.1,0c-1.6,0.1-2-0.5-2-2
	c0.1-6.8,0.1-13.6,0-20.4c0-5.1-1.3-6.4-6.4-6.4c-1.2,0-2.4-0.1-3.6,0.1c-4.5,0.8-6.2,2.9-6.2,7.6c0,6.3-0.1,12.6,0,18.9
	c0,1.8-0.5,2.3-2.3,2.2c-3.4-0.2-6.9-0.1-10.3,0c-1.1,0-1.5-0.3-1.5-1.5c0-11.2,0.1-22.4,0-33.6c0-1.2,0.4-1.5,1.5-1.5
	c3.6,0,7.2,0.1,10.8,0c1.4,0,1.8,0.4,1.6,1.7C19.2,191,19.3,192.1,19.2,193.7z"/>
<path class="st2" d="M751,194.6c0.4-2-0.1-3.4-0.3-4.9c-0.1-1.1,0.2-1.6,1.4-1.5c3.8,0.1,7.5,0,11.3,0c0.8,0,1.3,0.1,1.3,1.1
	c-0.2,13.1,0.5,26.2-0.4,39.3c-0.5,6.3-3.5,9.4-9.6,11c-6.5,1.7-13.1,1.6-19.8,1.2c-3.3-0.2-6.5-0.5-9.6-1.7
	c-4.5-1.8-6.8-5.5-6.2-10.2c0.1-1,0.6-0.9,1.3-0.9c3.6,0,7.2,0,10.8,0c1,0,1.4,0.2,1.4,1.3c0,2.3,1.4,3.4,3.5,3.7
	c3.6,0.5,7.2,0.5,10.7-0.3c2.1-0.5,3.6-1.9,3.7-4.2c0.2-3.1,0-6.3,0-9.8c-4.6,6.1-10.9,6.1-17.3,5.8c-2.5-0.1-4.9-0.6-7.3-1.4
	c-4.5-1.5-7.5-4.3-8.1-9.3c-0.6-4.8-0.8-9.6-0.2-14.3c0.8-6.6,4.7-10.3,11.4-11.3c4.4-0.7,8.7-0.7,13.1,0
	C746,188.8,749,190.7,751,194.6z M731.6,206C731.6,206,731.6,206,731.6,206c0.1,1.5-0.1,3,0.1,4.6c0.3,3.5,1.6,5,5.1,5.7
	c3.1,0.6,6.2,0.5,9.3-0.2c2.8-0.7,4.1-2.4,4.3-5.3c0.3-3,0.2-6.1-0.1-9.1c-0.2-2.8-1.6-4.5-4.4-5.3c-2.1-0.6-4.3-0.4-6.4-0.4
	c-6,0-7.8,1.7-7.8,7.6C731.6,204.4,731.6,205.2,731.6,206z"/>
<path class="st3" d="M956.8,193.8c5.3-7.1,12.6-6.1,19.7-5.8c4,0.2,7.9,1.1,11,4.1c1.4,1.4,2.4,3,2.8,4.9c1.2,6.2,1.2,12.4-0.1,18.6
	c-1,4.6-4.1,7.5-8.6,8.7c-5.4,1.4-10.9,1.3-16.4,0.4c-3.1-0.6-5.6-2.2-7.2-5.1c-0.7,0.6-0.4,1.3-0.4,1.9c0,5.8-0.1,11.7,0,17.5
	c0,1.3-0.3,1.8-1.7,1.8c-3.7-0.1-7.4-0.1-11,0c-1.2,0-1.6-0.2-1.6-1.6c0-16.4,0.1-32.8,0-49.2c0-1.5,0.6-1.7,1.8-1.6
	c3.4,0.1,6.9,0.1,10.3,0c1.4,0,1.8,0.3,1.6,1.7C956.6,191,956.8,192.1,956.8,193.8z M976.9,206.6c-0.1-1.9-0.1-3.8-0.4-5.6
	c-0.5-2.8-1.9-4.4-4.8-4.8c-2.8-0.4-5.6-0.5-8.3-0.1c-3.6,0.6-4.9,1.8-5.5,5.3c-0.6,3.3-0.5,6.7,0,10c0.4,2.9,2.1,4.6,5.1,5.2
	c2.6,0.5,5.3,0.5,7.8,0.2c3.8-0.4,4.8-1.6,5.7-5.3C977,209.8,976.7,208.2,976.9,206.6z"/>
<path class="st3" d="M530.1,219.8c-2.5,3.6-6,4.9-10.1,5.1c-5.4,0.4-10.9,0.6-16.1-1.1c-4.7-1.6-6.6-4.8-6.5-10.7
	c0-5,2.1-8.1,6.6-9.4c6.8-2.1,13.7-1.9,20.6-0.7c2,0.3,3.5,1.6,5.1,3.7c0.2-3.3,0.4-6-0.2-8.7c-0.3-1.6-1.5-2.4-3-2.8
	c-3.2-0.8-6.5-0.8-9.7-0.2c-1.6,0.3-2.8,1-3.2,2.8c-0.2,0.8-0.6,1.2-1.5,1.2c-3.8,0-7.7-0.1-11.5,0c-1,0-1.3-0.3-1.3-1.4
	c0-3.6,1.6-6.3,4.9-7.8c3.4-1.5,7-1.7,10.5-1.9c6.4-0.2,12.8-0.3,19.1,0.9c6.5,1.2,9.6,4.8,9.7,11.3c0.1,7.7,0,15.4,0.1,23
	c0,1.4-0.4,1.7-1.7,1.7c-3.4-0.1-6.7-0.2-10.1,0c-1.8,0.1-2.2-0.5-1.9-2.1C530.1,221.7,530,220.7,530.1,219.8z M520.6,208.9
	c-2.4,0-4.6-0.1-6.8,0.7c-1.9,0.7-2.5,2.1-2.5,3.9c0.1,1.8,0.7,3.4,2.6,3.8c4.2,1,8.5,1,12.8,0.1c2.3-0.5,2.9-2.3,2.9-4.3
	c0-2-1.1-3.2-3.1-3.7C524.6,208.9,522.5,208.8,520.6,208.9z"/>
<path class="st3" d="M257.9,206.2c0.1-2.3,0.1-4.6,0.4-6.9c0.7-5.8,4.1-9.4,10.1-10.6c6.8-1.3,13.7-1.2,20.5-0.8
	c2.6,0.1,5.2,0.4,7.8,1.2c4.5,1.5,7.5,4.3,8.2,9c0.9,5.8,0.9,11.6-0.4,17.4c-1.5,6.3-6.4,8.5-12.1,9.1c-7.7,0.9-15.5,1-23.2-0.4
	c-7.2-1.3-10.9-5.4-11.1-12.7c-0.1-1.8,0-3.5,0-5.3C258.1,206.2,258,206.2,257.9,206.2z M291.4,206.4c0-1.4,0.1-2.9,0-4.3
	c-0.3-3.8-1.5-5.3-4.8-5.9c-3.1-0.6-6.2-0.4-9.3-0.1c-2.8,0.3-4.2,2-4.6,4.7c-0.7,4-0.7,7.9,0.1,11.9c0.4,2,1.6,3.2,3.6,3.7
	c3.6,0.9,7.3,0.8,10.9,0c2.1-0.5,3.3-1.9,3.8-4.1C291.5,210.4,291.3,208.4,291.4,206.4z"/>
<path class="st3" d="M824.8,206.4c0.1-2.3,0.1-4.6,0.4-6.9c0.7-6,3.9-9.7,9.9-10.7c9.1-1.6,18.3-1.6,27.4,0c6,1.1,9.4,5.5,9.8,11.6
	c0.3,4.6,0.3,9.2-0.5,13.8c-0.9,5.4-4.1,8.7-9.2,9.7c-9.4,1.8-18.9,2-28.3-0.2c-6.1-1.5-9-5.5-9.2-11.8c-0.1-1.8,0-3.7,0-5.5
	C825,206.5,824.9,206.5,824.8,206.4z M858.3,207.1c0-1.9,0.1-3.3,0-4.6c-0.2-4.2-1.7-6-5.6-6.4c-2.8-0.3-5.7-0.3-8.6,0.1
	c-2.6,0.4-4,1.8-4.5,4.3c-0.8,4-0.8,8.1,0,12.1c0.4,2.2,1.7,3.5,3.9,4c3.6,0.7,7.1,0.7,10.7-0.1c1.9-0.4,3.1-1.7,3.7-3.7
	C858.4,210.7,858.2,208.7,858.3,207.1z"/>
<path class="st3" d="M634.9,208.4c-4.7,0-9.4,0.1-14.1,0c-1.7,0-2,0.6-1.9,2.1c0.3,4.8,2.1,6.8,6.9,7c2.9,0.1,5.7,0.3,8.6-0.4
	c1.4-0.4,2.7-1,2.8-2.5c0.1-1.6,1-1.8,2.3-1.8c3.4,0.1,6.7,0.1,10.1,0c1.5,0,1.7,0.5,1.6,1.8c-0.4,5.2-3.2,8.6-8.7,9.6
	c-9.1,1.7-18.3,1.8-27.3-0.3c-5.4-1.3-8.9-4.5-9.5-10.3c-0.5-4.9-0.7-9.7,0-14.6c0.7-5.3,4.1-8.3,9-9.7c6.3-1.8,12.8-1.7,19.2-1.3
	c2.8,0.2,5.6,0.4,8.3,1.2c5.3,1.7,8.5,5.7,8.9,11.2c0.1,2.1,0.1,4.1,0.2,6.2c0.1,1.4-0.4,1.9-1.9,1.8
	C644.5,208.3,639.7,208.4,634.9,208.4z M628.2,202.1C628.2,202.1,628.2,202.1,628.2,202.1c2.2,0,4.3,0,6.5,0c3,0,3.8-1.5,2.4-4.2
	c-0.7-1.2-1.7-1.9-3-2.1c-3.5-0.6-7-0.6-10.5-0.1c-3.2,0.5-4.2,2-4.4,5.2c-0.1,1,0.2,1.2,1.1,1.2
	C622.9,202.1,625.5,202.1,628.2,202.1z"/>
<path class="st3" d="M126.2,213.2c1.1,0,2.2,0,3.4,0c1.9,0,4.1-0.7,4.1,2.6c0,1,1.2,1.6,2.3,1.7c4.3,0.7,8.6,0.7,12.9-0.1
	c2-0.4,3-1.6,2.9-3.7c-0.1-2.1-1.2-3.1-3.2-3.5c-4.9-0.8-9.9-0.1-14.8-0.7c-2.2-0.3-4.5-0.4-6.6-0.9c-5.7-1.3-7.9-4.3-7.7-10.1
	c0.1-5.7,2.6-8.9,8.2-9.8c9.3-1.5,18.6-1.6,27.9-0.1c5.1,0.9,7.8,3.9,7.9,8.2c0,0.9,0,1.5-1.2,1.4c-3.7-0.1-7.4-0.1-11,0
	c-0.9,0-1.2-0.3-1.5-1.1c-0.4-1.2-1.3-1.8-2.5-1.9c-3.8-0.5-7.6-0.5-11.4,0c-2.1,0.3-2.8,1.6-2.8,3.5c0.1,2,1.3,3.1,3.2,3.2
	c3,0.2,6.1,0.4,9.1,0.5c4.2,0.1,8.3,0.1,12.4,1.1c4.6,1.1,7.2,3.7,7.7,7.4c0.6,5.9-1.2,9.5-5.7,11.8c-3.8,1.9-7.9,2-11.9,2.2
	c-7.2,0.4-14.4,0.6-21.4-1.3c-4.6-1.2-7.1-4.7-7.1-9c0-1.1,0.2-1.6,1.4-1.5C122.4,213.2,124.3,213.2,126.2,213.2z"/>
<path class="st3" d="M196.9,187.7c6,0,11,0,15.9,1.5c4,1.2,6.2,4,6.3,7.8c0,1.1-0.2,1.4-1.3,1.3c-3.6-0.1-7.2,0-10.8,0
	c-0.6,0-1.3,0.2-1.5-0.8c-0.4-1.8-1.9-2.4-3.4-2.4c-3.4-0.2-6.9-0.3-10.3,0.1c-2.1,0.3-3.2,1.3-3.2,3.4c0,2.3,1.4,3.3,3.5,3.4
	c4.1,0.2,8.3,0.3,12.5,0.6c2.3,0.1,4.6,0.2,6.9,0.5c5.8,0.8,9.1,3.7,9.5,8.2c0.5,6.6-2,10.5-8.1,12.4c-3.2,1-6.6,1.2-9.9,1.3
	c-6.4,0.3-12.8,0.3-19.1-0.8c-5.8-1-9.1-4.5-9.1-9.4c0-1.4,0.5-1.7,1.7-1.7c3.6,0.1,7.2,0,10.8,0c1.1,0,1.8,0,1.8,1.5
	c0,1.6,1,2.6,2.7,2.9c4.3,0.7,8.6,0.7,12.9-0.1c1.9-0.3,2.9-1.4,2.9-3.5c-0.1-2.1-1-3.2-3.1-3.6c-3.2-0.6-6.4-0.3-9.6-0.4
	c-3.9-0.1-7.8-0.3-11.7-1.1c-4.5-0.9-7.3-3.4-7.9-7c-0.9-5.5,0.5-9.7,4-11.7c2.3-1.3,4.8-1.7,7.3-2
	C190.3,187.9,194,187.5,196.9,187.7z"/>
<path class="st4" d="M331.1,194.7c4.7-7.6,11.9-7.2,18.9-6.8c2.7,0.1,5.4,0.7,7.9,1.9c3.2,1.5,5,4,5,7.5c0.1,8.7,0.1,17.4,0.1,26.1
	c0,1.4-0.7,1.3-1.6,1.3c-3.6,0-7.2-0.1-10.8,0c-1.4,0-1.7-0.5-1.7-1.8c0.1-6.9,0-13.7,0-20.6c0-4.9-1.6-6.4-6.5-6.4
	c-1,0-1.9,0-2.9,0c-5.5,0.4-7.9,2.8-8.1,8.3c-0.1,6.2-0.1,12.3,0,18.5c0,1.5-0.3,2.1-1.9,2c-3.5-0.1-7-0.1-10.5,0
	c-1.3,0-1.6-0.3-1.6-1.6c0-11.2,0-22.4,0-33.6c0-1.1,0.3-1.4,1.3-1.4c3.8,0,7.5,0.1,11.3,0c1.3,0,1.4,0.5,1.3,1.5
	C331.2,191.2,331.2,192.7,331.1,194.7z"/>
<path class="st5" d="M916,218.9c-5,6.7-12,6.5-19.1,6.1c-2.6-0.1-5.2-0.8-7.6-2c-3.7-1.9-5.1-5.2-5.2-9.1c-0.1-8.1,0-16.2-0.1-24.2
	c0-1.1,0.3-1.5,1.5-1.5c3.7,0.1,7.4,0.1,11,0c1.3,0,1.6,0.5,1.5,1.7c-0.1,6.2,0,12.3,0,18.5c0,7.7,3.1,10.2,10.8,8.5
	c4.9-1.1,6.4-2.9,6.4-7.9c0-6.3,0-12.6,0-19c0-1.3,0.3-1.8,1.7-1.7c3.6,0.1,7.2,0.1,10.8,0c1.2,0,1.6,0.3,1.6,1.6
	c-0.1,11.1,0,22.2,0,33.4c0,1.2-0.3,1.6-1.6,1.6c-3.6-0.1-7.2-0.1-10.8,0c-1.3,0-1.6-0.3-1.4-1.6C916,221.7,915.9,220.3,916,218.9z
	 M916.1,218.1c0,0-0.1,0.1-0.1,0.1c0,0,0.1,0.1,0.1,0.1c0,0,0.1-0.1,0.1-0.1C916.2,218.2,916.1,218.2,916.1,218.1z"/>
<path class="st2" d="M421,205.7c0,2.7,0,5.4,0,8.2c0,2.3,1.1,3.4,3.3,3.6c3.5,0.3,5.3-0.5,5.8-2.8c0-0.2,0-0.3,0-0.5
	c0.6-3.9,0.6-3.9,4.6-3.9c1,0,2.1,0,3.1,0c4,0,4,0,3.8,4.1c-0.3,6.1-2.6,9-8.6,10.1c-6.2,1.1-12.4,1.2-18.6-0.2
	c-5.3-1.2-7.4-4-7.4-9.5c0-5.6-0.1-11.2,0-16.8c0-1.6-0.3-2.2-2.1-2.1c-4.2,0.1-4.2,0-4.2-4.1c0-3.5,0-3.7,3.5-3.4
	c2.4,0.2,2.9-0.6,2.8-2.9c-0.2-5.3-0.1-5.3,5.4-5.3c2.4,0,4.8,0.1,7.2,0c1.1,0,1.4,0.3,1.3,1.4c-0.1,1.8,0.1,3.5,0,5.3
	c-0.1,1.3,0.4,1.6,1.6,1.6c5-0.1,10.1,0,15.1-0.1c1.5,0,1.9,0.4,1.9,1.9c0.1,5.9,0.1,5.9-5.8,5.9c-3.6,0-7.2,0.1-10.8,0
	c-1.5,0-2.1,0.2-2,1.9C421.1,200.4,421,203,421,205.7C421,205.7,421,205.7,421,205.7z"/>
<path class="st3" d="M550.1,188.2c4.7,0,9.1,0.1,13.6,0c1.5,0,1.4,1.1,1.7,1.8c3,8.7,6.2,17.2,8.8,26c0.2,0.5,0.4,1,0.7,1.8
	c1.9-6.1,3.7-11.8,5.5-17.6c1.1-3.6,2.3-7.1,3.4-10.7c0.3-1.1,0.9-1.4,2-1.4c3.8,0.1,7.7,0.1,11.5,0c1.4,0,1.6,0.4,1.1,1.7
	c-4,11.2-8,22.4-12,33.6c-0.3,0.9-0.7,1.4-1.8,1.3c-6.4-0.1-12.8-0.1-19.2,0c-0.9,0-1.5-0.1-1.8-1.1
	C559.2,211.9,554.6,200.2,550.1,188.2z"/>
<path class="st2" d="M791,193.5c5.1-5.6,13-7.4,19.7-4.8c3.9,1.5,5.5,4.5,5.8,8.5c0.5,5.8,0.6,5.8-5.2,5.8c-0.8,0-1.6,0-2.4,0
	c-1.5,0-3.3,0.4-4.5-0.1c-1.3-0.6-0.4-2.6-0.7-3.9c-0.6-2-1.7-3-3.7-3.1c-0.9,0-1.8-0.1-2.6,0c-3.7,0.2-5.7,2.2-5.8,6
	c-0.1,6.9-0.1,13.9,0,20.9c0,1.6-0.4,2-2,2c-3.4-0.1-6.9-0.1-10.3,0c-1.3,0-1.8-0.2-1.8-1.7c0.1-11.1,0.1-22.2,0-33.3
	c0-1.4,0.5-1.6,1.7-1.5c3.5,0.1,7,0.1,10.5,0c1.5,0,2,0.3,1.5,1.8C791,191,791.1,192.1,791,193.5z"/>
<path class="st2" d="M464.7,188.2c-0.4,1.7-0.6,3.2-0.5,5.3c4.6-6.2,10.6-6.3,17-5.3c5.3,0.8,7.6,3.3,8.3,8.6
	c0.9,6.3,0.9,6.3-5.3,6.3c-0.8,0-1.6,0-2.4,0c-1.4,0-3.1,0.4-4.3-0.1c-1.4-0.7-0.4-2.6-0.8-3.9c-0.6-2.1-1.7-3-3.7-3.1
	c-1.4-0.1-2.9-0.2-4.3,0.3c-2.8,0.9-4.1,2.4-4.1,5.4c-0.1,7-0.1,14.1,0,21.1c0,1.6-0.5,2-2,1.9c-3.5-0.1-7-0.1-10.6,0
	c-1.1,0-1.5-0.3-1.5-1.5c0-11.2,0-22.4,0-33.6c0-0.9,0-1.5,1.2-1.5C456.2,188.2,460.4,188.2,464.7,188.2z"/>
<path class="st4" d="M662.8,198.4c0-8,0-16,0-24c0-1.6,0.3-2.2,2.1-2.1c3.3,0.2,6.7,0.1,10.1,0c1.3,0,1.8,0.3,1.8,1.7
	c0,16.3,0,32.6,0,48.9c0,1.3-0.3,1.8-1.7,1.8c-3.4-0.1-6.9-0.1-10.3,0c-1.5,0.1-1.9-0.4-1.9-1.8
	C662.8,214.7,662.8,206.6,662.8,198.4z"/>
<path class="st4" d="M107.8,206.6c0,5.4-0.1,10.7,0,16.1c0,1.7-0.5,2.1-2.1,2.1c-3.3-0.1-6.6-0.1-9.8,0c-1.4,0-2-0.2-1.9-1.8
	c0.1-11,0.1-22.1,0-33.1c0-1.2,0.2-1.7,1.5-1.7c3.6,0.1,7.2,0.1,10.8,0c1.3,0,1.6,0.4,1.6,1.7C107.8,195.4,107.8,201,107.8,206.6z"
	/>
<path class="st4" d="M232.7,206.3c0-5.4,0.1-10.9,0-16.3c0-1.5,0.3-1.9,1.9-1.9c3.4,0.1,6.9,0.1,10.3,0c1.1,0,1.7,0,1.7,1.5
	c-0.1,11.2,0,22.4,0,33.5c0,1.2-0.4,1.5-1.5,1.5c-3.5-0.1-7-0.1-10.5,0c-1.6,0.1-1.8-0.5-1.8-1.9
	C232.8,217.3,232.7,211.8,232.7,206.3z"/>
<path class="st1" d="M101.1,172.4c0.2,0,0.3,0,0.5,0c6.9,0,6.9,0,6.3,7c-0.1,0.9-0.3,1.2-1.3,1.2c-3.8,0-7.5-0.1-11.3,0
	c-1,0-1.5-0.3-1.3-1.3c0-0.1,0-0.2,0-0.2c0.1-2.1,0.1-4.3,0.2-6.4c2.3,0,4.6,0,6.9,0C101.1,172.5,101.1,172.4,101.1,172.4z"/>
<path class="st4" d="M239.5,180.5c-1.8,0-3.5-0.1-5.3,0c-1.4,0.1-1.6-0.5-1.6-1.6c0.1-2.1-0.9-4.9,0.4-6.2c1-1,3.8-0.3,5.8-0.3
	c0.6,0,1.1,0,1.7,0c6.7,0,6.9,0.2,6,7c-0.1,0.9-0.4,1.2-1.3,1.2C243.4,180.5,241.4,180.5,239.5,180.5z"/>
<path class="st6" d="M553.1,2.4c-1.4,0.2-2.7-0.2-3.9-0.7C547.5,1,545.7,1,543.9,1c-0.9-0.9-2-0.5-3-0.5c-35.6,0-71.2,0-106.8,0
	c-1.1,0-2.2,0-3.4-0.1c0.7-0.7,1.7-0.4,2.5-0.4c36.4,0,72.8,0,109.2,0C546.1,0.1,549.8,0.7,553.1,2.4z"/>
<path class="st6" d="M406.3,22.6c0.4,0.5,0.3,1.1,0.3,1.6c0,38.3,0,76.5,0,114.8c-0.7-0.8-0.5-1.8-0.5-2.8c0-37.3,0-74.5,0-111.8
	C406.1,23.9,406.2,23.3,406.3,22.6z"/>
<path class="st7" d="M162.4,82c0-18.4,0.1-36.8-0.1-55.2c-0.1-9.6-3.8-17.5-12-22.9c-4.6-3-9.9-3.8-15.4-3.8C99.2,0,63.3,0,27.5,0
	c-1.8,0-3.5,0.2-5.2,0.5C8.4,3.3,0.1,12.5,0.1,25.9C0,62.6,0,99.3,0.1,136c0,6.5,2.3,12.6,6.4,17.7c4.9,6,11.5,8.7,19.2,8.7
	c36.6,0,73.1,0,109.7,0c1.2,0,2.4,0,3.6-0.2c13.6-1.9,23.5-11.1,23.5-25.6C162.3,118.4,162.4,100.2,162.4,82z M127.3,71.5
	c-11.5,0-23,0.1-34.6,0c-1.9,0-2.4,0.5-2.4,2.4c0.1,12.1,0,24.2,0,36.2c0,11.8,0,23.5,0,35.3c0,4.9-1.8,7.5-6.4,8.3
	c-4.8,0.9-8.3,0.4-10.8-3.9c-1-1.8-1-3.7-1-5.6c0-23.3,0-46.6,0.1-69.8c0-2.5-0.7-3-3.1-3c-11.4,0.1-22.7,0.1-34.1,0.1
	c-4.9,0-7.9-2.9-8.2-7.7c-0.1-1-0.1-2.1,0-3.1c0.2-4.5,3-7.3,7.5-7.4c11.4-0.1,22.9-0.1,34.3-0.1c3.5,0,3.5,0,3.5-3.3
	c0-11,0.1-21.9-0.1-32.9c-0.1-4.4,2.6-7.3,6.2-8.2c5.4-1.3,9.5,0.4,11.5,4.5c0.7,1.4,0.6,3,0.6,4.5c0,10.8,0.1,21.6,0,32.4
	c0,2.4,0.7,3.1,3.1,3.1c11.3-0.1,22.6-0.1,33.8,0c6,0,8.5,3.1,8.5,10.1C135.8,68.4,132.6,71.5,127.3,71.5z"/>
<path class="st7" d="M369.2,30.9c0-2.3-0.1-4.6-0.4-6.9C367,9,356.9,0,342,0c-35.3,0-70.5,0-105.8,0c-2.2,0-4.5,0.1-6.7,0.4
	c-13.8,1.9-22.8,11.8-22.8,25.8c-0.1,36.3-0.1,72.6,0,108.9c0,6.8,2,13.1,6.4,18.5c5.2,6.3,12.1,8.8,20.1,8.8c17.9,0,35.8,0,53.8,0
	c18.6,0,37.1,0.1,55.7-0.1c8.5-0.1,15.9-3.2,21.4-10c4.4-5.5,5.3-12,5.3-18.8C369.2,99.3,369.2,65.1,369.2,30.9z M343,70.7
	c-5.6,6.1-8.6,6.1-14.6,0.1c-10.2-10.3-20.5-20.6-30.8-30.8c-0.2-0.2-0.4-0.3-0.6-0.4c-0.7,0.7-0.3,1.5-0.3,2.2
	c0,33.8,0,67.7,0,101.5c0,1,0,2.1,0,3.1c-0.1,3.7-1.8,5.9-5.4,6.8c-2.3,0.6-4.6,0.5-6.9,0.1c-3-0.6-4.9-3-5.3-6.3
	c-0.1-1.5-0.1-3-0.1-4.6c0-33.4,0-66.7,0-100.1c0-0.9,0-1.8,0-2.6c-0.2-0.1-0.4-0.3-0.6-0.4c-4.3,4.4-8.7,8.9-13,13.3
	c-6.6,6.6-13.2,13.2-19.8,19.9c-3.7,3.7-7.3,3.7-11,0.1c-0.6-0.6-1.2-1.1-1.7-1.7c-3.4-3.8-3.3-7.2,0.2-10.8
	C249.1,44,265.2,28,281.3,11.9c4-4,9-4,13.1,0.1c16.2,16.1,32.3,32.2,48.4,48.4C346,63.5,346.1,67.4,343,70.7z"/>
<path class="st7" d="M565.4,14.4c-2.6-5.5-6.3-9.9-12.3-12c-1.4,0.2-2.7-0.2-3.9-0.7c-1.7-0.7-3.5-0.8-5.4-0.6
	c-1.4,1-108.4,1.3-111,0.1c37,0,74,0,111-0.1c-0.8-1-1.9-0.6-2.9-0.6c-35.6,0-71.2,0-106.8,0c-1.1,0-2.2,0-3.4-0.1
	c-9.5,0.2-23,6.8-24.5,22.2c0.4,0.5,0.3,1.1,0.3,1.6c0,38.3,0,76.5,0,114.8c0,0.8,0,1.6,0.1,2.4c2.8,13.2,12.1,21,25.6,21
	c36.6,0,73.2,0,109.8,0c5.5,0,10.6-1.7,15.2-4.6c7.9-5.1,11.1-12.7,11.1-21.8c0-35.9,0-71.8,0-107.7
	C568.4,23.4,567.5,18.8,565.4,14.4z M538.9,111.6c-2.9,0.7-5.5-0.4-7.9-1.9c-10.4-6.6-20.7-13.3-31-19.9c-0.5-0.3-0.9-0.6-1.8-1.1
	c0,2.6,0,4.8,0,7c0,5.9,0,11.8,0,17.8c0,1.3,0.4,2.3,1.2,3.2c3.8,4.2,7.6,8.5,11.2,12.8c3.8,4.5,1.9,13.2-3.1,14.9
	c-0.9,0.3-1.7,0.3-2.6,0.3c-12.3,0-24.6,0-37,0c-3.9,0-6-1.9-6.8-5.7c-0.8-4.3-0.3-8.1,3.1-11.4c3.8-3.8,7.1-8,10.6-12
	c0.6-0.7,1.3-1.3,1.2-2.5c-0.1-7.9,0-15.8,0-24.3c-5.6,3.6-10.7,6.9-15.9,10.2c-5.7,3.7-11.4,7.4-17.2,11c-7,4.3-15.2,0.5-15.9-7.2
	c-0.5-5.8,2.2-10.2,6-14c5.5-5.6,12.1-9.9,18.3-14.7c7.6-5.9,15.4-11.7,23.1-17.6c1.1-0.9,1.6-1.7,1.6-3.2c-0.1-11.4,0-22.9,0-34.3
	c0-6.5,3-9.6,9.6-9.8c1.1,0,2.2-0.1,3.4,0c5.6,0.2,9,3.6,9,9.3c0,11.4,0.1,22.9,0,34.3c0,1.9,0.6,3,2.1,4.1
	c12.7,9.6,25.3,19.2,37.9,29c3.8,3,7,6.6,8.4,11.4C548.6,104.1,545.4,110,538.9,111.6z"/>
<path class="st6" d="M543.8,1.3c-1.3,0.9-108.4,1.1-110.9,0C469.9,1.3,506.9,1.3,543.8,1.3z"/>
<path class="st0" d="M916.1,218.1c0,0,0.1,0.1,0.1,0.1c0,0-0.1,0.1-0.1,0.1c0,0-0.1-0.1-0.1-0.1C916,218.2,916,218.2,916.1,218.1z"
	/>
</svg>
