<?xml version="1.0" encoding="utf-8"?>
<!-- Generator: Adobe Illustrator 19.1.0, SVG Export Plug-In . SVG Version: 6.00 Build 0)  -->
<svg version="1.1" id="Layer_1" xmlns="http://www.w3.org/2000/svg" xmlns:xlink="http://www.w3.org/1999/xlink" x="0px" y="0px"
	 viewBox="-490 491.5 218.5 218.5" style="enable-background:new -490 491.5 218.5 218.5;" xml:space="preserve">
<style type="text/css">
	.st0{fill:#1D1D1B;}
</style>
<g>
	<path class="st0" d="M-373.8,491.7l-0.6,11.4l34.8-3.6C-350.3,495.2-361.8,492.5-373.8,491.7z M-327.6,505.3
		c-2.1-1.2-4.3-2.3-6.6-3.4l-40.4,4.2l-1.2,24.6c10.4,0.7,20.1,3.7,28.7,8.4L-327.6,505.3z M-376.8,491.6c-1.3,0-2.6-0.1-4-0.1
		c-22.6,0-43.6,6.9-61.1,18.7l64.5-6.7L-376.8,491.6z M-466.7,533.3c-11.9,15.2-19.9,33.6-22.4,53.7l14.3,1.6L-466.7,533.3z
		 M-380.7,530.5c0.7,0,1.4,0,2,0l1.2-24.1l-69.2,7.2c-2.7,2-5.3,4.2-7.8,6.5l26.7,28.4C-415.3,537.3-398.8,530.5-380.7,530.5z
		 M-450.4,591.4c2.1-15.9,9.6-30.1,20.5-40.8l-26.7-28.5c-2.3,2.2-4.4,4.5-6.5,6.9l-8.8,59.9L-450.4,591.4z M-472.3,591.8l-2.5,17.4
		l24.1-2.6c-0.2-2-0.2-3.9-0.2-5.9c0-2.2,0.1-4.3,0.3-6.5L-472.3,591.8z M-310.9,593l38.9-3.5c-0.1-1.3-0.3-2.6-0.5-3.9l-43.6-72.9
		c-1.3-1-2.6-1.9-3.9-2.8l6,68.7C-312.6,583.2-311.5,588-310.9,593z M-309.6,517.9l35.6,59.6C-279.1,553.8-291.9,533.1-309.6,517.9z
		 M-334.7,653.7l18.5,22.2l6.5-11.9l-3.8-43.4C-317.2,633.7-324.7,645.1-334.7,653.7z M-475.2,591.5l-14.3-1.6
		c-0.3,3.6-0.5,7.2-0.5,10.9c0,3.4,0.2,6.7,0.5,10.1l11.7-1.2L-475.2,591.5z M-317.8,569.5l-5.3-61.6c-0.6-0.4-1.3-0.8-1.9-1.2
		l-19.4,33.8C-333.1,547.5-323.8,557.5-317.8,569.5z M-336.9,655.6c-3.2,2.6-6.7,4.9-10.4,6.9l17.8,34.7c0.8-0.4,1.7-0.9,2.5-1.4
		l9.3-17.1L-336.9,655.6z M-322,692.9c3.5-2.2,6.9-4.7,10.1-7.3l-3.7-4.4L-322,692.9z M-314.1,678.4l4.4,5.3
		c0.5-0.5,1.1-0.9,1.6-1.4l-1.1-12.9L-314.1,678.4z M-271.5,600.4l-35.1,64.3l1.3,15.1c20.8-19.9,33.8-47.9,33.8-79
		C-271.5,600.6-271.5,600.5-271.5,600.4z M-271.8,592.5l-38.9,3.5c0.1,1.6,0.2,3.2,0.2,4.8c0,3.5-0.3,7-0.8,10.3l4.2,48.4l35.4-64.9
		C-271.7,593.9-271.8,593.2-271.8,592.5z M-380.7,671c-15.6,0-30-5.1-41.6-13.6l-10.4,13.5l99.4,28.3c0.4-0.2,0.8-0.4,1.2-0.6
		l-17.8-34.7C-359.2,668.4-369.7,671-380.7,671z M-450.4,609.6l-24.9,2.6l-4.9,33.7c1,2.3,2.1,4.5,3.3,6.6l34.1-19
		C-446.7,626.3-449.3,618.2-450.4,609.6z M-424.7,655.5c-6.7-5.4-12.4-11.9-16.7-19.4l-34.1,19c0.8,1.4,1.7,2.8,2.6,4.2l37.2,10.6
		L-424.7,655.5z M-380.7,710c13.8,0,27-2.6,39.2-7.3l-89.9-5.2C-416.3,705.5-399,710-380.7,710z M-489.2,613.7
		c1.1,9.4,3.4,18.5,6.8,27l4.1-28.2L-489.2,613.7z M-470.4,663.1c6.1,8.8,13.6,16.7,22,23.4l10.8-14L-470.4,663.1z M-434.7,673.3
		l-11.5,14.9c2.9,2.1,5.8,4.1,8.9,6l95.4,5.5L-434.7,673.3z"/>
	<g>
		<path class="st0" d="M-437.4,601.5c-0.2,3.4,2.2,4.5,5.2,4.5c2.1,0,4.6-1,4.6-3.4c0-2.4-3.1-2.9-6.2-3.8c-3.1-1-6.1-2.3-6.1-6.5
			c0-5.4,4.9-7.5,9.6-7.5c5,0,9.1,2.2,9.1,7.8h-5.1c0.1-2.7-1.9-3.7-4.4-3.7c-2,0-4.2,0.8-4.2,3c0,2.4,4.1,3,5.8,3.4
			c3.8,1,6.5,2.4,6.5,6.8c0,5.8-5.3,8-9.9,8c-6.7,0-10.1-2.8-10.1-8.6C-442.6,601.5-437.4,601.5-437.4,601.5z"/>
		<path class="st0" d="M-415.6,585.2h5.4l-5.2,24.3h-5.4L-415.6,585.2z"/>
		<path class="st0" d="M-393,607L-393,607c-1.7,2.2-3.9,3.1-6.2,3.1c-6.8,0-10.8-3.9-10.8-10.7c0-7.9,5.1-14.7,13.3-14.7
			c5.7,0,10.3,2.7,10.3,8.6h-5.3c-0.1-2.9-2-4.1-4.9-4.1c-5.5,0-8,5.5-8,10.2c0,3.3,1.6,6.3,5.5,6.3c4,0,5.8-2.1,6.7-5.2h-5.6l0.8-4
			h10.3l-2.8,13.1h-3.3V607z"/>
		<path class="st0" d="M-381.8,585.2h5.5l6.6,17.3h0.1l3.5-17.3h4.9l-5.1,24.3h-5.3l-6.7-17h-0.1l-3.5,17h-5L-381.8,585.2z"/>
		<path class="st0" d="M-349.9,585.2h5.5l4,24.3h-5.3l-0.8-5.4h-9.1l-3.1,5.4h-5.6L-349.9,585.2z M-353.4,600.1h6.5l-1.2-9.7h-0.1
			L-353.4,600.1z"/>
		<path class="st0" d="M-333.3,585.2h5.4L-332,605h11.7l-1,4.5h-17.1L-333.3,585.2z"/>
		<path class="st0" d="M-410.3,623.1c0.4-2.8,2.8-4.1,5.5-4.1c2.5,0,4.7,0.7,4.7,3.3c0,0.7-0.2,1.6-0.4,2.3l-0.8,3.5
			c-0.1,0.5-0.3,1.2-0.3,1.8c0,0.6,0.3,0.8,0.6,0.8c0.2,0,0.5-0.1,0.7-0.2l-0.3,1.6c-0.3,0.2-0.9,0.3-1.3,0.3
			c-1.2,0-1.8-0.7-1.7-1.8l0,0c-0.9,1.2-2.1,1.8-4.3,1.8c-2.1,0-3.9-1-3.9-3.6c0-3.7,3.6-3.9,6.4-4.2c2.2-0.2,3.2-0.3,3.2-2
			c0-1.4-1.5-1.7-2.6-1.7c-1.6,0-3.2,0.6-3.4,2.3h-2.1V623.1z M-407.4,630.5c1.6,0,2.8-0.5,3.6-1.7c0.7-1,0.8-2.1,1.1-3.3l0,0
			c-0.9,0.5-2.6,0.7-4.1,0.9c-1.5,0.2-2.8,0.7-2.8,2.3C-409.7,629.9-408.6,630.5-407.4,630.5z"/>
		<path class="st0" d="M-388.4,632h-2l0.4-1.9l0,0c-1.1,1.4-2.8,2.2-4.5,2.2c-2.4,0-3.6-1-3.6-3.3c0-0.5,0.1-1.5,0.4-2.5l1.6-7.3
			h2.1l-1.6,7.4c-0.1,0.5-0.3,1.5-0.3,2c0,1.2,1,1.8,2.2,1.8c2.3,0,4.1-2,4.6-4.1l1.5-7h2.1L-388.4,632z"/>
		<path class="st0" d="M-373.9,632h-2l0.4-1.8l0,0c-1.3,1.7-2.5,2.1-4.2,2.1c-3.3,0-5-2.1-5-5.2c0-3.9,2.6-8.1,7.1-8.1
			c1.6,0,3.5,0.5,4,2.2l0,0l1.4-6.8h2.1L-373.9,632z M-379.3,630.5c3.2,0,5-3.7,5-6.3c0-1.9-1.1-3.3-3.2-3.3c-3.3,0-5.1,3.5-5.1,6.3
			C-382.6,629.1-381.6,630.5-379.3,630.5z"/>
		<path class="st0" d="M-367.7,619.3h2.1l-2.7,12.7h-2.1L-367.7,619.3z M-365.1,617h-2.1l0.5-2.6h2.1L-365.1,617z"/>
		<path class="st0" d="M-356.5,619c3.4,0,5.3,1.9,5.3,5.3c0,4.2-2.6,8.1-7,8.1c-3.4,0-5.4-2.2-5.4-5.3
			C-363.6,622.8-360.9,619-356.5,619z M-358,630.5c3.1,0,4.7-3.5,4.7-6c0-2-1.1-3.6-3.4-3.6c-3.2,0-4.9,3.5-4.9,6.1
			C-361.5,629-360.3,630.5-358,630.5z"/>
	</g>
</g>
</svg>
