<?xml version="1.0" encoding="utf-8"?>
<!-- Generator: Adobe Illustrator 19.1.0, SVG Export Plug-In . SVG Version: 6.00 Build 0)  -->
<svg version="1.1" xmlns="http://www.w3.org/2000/svg" xmlns:xlink="http://www.w3.org/1999/xlink" x="0px" y="0px"
	 viewBox="0 0 559.8 170.3" style="enable-background:new 0 0 559.8 170.3;" xml:space="preserve">
<g id="Layer_2">
	<g>
		<path d="M54.6,5.2C49.3,6.9,44,9.1,38.8,11.9c3,2.5,6.1,5.1,9.3,7.9C50.3,14.7,52.5,9.8,54.6,5.2z"/>
		<path d="M48.5,156.2c-7.2-4.5-14-10-20-16.4c-6-6.4-11.3-13.8-15.3-22.1c-4-8.2-6.9-17.3-8-26.9C4,81.2,4.6,71.1,7.3,61.3
			c1.3-4.5,3-8.8,5.1-12.9c0.3-0.4,0.6-0.9,0.8-1.4c2.1-3.6,4.5-7.1,7.3-10.3c-0.9,1.1-1.8,2.3-2.6,3.5c-1.7,2.4-2.7,4.7-2.4,5.1
			c0.2,0.1,0.5-0.2,1-0.7c-5.1,9.2-7.7,19.3-8.3,29.1c-0.3,2.9-0.3,5.6-0.1,7.9c-0.6,11.2,1.5,22.5,5.4,32.9c0.3,0.9,0.6,1.7,1,2.6
			c0.1,0.2,0.2,0.4,0.2,0.5c0.8-10.8,11.1-42.9,26-79.9c0.4-0.9,0.7-1.8,1.1-2.6c-5.5-5.1-10.6-10-15.3-14.6
			c-4.8,4.2-9.1,8.9-12.7,14.1C8.6,42,4.9,50.2,2.7,58.6c-2.2,8.4-3,16.9-2.5,25.2c0.5,8.3,2.2,16.4,4.8,24
			c4.5,12.8,11.4,22.5,19,30.4c7.7,7.9,16.2,14,25.6,19.2c0.5,0.3,0.7,0.2,0.5-0.1C49.7,156.9,49,156.4,48.5,156.2z"/>
		<path d="M169.7,64.5c-0.8-7.4-2.9-14.5-5.9-21c-6.1-13.1-16.2-23.8-27.9-30.9C127.2,7.2,118,3.9,109.1,2
			c-4.5-0.9-8.9-1.5-13.3-1.8C93.7,0.1,91.5,0,89.4,0c-1.1,0-2.1,0-3.2,0c-1,0-2.1,0.1-3.1,0.1c-3.9,0.2-7.9,0.6-11.9,1.2
			c-3,8.7-6.4,18.3-10.4,28.5c32.4-6.7,57.3-9.2,58.1-5.5c0.9,3.7-22.6,12.4-54.7,20.6c24.1,22.7,40.4,41.7,37.9,44.5
			c-2.6,2.9-24.7-12.5-51-35.4C38.6,84,26.6,108.2,20,117.4c3.8,6.1,8.2,11.6,13.1,16.4c9.2,10.9,21,19.4,33.6,25.3
			c12.6,5.9,26.1,9.4,39.6,11c1.3,0.2,2.4,0.1,2.4-0.1c0-0.2-1.1-0.6-2.4-0.8c-15.1-2.7-29.9-7.6-43.2-15.4c1,0.4,2,0.9,3,1.3
			c1,0.5,1.9,0.9,2.9,1.3c8.9,4.3,18.3,7.4,27.9,9.4c3.6,0.8,6.7,0.8,7,0.2c0.2-0.7-2.4-1.6-5.8-2.4l1.7,0.2c0.6,0.1,1,0,0.9-0.1
			c-0.2-0.2-0.9-0.4-1.4-0.5c-2-0.3-4-0.6-6-0.9c-8.9-2.4-17.5-5.7-25.6-9.9c-8.1-4.2-15.7-9.5-22.3-15.8c7.3,6.5,15.7,11.9,24.7,16
			c9,4.2,18.5,7.2,28.3,9.2c-0.4,0-0.5,0.1,0,0.3c0.4,0.2,1.2,0.3,1.7,0.3c0.5,0,0.4-0.2,0-0.3l0,0c10.5,2.1,21.3,3.1,32.2,3.2
			c0.6,0,1.2-0.1,1.2-0.2c0-0.1-0.6-0.2-1.3-0.2c-17.9-0.3-35.8-2.8-52.3-8.8c-8.2-3-16.1-6.9-23.4-11.7
			c-7.3-4.8-13.9-10.6-19.4-17.2c-1.2-1.5-2.3-3-3.3-4.6l0,0c0.1-0.8-0.2-2.1-0.7-3.7c6.4,10.2,15.2,18.8,25.2,25.4
			c8.2,5.7,17.4,10.2,27,13.5c1.4,0.5,2.6,0.6,2.7,0.3c0.1-0.3-1-0.8-2.4-1.3c-2.3-0.8-4.6-1.7-6.9-2.6c2,0.4,3.4,0.4,3.7-0.1
			c0.3-0.5-0.5-1.3-1.9-2.2c10,3.4,20.5,5.3,30.8,6c0.6,0,0.9,0,0.7-0.2c-0.2-0.1-0.8-0.3-1.4-0.3c-14.8-1.7-29.1-5.5-41.9-12.2
			c-9.6-6.2-17.8-13.7-24.8-23.1c-2.7-3.7-5.1-7.5-7.1-11.5c0.3,0.2,0.6,0.3,0.9,0.5c0.2,0.4,0.5,0.9,0.7,1.3l-0.3,0.1
			c0.2,0.2,0.5,0.4,0.7,0.7c5,8.5,11.9,15.8,19.9,21.7c9.2,6.7,19.9,11.5,31.1,14.6c11.2,3.1,23,4.4,35,4.6c3.1,0.1,5.3-0.5,4.9-1.1
			c-0.3-0.6-3.1-1.1-6.1-1.2c-11.3-0.7-21.9-2.2-32.1-4.9c-10.2-2.7-19.9-6.7-28.9-12.6c-6.4-4.2-11.7-9-16.3-14.4
			c-0.7-0.9-1.5-1.8-2.2-2.8c3.3,2.1,7.1,4.2,9.9,6c1.2,0.7,2.5,1.3,3.8,1.9c2.8,1.5,7.4,3,13,4.1c2,0.4,4,0.7,6,1
			c1.3,0.1,2.6,0.2,3.9,0.3c-6.6,0.6-10.4,1.5-9.4,3.2c0.9,1.4,5,3,11.2,4.1c6.2,1,14.6,1.4,23.8-0.2c6.1-0.9,12.3-2.4,18.5-4.7
			c6.2-2.3,12.4-5.4,18.2-9.6c5.8-4.2,11.2-9.4,15.6-15.7c4.4-6.2,7.6-13.3,9.5-20.7C170,79.5,170.5,71.8,169.7,64.5z M34.5,106.1
			c-0.4-1-0.9-2.1-1.3-3.1c0.3,0.3,0.6,0.5,0.9,0.8c0.3,0.7,0.6,1.4,0.9,2.2C34.9,106,34.7,106,34.5,106.1z M40.4,111.6
			c0-0.1-0.1-0.1-0.1-0.2l2.8-1c0,0,0,0,0,0L40.4,111.6z"/>
		<path d="M88.5,169.7c-0.3-0.2-1-0.5-1.6-0.6c-3.1-0.7-6.1-1.4-8.8-2.1c-0.3-0.1-0.5-0.1-0.6,0c-0.5-0.3-1.5-0.7-2.4-1.1
			c-10.7-3.9-20.9-9.1-30.1-16c-9.2-6.9-17.4-15.5-23.6-25.9c6.6,9.8,14.9,18.5,24.9,25.7c6,4.3,12.2,7.7,18.6,10.5
			c6.4,2.8,13,5.1,19.9,7.1c0.7,0.2,1.2,0.3,1.2,0.1c-0.1-0.1-0.6-0.4-1.3-0.6c-14.1-4.1-27.2-9.8-38.9-18.2
			c-5.8-4.2-11.3-9.1-16.2-14.9c-3.9-4.6-7.4-9.8-10.3-15.6c-1.2,1.6-2.2,2.6-2.9,3c0.9,1.5,1.8,2.8,2.5,3.5
			c0.4,0.4,0.7,0.6,0.9,0.7c6.7,10.6,15.5,19.7,25.2,26.7c9.8,7,20.5,12.1,31.2,15.2c1.1,0.3,1.7,0.3,1.6,0.1
			c0.4,0.2,0.9,0.4,1.4,0.5l8.4,1.9C88.4,169.9,88.8,169.9,88.5,169.7z"/>
	</g>
</g>
<g id="Layer_4">
	<g>
		<g>
			<path d="M225.4,41.4c-0.4,0.7-0.4,1.2-1,1.2c-0.4,0-0.8-0.2-1.3-0.5c-1.8-0.9-6.5-3.2-11.7-3.2c-5.5,0-9.8,2.9-9.8,9.1
				c0,9.7,12.1,11.5,19.5,17.6c5,4.1,7.5,8.4,7.5,14.5c0,11.3-8.3,18.1-19.6,18.1c-8.6,0-15.4-4-16.8-4.6c-0.5-0.2-0.7-0.6-0.7-1
				c0-0.3,0.3-0.7,0.4-1.1l1.2-3.1c0.3-0.7,0.5-1.2,1-1.2c0.4,0,0.8,0.2,1.3,0.5c1.8,0.8,7.5,3.9,14,3.9c6.9,0,11-4.3,11-10.5
				c0-15.3-27-13-27-32.2c0-10.6,8.8-16.5,18.4-16.5c7.4,0,13.3,3.3,14.6,4c0.5,0.3,0.7,0.7,0.7,1c0,0.3-0.3,0.7-0.4,1.1L225.4,41.4
				z"/>
			<path d="M235.6,67.1c0-3.5,0-5.9-1.1-9.2c-0.4-1.1-1.7-2.9-1.7-3.4c0-0.4,0.5-0.6,0.8-0.7l3.6-2.2c0.4-0.2,0.6-0.3,0.7-0.3
				c1.3,0,3,4,3.3,5.5c2.2-1.6,6.7-5.5,13.6-5.5c9.9,0,14.4,11.1,14.4,22.6c0,13.3-4.7,24.4-15.4,24.4c-5.6,0-8.8-1.6-11.3-3.1v18.9
				c0,0.6-0.3,1-0.6,1.1l-4.6,1.1c-0.7,0.2-0.5,0.1-1.1,0.2c-0.6,0-0.6-0.7-0.6-1.2V67.1z M242.6,88.9c3,1.6,5.8,3.1,10.4,3.1
				c8,0,8.7-9.1,8.7-18c0-7.8-0.6-16.5-8.1-16.5c-4.8,0-8.7,2.7-11,4.5V88.9z"/>
			<path d="M304.4,82.2c0,5.8,0.3,6.7,1.1,9.2c0.4,1.1,1.7,2.9,1.7,3.4c0,0.4-0.5,0.6-0.8,0.7l-3.6,2.2c-0.4,0.2-0.6,0.3-0.7,0.3
				c-1.4,0-3.1-4.9-3.5-6.2c-1.1,1-5.6,6.2-13.3,6.2c-7.3,0-12-4.8-12-13c0-15.6,18.5-15.9,24.2-16.1v-3.3c0-5.4-1.7-8.3-8.2-8.3
				c-6.2,0-10.4,3-11.3,3c-0.3,0-0.6-0.2-0.6-0.5l-1.2-3.2c-0.2-0.5-0.3-0.7-0.3-1.2c0-1.6,8.5-4.3,14.4-4.3
				c10.6,0,14.2,5.2,14.2,12.9V82.2z M297.4,74.8c-4.1,0.1-17.3,0.1-17.3,9.8c0,3.7,2,7.9,6.7,7.9c4.8,0,9.1-4.4,10.5-5.7V74.8z"/>
			<path d="M322,95.7c0,0.7-0.4,1.1-1.1,1.1H316c-0.7,0-1.1-0.4-1.1-1.1V64c0-1.7-0.3-4.7-1.6-7c-0.7-1.3-1-2-1-2.3
				c0.1-0.6,0.5-0.8,0.6-0.9l3.4-2.1c0.4-0.3,0.7-0.5,0.9-0.5c1.7,0,3.2,5.7,3.6,7.8c2.4-2.6,5.7-7.8,11.1-7.8
				c2.1,0,4.5,0.7,4.5,1.6c0,0.2-0.2,0.5-0.3,0.7l-2,4.7c-0.1,0.2-0.2,0.6-0.6,0.6c-0.5,0-1.3-0.8-3.1-0.8c-3.2,0-6.5,4.8-8.7,7.2
				V95.7z"/>
			<path d="M370.2,93.6c0.2,0.3,0.6,0.6,0.6,1.1c0,0.4-0.4,0.5-0.6,0.6l-3.2,2.2c-0.4,0.2-0.7,0.6-1.1,0.6c-0.5,0-0.8-0.5-1-0.7
				l-18.9-23.3h-0.2v21.6c0,0.7-0.4,1.1-1.1,1.1H340c-0.7,0-1.1-0.4-1.1-1.1V32.3c0-0.6,0.3-1,0.6-1.1l4.6-1.1
				c0.7-0.2,0.5-0.1,1.1-0.2c0.6,0,0.6,0.7,0.6,1.2v41.7l18.4-20.9c0.3-0.3,0.6-0.7,1-0.7c0.4,0,0.7,0.4,1.1,0.6l3.2,2.2
				c0.2,0.2,0.6,0.3,0.6,0.6c0,0.5-0.4,0.8-0.6,1.1L353.9,73L370.2,93.6z"/>
		</g>
		<path d="M407.8,91.2c0.6,0,1.1,0.2,1.1,0.7c0,0.4-0.3,0.7-0.4,1.2l-1.3,3.5c-0.3,0.7-0.8,1-1.5,1h-27.9c-0.7,0-1.1-0.4-1.1-1.1
			V35.5c0-0.7,0.4-1.1,1.1-1.1h5.4c0.7,0,1.1,0.4,1.1,1.1v55.7H407.8z"/>
		<path d="M421.6,96.6c0,0.7-0.4,1.1-1.1,1.1h-4.8c-0.7,0-1.1-0.4-1.1-1.1V59.1h-7.3c-0.7,0-1.1-0.4-1.1-1.1v-3.5
			c0-0.7,0.4-1.1,1.1-1.1h13.1c1,0,1.2,0.6,1.2,1.4V96.6z"/>
		<path d="M456.4,53.3h-13.7V39.1c0-0.6,0-1-0.5-1c-0.2,0-0.4,0.1-0.6,0.1l-4.9,1.4c-0.6,0.2-1,0.6-1,1.1v12.7h-6.9
			c-0.6,0-0.6,0.5-0.6,1.1V58c0,0.5,0,1.1,0.6,1.1h6.9v37.5c0,0.7,0.4,1.1,1.1,1.1h4.8c0.7,0,1.1-0.4,1.1-1.1V59.1h12.2
			c0.6,0,1-0.4,1.2-0.8l1.2-3.6c0-0.3,0.1-0.5,0.1-0.6C457.4,53.4,456.9,53.3,456.4,53.3z"/>
		<path d="M417.2,44.5c-2.3,0-4.2-1.9-4.2-4.2c0-2.3,1.9-4.2,4.2-4.2c2.3,0,4.2,1.9,4.2,4.2C421.4,42.7,419.6,44.5,417.2,44.5z"/>
		<path d="M476.9,99c-12.5,0-17.8-10.1-17.8-23.3c0-12.8,5.4-23.7,18.8-23.7c12.7,0,18,10.2,18,23.2C495.9,88.2,490.4,99,476.9,99z
			 M488.3,75.1c0-9.1-2.5-17.4-10.8-17.4c-8.3,0-10.8,8-10.8,17.1c0,10.5,2.4,18.4,10.9,18.4C485.8,93.3,488.3,85.8,488.3,75.1z"/>
		<path d="M510.8,96.6c0,0.7-0.4,1.1-1.1,1.1h-4.8c-0.7,0-1.1-0.4-1.1-1.1V64.9c0-1.7-0.3-4.7-1.6-7c-0.7-1.3-1-2-1-2.3
			c0.1-0.6,0.5-0.8,0.6-0.9l3.4-2.1c0.4-0.3,0.7-0.5,0.9-0.5c1.7,0,3.2,5.7,3.6,7.8c2.4-2.6,5.7-7.8,11.1-7.8c2.1,0,4.5,0.7,4.5,1.6
			c0,0.2-0.2,0.5-0.3,0.7l-2,4.7c-0.1,0.2-0.2,0.6-0.6,0.6c-0.5,0-1.3-0.8-3-0.8c-3.2,0-6.5,4.8-8.7,7.2V96.6z"/>
		<path d="M557,79.9c0,5.2,0.6,16,0.6,21c0,8.4-3.8,16.3-16.3,16.3c-6.9,0-15.5-3.1-15.5-4.9c0-0.5,0.1-0.6,0.4-1.2l1.5-3.1
			c0.1-0.3,0.3-0.6,0.6-0.6c0.7,0,6.3,3.6,12.7,3.6c8.6,0,9.6-5,9.6-10c0-4.6-0.3-8.4-0.3-9.5c-2.1,1.8-6.4,5.1-12.6,5.1
			c-8.4,0-14.2-7.4-14.2-20.4c0-14.5,5.6-24,17.4-24c6.1,0,9.7,3.1,10.9,4c0.8-2.3,1.8-4,2.7-4c0.4,0,0.6,0.1,0.8,0.2l4.2,2.6
			c0.4,0.3,0.4,0.4,0.4,0.6c0,0.7-0.8,1.2-1.7,3.4c-0.8,2.3-1.2,3.5-1.2,6.8V79.9z M550,60.7c-1.6-0.7-4.8-2.5-8.5-2.5
			c-7,0-10.4,6.2-10.4,16.1c0,9.8,1.8,16,8,16c4.8,0,8.7-3.1,10.8-4.6V60.7z"/>
		<g>
			<g>
				<path d="M264.6,131.9c0,0.2-0.1,0.3-0.3,0.3h-6.6c-0.2,0-0.3-0.1-0.3-0.3v-1c0-0.2,0.1-0.3,0.3-0.3h2.3v-13.8h-2.3
					c-0.2,0-0.3-0.1-0.3-0.3v-1c0-0.2,0.1-0.3,0.3-0.3h6.6c0.2,0,0.3,0.1,0.3,0.3v1c0,0.2-0.1,0.3-0.3,0.3H262v13.8h2.3
					c0.2,0,0.3,0.1,0.3,0.3V131.9z"/>
				<path d="M275.4,127.4c0,1.4,0.2,4.3,0.2,5.6c0,2.3-1,4.4-4.4,4.4c-1.9,0-4.2-0.8-4.2-1.3c0-0.1,0-0.2,0.1-0.3l0.4-0.8
					c0-0.1,0.1-0.1,0.2-0.1c0.2,0,1.7,1,3.4,1c2.3,0,2.6-1.3,2.6-2.7c0-1.2-0.1-2.3-0.1-2.6c-0.6,0.5-1.7,1.4-3.4,1.4
					c-2.3,0-3.8-2-3.8-5.5c0-3.9,1.5-6.5,4.7-6.5c1.6,0,2.6,0.8,2.9,1.1c0.2-0.6,0.5-1.1,0.7-1.1c0.1,0,0.2,0,0.2,0l1.1,0.7
					c0.1,0.1,0.1,0.1,0.1,0.1c0,0.2-0.2,0.3-0.4,0.9c-0.2,0.6-0.3,0.9-0.3,1.8V127.4z M273.5,122.3c-0.4-0.2-1.3-0.7-2.3-0.7
					c-1.9,0-2.8,1.7-2.8,4.3c0,2.6,0.5,4.3,2.2,4.3c1.3,0,2.3-0.8,2.9-1.2V122.3z"/>
				<path d="M288.4,131.9c0,0.2-0.1,0.3-0.3,0.3h-1.3c-0.2,0-0.3-0.1-0.3-0.3v-8.3c0-1.1-0.3-2-1.6-2c-1.6,0-2.7,1-3.3,1.5v8.8
					c0,0.2-0.1,0.3-0.3,0.3H280c-0.2,0-0.3-0.1-0.3-0.3v-8.6c0-0.8,0-1.1-0.1-1.5c-0.2-0.7-0.4-0.9-0.4-1c0,0,0-0.1,0.1-0.2l1.1-0.6
					c0,0,0.1-0.1,0.2-0.1c0.4,0,0.7,1.5,0.8,1.7c0.8-0.6,2.1-1.7,4-1.7c2.8,0,3,1.9,3,3.7V131.9z"/>
				<path d="M295.2,131.9c0,0.2-0.1,0.3-0.3,0.3h-1.3c-0.2,0-0.3-0.1-0.3-0.3v-10.1h-1.9c-0.2,0-0.3-0.1-0.3-0.3v-0.9
					c0-0.2,0.1-0.3,0.3-0.3h3.5c0.3,0,0.3,0.1,0.3,0.4V131.9z M294.1,117.4c-0.8,0-1.5-0.7-1.5-1.5c0-0.8,0.7-1.5,1.5-1.5
					c0.8,0,1.5,0.7,1.5,1.5C295.6,116.8,294.9,117.4,294.1,117.4z"/>
				<path d="M306,131.3c0,0.1,0,0.2,0,0.2c0,0.3-1.9,1-3.2,1c-1.1,0-2-0.4-2.3-0.9c-0.7-0.8-0.7-1.9-0.7-2.8v-7.1H298
					c-0.2,0-0.2-0.2-0.2-0.3v-0.9c0-0.2,0-0.3,0.2-0.3h1.9v-3.4c0-0.1,0.1-0.2,0.3-0.3l1.3-0.4c0.1,0,0.1,0,0.2,0
					c0.1,0,0.1,0.1,0.1,0.3v3.8h3.7c0.1,0,0.3,0,0.3,0.2c0,0,0,0.1,0,0.2l-0.3,1c0,0.1-0.2,0.2-0.3,0.2h-3.3v7.1c0,1,0,2,1.5,2
					c1.2,0,2.2-0.7,2.4-0.7c0.1,0,0.2,0.1,0.2,0.1L306,131.3z"/>
				<path d="M310.8,131.9c0,0.2-0.1,0.3-0.3,0.3h-1.3c-0.2,0-0.3-0.1-0.3-0.3v-10.1H307c-0.2,0-0.3-0.1-0.3-0.3v-0.9
					c0-0.2,0.1-0.3,0.3-0.3h3.5c0.3,0,0.3,0.1,0.3,0.4V131.9z M309.8,117.4c-0.8,0-1.5-0.7-1.5-1.5c0-0.8,0.7-1.5,1.5-1.5
					c0.8,0,1.5,0.7,1.5,1.5C311.3,116.8,310.6,117.4,309.8,117.4z"/>
				<path d="M323.8,131.9c0,0.2-0.1,0.3-0.3,0.3h-1.3c-0.2,0-0.3-0.1-0.3-0.3v-8.3c0-1.1-0.3-2-1.6-2c-1.6,0-2.7,1-3.3,1.5v8.8
					c0,0.2-0.1,0.3-0.3,0.3h-1.3c-0.2,0-0.3-0.1-0.3-0.3v-8.6c0-0.8,0-1.1-0.1-1.5c-0.2-0.7-0.4-0.9-0.4-1c0,0,0-0.1,0.1-0.2
					l1.1-0.6c0,0,0.1-0.1,0.2-0.1c0.4,0,0.7,1.5,0.8,1.7c0.8-0.6,2.1-1.7,4-1.7c2.8,0,3,1.9,3,3.7V131.9z"/>
				<path d="M335.7,127.4c0,1.4,0.2,4.3,0.2,5.6c0,2.3-1,4.4-4.4,4.4c-1.9,0-4.2-0.8-4.2-1.3c0-0.1,0-0.2,0.1-0.3l0.4-0.8
					c0-0.1,0.1-0.1,0.2-0.1c0.2,0,1.7,1,3.4,1c2.3,0,2.6-1.3,2.6-2.7c0-1.2-0.1-2.3-0.1-2.6c-0.6,0.5-1.7,1.4-3.4,1.4
					c-2.3,0-3.8-2-3.8-5.5c0-3.9,1.5-6.5,4.7-6.5c1.6,0,2.6,0.8,2.9,1.1c0.2-0.6,0.5-1.1,0.7-1.1c0.1,0,0.2,0,0.2,0l1.1,0.7
					c0.1,0.1,0.1,0.1,0.1,0.1c0,0.2-0.2,0.3-0.4,0.9c-0.2,0.6-0.3,0.9-0.3,1.8V127.4z M333.8,122.3c-0.4-0.2-1.3-0.7-2.3-0.7
					c-1.9,0-2.8,1.7-2.8,4.3c0,2.6,0.5,4.3,2.2,4.3c1.3,0,2.3-0.8,2.9-1.2V122.3z"/>
			</g>
			<g>
				<path d="M355.2,130.7c0.1,0.1,0.1,0.2,0.1,0.3c0,0.4-1.8,1.9-4,1.9c-4.2,0-5.7-3.9-5.7-9c0-4.7,1.2-8.7,5.5-8.7
					c2.2,0,4,1.5,4,1.9c0,0.1,0,0.2-0.1,0.3l-0.5,0.7c-0.1,0.1-0.1,0.2-0.2,0.2c-0.2,0-1.6-1.5-3-1.5c-2.7,0-3.4,2.6-3.4,6.8
					c0,4.6,1,7.6,3.5,7.6c1.4,0,2.8-1.5,3-1.5c0.1,0,0.2,0.1,0.2,0.2L355.2,130.7z"/>
				<path d="M357.9,115.3c0-0.2,0.1-0.3,0.2-0.3l1.2-0.3c0.2,0,0.1,0,0.3,0c0.2,0,0.2,0.2,0.2,0.3v7.1c0.8-0.6,2.1-1.7,3.9-1.7
					c2.8,0,3,1.9,3,3.7v8.2c0,0.2-0.1,0.3-0.3,0.3h-1.3c-0.2,0-0.3-0.1-0.3-0.3V124c0-1.1-0.3-2-1.6-2c-1.6,0-2.7,1-3.4,1.5v8.8
					c0,0.2-0.1,0.3-0.3,0.3h-1.3c-0.2,0-0.3-0.1-0.3-0.3V115.3z"/>
				<path d="M372.7,132.3c0,0.2-0.1,0.3-0.3,0.3h-1.3c-0.2,0-0.3-0.1-0.3-0.3v-8.5c0-0.4-0.1-1.3-0.4-1.9c-0.2-0.3-0.3-0.5-0.3-0.6
					c0-0.1,0.1-0.2,0.2-0.2l0.9-0.6c0.1-0.1,0.2-0.1,0.2-0.1c0.4,0,0.9,1.5,1,2.1c0.6-0.7,1.5-2.1,3-2.1c0.6,0,1.2,0.2,1.2,0.4
					c0,0,0,0.1-0.1,0.2l-0.5,1.3c0,0,0,0.2-0.1,0.2c-0.1,0-0.3-0.2-0.8-0.2c-0.9,0-1.7,1.3-2.3,1.9V132.3z"/>
				<path d="M381.3,132.3c0,0.2-0.1,0.3-0.3,0.3h-1.3c-0.2,0-0.3-0.1-0.3-0.3v-10.1h-1.9c-0.2,0-0.3-0.1-0.3-0.3V121
					c0-0.2,0.1-0.3,0.3-0.3h3.5c0.3,0,0.3,0.1,0.3,0.4V132.3z M380.2,117.8c-0.8,0-1.5-0.7-1.5-1.5c0-0.8,0.7-1.5,1.5-1.5
					c0.8,0,1.5,0.7,1.5,1.5S381.1,117.8,380.2,117.8z"/>
				<path d="M391.2,122.3c-0.1,0.2-0.1,0.3-0.3,0.3c-0.2,0-1.2-0.7-2.5-0.7c-1,0-1.8,0.5-1.8,1.6c0,2.7,5.5,2,5.5,5.8
					c0,2.3-1.8,3.5-4,3.5c-1.2,0-3.8-0.7-3.8-1.2c0-0.1,0-0.2,0.1-0.3l0.3-0.8c0.1-0.2,0.1-0.2,0.2-0.2c0.2,0,1.5,0.9,3.2,0.9
					c1.1,0,2-0.6,2-1.8c0-2.6-5.5-2-5.5-5.8c0-2,1.6-3.5,3.8-3.5c0.8,0,2.3,0.4,2.9,0.7c0.2,0.1,0.3,0.2,0.3,0.3
					c0,0.1-0.1,0.1-0.1,0.2L391.2,122.3z"/>
				<path d="M401.8,131.7c0,0.1,0,0.2,0,0.2c0,0.3-1.9,1-3.2,1c-1.1,0-2-0.4-2.3-0.9c-0.7-0.8-0.7-1.9-0.7-2.8v-7.1h-1.9
					c-0.2,0-0.2-0.2-0.2-0.3V121c0-0.2,0-0.3,0.2-0.3h1.9v-3.4c0-0.1,0.1-0.2,0.3-0.3l1.3-0.4c0.1,0,0.1,0,0.2,0
					c0.1,0,0.1,0.1,0.1,0.3v3.8h3.7c0.1,0,0.3,0,0.3,0.2c0,0,0,0.1,0,0.2l-0.3,1c0,0.1-0.2,0.2-0.3,0.2h-3.3v7.1c0,1,0,2,1.5,2
					c1.2,0,2.2-0.7,2.4-0.7c0.1,0,0.2,0.1,0.2,0.1L401.8,131.7z"/>
				<path d="M406.6,132.3c0,0.2-0.1,0.3-0.3,0.3H405c-0.2,0-0.3-0.1-0.3-0.3v-10.1h-1.9c-0.2,0-0.3-0.1-0.3-0.3V121
					c0-0.2,0.1-0.3,0.3-0.3h3.5c0.3,0,0.3,0.1,0.3,0.4V132.3z M405.5,117.8c-0.8,0-1.5-0.7-1.5-1.5c0-0.8,0.7-1.5,1.5-1.5
					c0.8,0,1.5,0.7,1.5,1.5S406.4,117.8,405.5,117.8z"/>
				<path d="M417.9,128.7c0,1.6,0.1,1.8,0.3,2.5c0.1,0.3,0.4,0.8,0.4,0.9c0,0.1-0.1,0.1-0.2,0.2l-1,0.6c-0.1,0-0.1,0.1-0.2,0.1
					c-0.4,0-0.8-1.3-0.9-1.7c-0.3,0.3-1.5,1.7-3.6,1.7c-2,0-3.2-1.3-3.2-3.5c0-4.2,5-4.3,6.5-4.3v-0.9c0-1.4-0.4-2.2-2.2-2.2
					c-1.7,0-2.8,0.8-3,0.8c-0.1,0-0.1,0-0.2-0.1l-0.3-0.9c0-0.1-0.1-0.2-0.1-0.3c0-0.4,2.3-1.1,3.9-1.1c2.9,0,3.8,1.4,3.8,3.5V128.7
					z M416,126.7c-1.1,0-4.6,0-4.6,2.6c0,1,0.5,2.1,1.8,2.1c1.3,0,2.4-1.2,2.8-1.5V126.7z"/>
				<path d="M430.7,132.3c0,0.2-0.1,0.3-0.3,0.3h-1.3c-0.2,0-0.3-0.1-0.3-0.3V124c0-1.1-0.3-2-1.6-2c-1.6,0-2.7,1-3.3,1.5v8.8
					c0,0.2-0.1,0.3-0.3,0.3h-1.3c-0.2,0-0.3-0.1-0.3-0.3v-8.6c0-0.8,0-1.1-0.1-1.5c-0.2-0.7-0.4-0.9-0.4-1c0,0,0-0.1,0.1-0.2
					l1.1-0.6c0,0,0.1-0.1,0.2-0.1c0.4,0,0.7,1.5,0.8,1.7c0.8-0.6,2.1-1.7,4-1.7c2.8,0,3,1.9,3,3.7V132.3z"/>
			</g>
			<g>
				<path d="M445.1,132.3c0,0.1-0.1,0.3-0.2,0.3H443c-0.2,0-0.2-0.1-0.2-0.3l-3.1-16.2c0-0.1,0-0.2,0-0.3c0-0.1,0.2-0.2,0.3-0.2
					l1.2-0.3c0.1,0,0.2-0.1,0.3-0.1c0.1,0,0.2,0.2,0.2,0.4l2.1,12.1c0.1,0.4,0.1,2,0.2,2.6h0c0.1-1,0.1-1.9,0.3-2.8l2.4-11.9
					c0-0.1,0-0.3,0.2-0.3h1.6c0.2,0,0.2,0.1,0.2,0.3l2.1,12.3c0.1,0.6,0.2,1.6,0.2,2.4h0c0-0.8,0-1.8,0.2-2.5l2.3-12.3
					c0-0.2,0.1-0.4,0.2-0.4c0.1,0,0.2,0,0.3,0.1l1.2,0.3c0.2,0,0.3,0.1,0.3,0.2c0,0.1,0,0.2,0,0.3l-3.4,16.2c0,0.1,0,0.3-0.2,0.3
					H450c-0.2,0-0.2-0.1-0.2-0.3l-2.1-13.7h0L445.1,132.3z"/>
				<path d="M460.4,132.1c0,0.2-0.1,0.3-0.3,0.3h-1.3c-0.2,0-0.3-0.1-0.3-0.3v-8.5c0-0.4-0.1-1.3-0.4-1.9c-0.2-0.3-0.3-0.5-0.3-0.6
					c0-0.1,0.1-0.2,0.2-0.2l0.9-0.6c0.1-0.1,0.2-0.1,0.2-0.1c0.4,0,0.9,1.5,1,2.1c0.6-0.7,1.5-2.1,3-2.1c0.6,0,1.2,0.2,1.2,0.4
					c0,0,0,0.1-0.1,0.2l-0.5,1.3c0,0,0,0.2-0.1,0.2c-0.1,0-0.3-0.2-0.8-0.2c-0.9,0-1.7,1.3-2.3,1.9V132.1z"/>
				<path d="M468.9,132.1c0,0.2-0.1,0.3-0.3,0.3h-1.3c-0.2,0-0.3-0.1-0.3-0.3V122h-1.9c-0.2,0-0.3-0.1-0.3-0.3v-0.9
					c0-0.2,0.1-0.3,0.3-0.3h3.5c0.3,0,0.3,0.1,0.3,0.4V132.1z M467.9,117.7c-0.8,0-1.5-0.7-1.5-1.5c0-0.8,0.7-1.5,1.5-1.5
					c0.8,0,1.5,0.7,1.5,1.5S468.7,117.7,467.9,117.7z"/>
				<path d="M479.8,131.5c0,0.1,0,0.2,0,0.2c0,0.3-1.9,1-3.2,1c-1.1,0-2-0.4-2.3-0.9c-0.7-0.8-0.7-1.9-0.7-2.8V122h-1.9
					c-0.2,0-0.2-0.2-0.2-0.3v-0.9c0-0.2,0-0.3,0.2-0.3h1.9v-3.4c0-0.1,0.1-0.2,0.3-0.3l1.3-0.4c0.1,0,0.1,0,0.2,0
					c0.1,0,0.1,0.1,0.1,0.3v3.8h3.7c0.1,0,0.3,0,0.3,0.2c0,0,0,0.1,0,0.2l-0.3,1c0,0.1-0.2,0.2-0.3,0.2h-3.3v7.1c0,1,0,2,1.5,2
					c1.2,0,2.2-0.7,2.4-0.7c0.1,0,0.2,0.1,0.2,0.1L479.8,131.5z"/>
				<path d="M484.6,132.1c0,0.2-0.1,0.3-0.3,0.3H483c-0.2,0-0.3-0.1-0.3-0.3V122h-1.9c-0.2,0-0.3-0.1-0.3-0.3v-0.9
					c0-0.2,0.1-0.3,0.3-0.3h3.5c0.3,0,0.3,0.1,0.3,0.4V132.1z M483.5,117.7c-0.8,0-1.5-0.7-1.5-1.5c0-0.8,0.7-1.5,1.5-1.5
					c0.8,0,1.5,0.7,1.5,1.5S484.4,117.7,483.5,117.7z"/>
				<path d="M497.6,132.1c0,0.2-0.1,0.3-0.3,0.3H496c-0.2,0-0.3-0.1-0.3-0.3v-8.3c0-1.1-0.3-2-1.6-2c-1.6,0-2.7,1-3.3,1.5v8.8
					c0,0.2-0.1,0.3-0.3,0.3h-1.3c-0.2,0-0.3-0.1-0.3-0.3v-8.6c0-0.8,0-1.1-0.1-1.5c-0.2-0.7-0.4-0.9-0.4-1c0,0,0-0.1,0.1-0.2
					l1.1-0.6c0,0,0.1-0.1,0.2-0.1c0.4,0,0.7,1.5,0.8,1.7c0.8-0.6,2.1-1.7,4-1.7c2.8,0,3,1.9,3,3.7V132.1z"/>
				<path d="M509.5,127.6c0,1.4,0.2,4.3,0.2,5.6c0,2.3-1,4.4-4.4,4.4c-1.9,0-4.2-0.8-4.2-1.3c0-0.1,0-0.2,0.1-0.3l0.4-0.8
					c0-0.1,0.1-0.1,0.2-0.1c0.2,0,1.7,1,3.4,1c2.3,0,2.6-1.3,2.6-2.7c0-1.2-0.1-2.3-0.1-2.6c-0.6,0.5-1.7,1.4-3.4,1.4
					c-2.3,0-3.8-2-3.8-5.5c0-3.9,1.5-6.5,4.7-6.5c1.6,0,2.6,0.8,2.9,1.1c0.2-0.6,0.5-1.1,0.7-1.1c0.1,0,0.2,0,0.2,0l1.1,0.7
					c0.1,0.1,0.1,0.1,0.1,0.1c0,0.2-0.2,0.3-0.4,0.9c-0.2,0.6-0.3,0.9-0.3,1.8V127.6z M507.6,122.5c-0.4-0.2-1.3-0.7-2.3-0.7
					c-1.9,0-2.8,1.7-2.8,4.3c0,2.6,0.5,4.3,2.2,4.3c1.3,0,2.3-0.8,2.9-1.2V122.5z"/>
			</g>
		</g>
		<path d="M454.8,98.1c-2.3,0-4.2-1.9-4.2-4.2c0-2.3,1.9-4.2,4.2-4.2c2.3,0,4.2,1.9,4.2,4.2C459,96.2,457.2,98.1,454.8,98.1z"/>
	</g>
</g>
</svg>
