<?xml version="1.0" encoding="utf-8"?>
<!-- Generator: Adobe Illustrator 19.1.0, SVG Export Plug-In . SVG Version: 6.00 Build 0)  -->
<svg version="1.1" id="Layer_1" xmlns="http://www.w3.org/2000/svg" xmlns:xlink="http://www.w3.org/1999/xlink" x="0px" y="0px"
	 viewBox="0 0 218.5 218.5" style="enable-background:new 0 0 218.5 218.5;" xml:space="preserve">
<style type="text/css">
	.st0{fill:#0087B6;}
</style>
<g>
	<path class="st0" d="M116.2,0.2l-0.6,11.4L150.4,8C139.7,3.7,128.2,1,116.2,0.2z M162.4,13.8c-2.1-1.2-4.3-2.3-6.6-3.4l-40.4,4.2
		l-1.2,24.6c10.4,0.7,20.1,3.7,28.7,8.4L162.4,13.8z M113.2,0.1c-1.3,0-2.6-0.1-4-0.1C86.6,0,65.6,6.9,48.1,18.7l64.5-6.7L113.2,0.1
		z M23.3,41.8C11.4,57,3.4,75.4,0.9,95.5l14.3,1.6L23.3,41.8z M109.3,39c0.7,0,1.4,0,2,0l1.2-24.1l-69.2,7.2c-2.7,2-5.3,4.2-7.8,6.5
		l26.7,28.4C74.7,45.8,91.2,39,109.3,39z M39.6,99.9c2.1-15.9,9.6-30.1,20.5-40.8L33.4,30.6c-2.3,2.2-4.4,4.5-6.5,6.9l-8.8,59.9
		L39.6,99.9z M17.7,100.3l-2.5,17.4l24.1-2.6c-0.2-2-0.2-3.9-0.2-5.9c0-2.2,0.1-4.3,0.3-6.5L17.7,100.3z M179.1,101.5l38.9-3.5
		c-0.1-1.3-0.3-2.6-0.5-3.9l-43.6-72.9c-1.3-1-2.6-1.9-3.9-2.8l6,68.7C177.4,91.7,178.5,96.5,179.1,101.5z M180.4,26.4L216,86
		C210.9,62.3,198.1,41.6,180.4,26.4z M155.3,162.2l18.5,22.2l6.5-11.9l-3.8-43.4C172.8,142.2,165.3,153.6,155.3,162.2z M14.8,100
		L0.5,98.4C0.2,102,0,105.6,0,109.3c0,3.4,0.2,6.7,0.5,10.1l11.7-1.2L14.8,100z M172.2,78l-5.3-61.6c-0.6-0.4-1.3-0.8-1.9-1.2
		l-19.4,33.8C156.9,56,166.2,66,172.2,78z M153.1,164.1c-3.2,2.6-6.7,4.9-10.4,6.9l17.8,34.7c0.8-0.4,1.7-0.9,2.5-1.4l9.3-17.1
		L153.1,164.1z M168,201.4c3.5-2.2,6.9-4.7,10.1-7.3l-3.7-4.4L168,201.4z M175.9,186.9l4.4,5.3c0.5-0.5,1.1-0.9,1.6-1.4l-1.1-12.9
		L175.9,186.9z M218.5,108.9l-35.1,64.3l1.3,15.1c20.8-19.9,33.8-47.9,33.8-79C218.5,109.1,218.5,109,218.5,108.9z M218.2,101
		l-38.9,3.5c0.1,1.6,0.2,3.2,0.2,4.8c0,3.5-0.3,7-0.8,10.3l4.2,48.4l35.4-64.9C218.3,102.4,218.2,101.7,218.2,101z M109.3,179.5
		c-15.6,0-30-5.1-41.6-13.6l-10.4,13.5l99.4,28.3c0.4-0.2,0.8-0.4,1.2-0.6l-17.8-34.7C130.8,176.9,120.3,179.5,109.3,179.5z
		 M39.6,118.1l-24.9,2.6l-4.9,33.7c1,2.3,2.1,4.5,3.3,6.6l34.1-19C43.3,134.8,40.7,126.7,39.6,118.1z M65.3,164
		c-6.7-5.4-12.4-11.9-16.7-19.4l-34.1,19c0.8,1.4,1.7,2.8,2.6,4.2l37.2,10.6L65.3,164z M109.3,218.5c13.8,0,27-2.6,39.2-7.3
		l-89.9-5.2C73.7,214,91,218.5,109.3,218.5z M0.8,122.2c1.1,9.4,3.4,18.5,6.8,27l4.1-28.2L0.8,122.2z M19.6,171.6
		c6.1,8.8,13.6,16.7,22,23.4l10.8-14L19.6,171.6z M55.3,181.8l-11.5,14.9c2.9,2.1,5.8,4.1,8.9,6l95.4,5.5L55.3,181.8z"/>
	<g>
		<path class="st0" d="M52.6,110c-0.2,3.4,2.2,4.5,5.2,4.5c2.1,0,4.6-1,4.6-3.4c0-2.4-3.1-2.9-6.2-3.8c-3.1-1-6.1-2.3-6.1-6.5
			c0-5.4,4.9-7.5,9.6-7.5c5,0,9.1,2.2,9.1,7.8h-5.1c0.1-2.7-1.9-3.7-4.4-3.7c-2,0-4.2,0.8-4.2,3c0,2.4,4.1,3,5.8,3.4
			c3.8,1,6.5,2.4,6.5,6.8c0,5.8-5.3,8-9.9,8c-6.7,0-10.1-2.8-10.1-8.6H52.6z"/>
		<path class="st0" d="M74.4,93.7h5.4L74.6,118h-5.4L74.4,93.7z"/>
		<path class="st0" d="M97,115.5L97,115.5c-1.7,2.2-3.9,3.1-6.2,3.1c-6.8,0-10.8-3.9-10.8-10.7c0-7.9,5.1-14.7,13.3-14.7
			c5.7,0,10.3,2.7,10.3,8.6h-5.3c-0.1-2.9-2-4.1-4.9-4.1c-5.5,0-8,5.5-8,10.2c0,3.3,1.6,6.3,5.5,6.3c4,0,5.8-2.1,6.7-5.2H92l0.8-4
			h10.3l-2.8,13.1H97V115.5z"/>
		<path class="st0" d="M108.2,93.7h5.5l6.6,17.3h0.1l3.5-17.3h4.9l-5.1,24.3h-5.3l-6.7-17h-0.1l-3.5,17h-5L108.2,93.7z"/>
		<path class="st0" d="M140.1,93.7h5.5l4,24.3h-5.3l-0.8-5.4h-9.1l-3.1,5.4h-5.6L140.1,93.7z M136.6,108.6h6.5l-1.2-9.7h-0.1
			L136.6,108.6z"/>
		<path class="st0" d="M156.7,93.7h5.4l-4.1,19.8h11.7l-1,4.5h-17.1L156.7,93.7z"/>
		<path d="M79.7,131.6c0.4-2.8,2.8-4.1,5.5-4.1c2.5,0,4.7,0.7,4.7,3.3c0,0.7-0.2,1.6-0.4,2.3l-0.8,3.5c-0.1,0.5-0.3,1.2-0.3,1.8
			s0.3,0.8,0.6,0.8c0.2,0,0.5-0.1,0.7-0.2l-0.3,1.6c-0.3,0.2-0.9,0.3-1.3,0.3c-1.2,0-1.8-0.7-1.7-1.8l0,0c-0.9,1.2-2.1,1.8-4.3,1.8
			c-2.1,0-3.9-1-3.9-3.6c0-3.7,3.6-3.9,6.4-4.2c2.2-0.2,3.2-0.3,3.2-2c0-1.4-1.5-1.7-2.6-1.7c-1.6,0-3.2,0.6-3.4,2.3H79.7z
			 M82.6,139c1.6,0,2.8-0.5,3.6-1.7c0.7-1,0.8-2.1,1.1-3.3h0c-0.9,0.5-2.6,0.7-4.1,0.9c-1.5,0.2-2.8,0.7-2.8,2.3
			C80.3,138.4,81.4,139,82.6,139z"/>
		<path d="M101.6,140.5h-2l0.4-1.9h0c-1.1,1.4-2.8,2.2-4.5,2.2c-2.4,0-3.6-1-3.6-3.3c0-0.5,0.1-1.5,0.4-2.5l1.6-7.3h2.1l-1.6,7.4
			c-0.1,0.5-0.3,1.5-0.3,2c0,1.2,1,1.8,2.2,1.8c2.3,0,4.1-2,4.6-4.1l1.5-7h2.1L101.6,140.5z"/>
		<path d="M116.1,140.5h-2l0.4-1.8h0c-1.3,1.7-2.5,2.1-4.2,2.1c-3.3,0-5-2.1-5-5.2c0-3.9,2.6-8.1,7.1-8.1c1.6,0,3.5,0.5,4,2.2h0
			l1.4-6.8h2.1L116.1,140.5z M110.7,139c3.2,0,5-3.7,5-6.3c0-1.9-1.1-3.3-3.2-3.3c-3.3,0-5.1,3.5-5.1,6.3
			C107.4,137.6,108.4,139,110.7,139z"/>
		<path d="M122.3,127.8h2.1l-2.7,12.7h-2.1L122.3,127.8z M124.9,125.5h-2.1l0.5-2.6h2.1L124.9,125.5z"/>
		<path d="M133.5,127.5c3.4,0,5.3,1.9,5.3,5.3c0,4.2-2.6,8.1-7,8.1c-3.4,0-5.4-2.2-5.4-5.3C126.4,131.3,129.1,127.5,133.5,127.5z
			 M132,139c3.1,0,4.7-3.5,4.7-6c0-2-1.1-3.6-3.4-3.6c-3.2,0-4.9,3.5-4.9,6.1C128.5,137.5,129.7,139,132,139z"/>
	</g>
</g>
</svg>
